<?xml version="1.0" encoding="UTF-8" standalone="no" ?>
<!DOCTYPE svg PUBLIC "-//W3C//DTD SVG 1.1//EN" "http://www.w3.org/Graphics/SVG/1.1/DTD/svg11.dtd">
<svg xmlns="http://www.w3.org/2000/svg" xmlns:xlink="http://www.w3.org/1999/xlink" version="1.1" width="1280" height="1024" viewBox="0 0 1280 1024" xml:space="preserve">
<desc>Created with Fabric.js 4.4.0</desc>
<defs>
</defs>
<g transform="matrix(1 0 0 1 640 512)" id="background-logo"  >
<rect style="stroke: none; stroke-width: 0; stroke-dasharray: none; stroke-linecap: butt; stroke-dashoffset: 0; stroke-linejoin: miter; stroke-miterlimit: 4; fill: rgb(255,255,255); fill-opacity: 0; fill-rule: nonzero; opacity: 1;"  paint-order="stroke"  x="-640" y="-512" rx="0" ry="0" width="1280" height="1024" />
</g>
<g transform="matrix(2.8580559161842616 0 0 2.8580559161842616 640.9571410321923 362.5045150262779)" id="logo-logo"  >
<g style=""  paint-order="stroke"   >
		<g transform="matrix(0.31240471927426056 0 0 0.31240471927426056 0 0)"  >
<g style=""  paint-order="stroke"   >
		<g transform="matrix(1 0 0 1 0 0)"  >
<path style="stroke: none; stroke-width: 1; stroke-dasharray: none; stroke-linecap: butt; stroke-dashoffset: 0; stroke-linejoin: miter; stroke-miterlimit: 4; fill: rgb(77,70,55); fill-rule: nonzero; opacity: 1;"  paint-order="stroke"  transform=" translate(-466.33111475334925, -421.03307780473534)" d="M 661.9406738 755.5270996 C 655.69458 743.7233887 630.0080566 655.9020996 635.5598144 599.4421387 L 641.3527832000001 629.0671387 C 641.3527832000001 629.0671387 696.6525879000001 564.2702637 654.0695801 513.8278809 L 654.0695801 496.5837403 L 623.7609863 541.0095215 L 624.4562988 567.7380371 L 614.3830566 551.0769043 C 614.3830566 551.0769043 589.7443847000001 562.8815918 572.7355957 540.6628418 C 572.7355957 540.6628418 602.5842285 553.8562012 611.6096190999999 540.3151856000001 C 620.6350097 526.7800294000001 663.3303222 457.81616220000006 663.3303222 457.81616220000006 C 663.3303222 457.81616220000006 683.4592283999999 401.12622080000006 660.5568847 349.7531739000001 C 660.5568847 349.7531739000001 660.5568847 288.8952637000001 660.5568847 277.3210450000001 C 660.5568847 265.7521973000001 645.6271972 234.51391610000007 645.6271972 228.96167000000008 C 645.6271972 223.40454110000007 659.6271972 216.92797860000007 659.6271972 211.14672860000007 C 659.6271972 205.35375980000006 648.28833 203.96459970000006 642.0412597 205.35375980000006 C 635.7951658999999 206.74292000000005 628.0969237999999 212.64819340000005 629.3127440999999 216.11596680000005 C 630.5285643999999 219.58374020000005 638.1652831999999 221.84692380000004 638.1652831999999 227.22534180000005 C 638.1652831999999 232.60327150000006 612.1311034999999 233.81909180000005 598.2482909999999 215.94213870000004 C 598.2482909999999 215.94213870000004 598.0695800999998 232.42944340000005 630.5285643999998 235.90307620000004 C 630.5285643999998 235.90307620000004 618.7297362999998 247.52807620000004 596.5119627999998 230.86694340000005 C 596.5119627999998 230.86694340000005 597.7219236999998 236.13256840000005 602.4719236999998 239.83032230000006 C 602.4719236999998 239.83032230000006 589.3967283999998 239.71850590000005 581.5871580999998 228.43530280000007 C 581.5871580999998 228.43530280000007 581.0607908999998 233.24194340000008 586.7297361999998 239.71850590000008 C 586.7297361999998 239.71850590000008 576.2092283999998 238.21655280000007 571.4582517999999 224.6818848000001 C 571.4582517999999 224.6818848000001 569.2619626999999 228.2673340000001 570.6516111999998 234.8610840000001 C 563.0148923999998 228.6145020000001 560.8195799999999 204.8942871000001 577.4807127999998 188.4626465000001 C 577.4807127999998 188.4626465000001 569.6096189999997 193.0344238000001 564.9260252999998 200.1491699000001 C 565.0939940999998 190.6027832000001 579.1555174999997 177.4152832000001 594.6008299999997 172.72583010000008 C 592.0578611999997 178.63061530000007 583.6037596999997 183.14038090000008 581.9904783999998 191.4714356000001 C 586.0354002999998 185.6843262000001 601.3742674999999 179.1462403000001 605.3635252999998 172.72583010000008 C 609.3518064999997 166.3059082000001 615.0773924999997 143.91870120000007 621.5031736999997 143.91870120000007 C 627.9230955999997 143.91870120000007 630.0080564999997 159.88549810000006 642.5070798999997 170.29467780000007 C 638.3381345999996 152.24975590000008 662.6359860999996 129.51000980000006 615.7727048999997 88.72534190000007 C 615.7727048999997 88.72534190000007 624.6857907999997 88.72534190000007 635.3244626999997 99.83471690000007 C 643.6604001999997 84.09741220000008 640.7355954999997 64.94897470000006 628.3889157999997 58.640869200000076 C 614.5617673999997 51.587646500000076 600.8479001999997 72.75854500000008 592.0578610999997 72.75854500000008 C 583.2619626999997 72.75854500000008 543.4631344999998 72.75854500000008 543.4631344999998 72.75854500000008 C 536.2863766999998 72.75854500000008 514.9426266999998 44.153076200000086 490.9309078999998 62.57885750000008 C 471.0314937999998 77.85668950000009 487.9279781999998 110.01391610000007 487.9279781999998 110.01391610000007 C 487.9279781999998 110.01391610000007 458.8830562999998 145.65551770000008 458.8830562999998 172.72583020000008 C 458.8830562999998 172.72583020000008 451.7648921999998 161.79028330000008 438.7482906999998 157.6276857000001 C 438.7482906999998 157.6276857000001 448.2941890999998 167.00073260000008 448.6418453999998 179.8410646000001 C 448.6418453999998 179.8410646000001 440.4846187999998 163.8742677000001 424.1711422999998 162.1374513000001 C 424.1711422999998 162.1374513000001 433.3698727999998 168.7370607000001 435.4514156999998 183.31420910000008 C 435.4514156999998 183.31420910000008 424.69165009999983 167.86889660000008 407.3361812999998 167.69506850000008 C 407.3361812999998 167.69506850000008 414.9719234999998 172.21069350000008 419.4846187999998 183.31420910000008 C 419.4846187999998 183.31420910000008 405.9465328999998 171.8630372000001 388.4172359999998 173.7683107000001 C 388.4172359999998 173.7683107000001 399.70043909999976 179.49340840000008 405.77270479999976 189.5666505000001 C 383.21264619999977 176.1994630000001 347.11157199999974 179.67260750000008 337.39379859999974 220.62573250000008 C 337.39379859999974 220.62573250000008 355.09448219999973 190.5412598000001 372.6857907999997 194.01489270000008 C 372.6857907999997 194.01489270000008 366.6633298999997 195.05688490000009 364.1198727999997 198.8776857000001 C 364.1198727999997 198.8776857000001 380.2014157999997 194.24975600000008 386.2209469999997 204.0817873000001 C 392.2375485999997 213.9196779000001 381.9968258999997 233.4714357000001 381.9968258999997 233.4714357000001 C 381.9968258999997 233.4714357000001 387.8371578999997 229.3093263000001 389.6945797999997 222.5974123000001 C 389.5739742999997 233.0124514000001 359.6071774999997 284.4973146000001 361.3439938999997 337.2541506000001 C 361.3439938999997 337.2541506000001 368.2854000999997 304.1672365000001 375.9211422999997 293.0632326000001 C 376.1564938999997 316.8952638000001 369.6745602999997 350.6828615000001 354.6350094999997 378.6774904000001 C 361.5764156999997 384.0056154000001 357.41137669999966 396.96362320000014 327.5593258999997 396.96362320000014 C 300.0183102999997 396.96362320000014 305.1105953999997 385.33325210000015 305.1105953999997 385.33325210000015 C 297.1276851999997 386.8962404000001 300.2536617999997 396.96362320000014 312.2287594999997 401.12622090000013 C 312.2287594999997 401.12622090000013 302.3352047999997 402.74487320000014 298.6320797999997 394.7673342000001 C 298.6320797999997 394.7673342000001 297.4748531999997 402.8630373000001 310.5510250999997 405.9831545000001 C 310.5510250999997 405.9831545000001 302.10278289999974 406.4479983000001 297.4748531999997 402.86303730000014 C 297.4748531999997 402.86303730000014 299.5588375999997 408.99731460000015 309.3908687999997 411.0812990000002 C 309.3908687999997 411.0812990000002 303.8361812999997 412.69506850000016 298.6320796999997 409.45678730000014 C 298.6320796999997 409.45678730000014 299.79125939999966 414.43139670000016 308.69653279999966 415.82104510000016 C 308.69653279999966 415.82104510000016 303.95678669999967 417.9050295000002 299.6711421999997 415.82104510000016 C 299.6711421999997 415.82104510000016 303.55053669999967 422.99194350000016 322.4670405999997 422.99194350000016 L 322.4670405999997 449.72631850000016 C 322.4670405999997 449.72631850000016 306.50024369999966 452.1520997000002 292.4416499999997 444.86303730000014 C 292.4416499999997 444.86303730000014 295.3937983999997 452.84643570000014 309.2761226999997 456.84057640000015 C 309.2761226999997 456.84057640000015 302.5676265999997 458.51049830000017 295.5061031999997 454.00073260000016 C 295.5061031999997 454.00073260000016 296.7805172999997 460.9421388000002 309.6232906999997 464.1853029000002 C 309.6232906999997 464.1853029000002 304.0715328999997 466.2692873000002 297.9372554999997 462.91381850000016 C 297.9372554999997 462.91381850000016 303.0295406999997 473.67065440000016 327.3269038999997 475.9274904000002 C 327.3269038999997 475.9274904000002 321.8869624999997 478.29760760000016 315.4103999999997 476.4489748000002 C 315.4103999999997 476.4489748000002 319.2287593999997 481.4235842000002 329.2961421999997 482.2360842000002 C 316.4523921999997 486.97534200000024 272.0236812999997 474.9470217000002 271.32934529999966 499.70971700000024 L 271.32934529999966 502.2194826000002 C 286.43872029999966 496.5104982000002 300.61498979999965 496.5944826000002 311.3801264999997 502.9030764000002 C 321.0466303999997 508.5612795000002 332.5646967999997 521.9392092000002 332.5344233999997 553.5144045000002 C 332.47241169999967 615.0270998000002 299.8361811999997 619.8063967000002 289.8391108999997 619.8063967000002 C 283.0993647999997 619.8063967000002 276.3850092999997 616.6520998000002 270.9367670999997 610.9265139000001 C 262.1467279999997 601.6823733000001 257.7658686999997 587.3571780000002 258.6062006999997 570.5895998000001 C 260.1330561999997 540.0407717 272.9455561999997 518.0964357 289.1555170999997 518.0964357 C 289.3181147999997 518.0964357 289.4777826999997 518.1022951 289.6398920999997 518.1022951 C 294.87817329999973 518.2419435 299.6740717999997 520.5729982 303.5139154999997 524.819092 C 310.9372552999997 533.0437013999999 313.4919427999997 546.9255373 312.7326654999997 557.0495608 C 312.1726068999997 564.5056155 309.2424310999997 588.8923342 295.0012201999997 589.6042483 C 291.1584467999997 589.8063967 287.5422357999997 588.2927248999999 284.8645013999997 585.3796389 C 280.1555169999997 580.2712405 278.42407169999973 570.9655764 279.9958490999997 559.1950686 C 280.40161079999973 556.1579592 283.2111810999997 554.0241702 286.2336420999997 554.4216311 C 289.2761225999997 554.8308108 291.4133295999997 557.6267092 291.00414989999973 560.6628420000001 C 289.71606399999973 570.3269045000001 291.29565379999974 575.9685061 293.03539989999973 577.8620608000001 C 293.5617670999997 578.4333499 293.97387649999973 578.5681155000001 294.44946239999973 578.5056155000001 C 295.7883295999997 578.4440921 300.50317329999973 571.6091311000001 301.6569818999997 556.2145999 C 302.33227489999973 547.1833499 299.64868109999975 537.1110843 295.2707513999997 532.2644046 C 293.4665521999997 530.2644046 291.52563419999973 529.2673343 289.3430169999997 529.2116702000001 C 280.9929192999997 528.7634280000001 270.9680169999997 545.7829593000001 269.6984857999997 571.1394046 C 269.0236810999997 584.6462405000001 272.4103998999997 596.3552249 278.9875482999997 603.2741702000001 C 282.3151849999997 606.7692874 286.1721185999997 608.6970218 289.8391107999997 608.6970218 C 299.3181146999997 608.6970218 321.3742669999997 603.3181156 321.4250482999997 553.5026859 C 321.4475091999997 532.6853030999999 316.0324701999997 518.4997562 305.76635689999966 512.4880375 C 297.01830999999964 507.3620609 274.96801709999966 504.0515141 260.1525873999997 529.8054203 C 254.21411079999967 540.1306156 248.88061469999968 555.8669437000001 248.88061469999968 576.0690922 C 248.88061469999968 616.3386234 273.2951654999997 634.4392094 293.8894037999997 636.6296391 C 307.7692865999997 638.1091313 349.5427240999997 641.0944829 349.5427240999997 641.0944829 L 413.0646967999997 570.1696782 L 419.3107905999997 576.7634282 L 253.2785645 761.8864746 L 257.90600589999997 766.5192871 L 356.94604499999997 667.4763183 L 347.4978028 748.0144042 C 361.5344239 743.9030760999999 377.0808106 746.7712401 390.2072755 754.6091307999999 C 352.37182629999995 745.9304198999998 335.98266609999996 764.9333495999999 326.9797364 785.6735838999999 L 423.246338 785.6735838999999 C 441.5715333 766.2106932999999 457.8630372 687.0114745 504.1184083 681.8288573 C 504.1184083 681.8288573 492.090088 687.3757323 484.6789552 696.6306151 C 484.6789552 696.6306151 515.9230958 679.7448729 539.9953614 701.9587401 C 539.9953614 701.9587401 517.7766114 692.238037 500.4211426 700.5690917 C 500.4211426 700.5690917 531.1662598 708.2946776 559.536377 738.7145995 C 570.6291504000001 750.6032713999999 588.4777832 785.6735838999999 598.8195801 785.6735838999999 L 683.7619629000001 785.6735838999999 C 684.5402832 767.454834 661.9406738 755.5270996 661.9406738 755.5270996 z M 587.536377 158.1149902 C 588.0744629000001 154.0368652 591.9348145 150.7424316 596.1701661 150.75366209999999 C 600.3996582999999 150.7648926 603.4025879999999 154.08178709999999 602.8762207999999 158.154541 C 602.3381348999999 162.2331543 598.4719239 165.5212402 594.2482911 165.5158691 C 590.0070801 165.5046387 587.0100098 162.1936035 587.536377 158.1149902 z M 500.0734863 73.3415527 C 512.4719238 63.06665039999999 529.1721191 81.4362793 529.1721191 81.4362793 L 524.3312988 85.3078613 C 521.373291 81.9685058 513.5363769 74.9660644 502.7297363 79.4699707 C 502.7297363 79.4699707 510.96997070000003 81.6608887 517.6984863 90.6188965 L 501.40747070000003 103.6496582 C 501.4074707 103.6496582 487.2336426 83.9855957 500.0734863 73.3415527 z M 494.1750488 342.576416 L 511.7600097 342.576416 L 511.7600097 354.845459 L 494.1750488 354.845459 L 494.1750488 342.576416 z M 486.661377 337.5007324 L 488.1857911 359.1091308 C 488.4211427 362.4309081 485.7824708 365.2600097 482.44848640000004 365.2600097 L 454.68383800000004 365.2600097 C 451.60815440000005 365.2600097 449.02856460000004 362.9465331 448.6921388 359.8874511 L 445.9943849 335.14233390000004 C 445.6477052 331.9489745 448.1486818 329.16479480000004 451.3645021 329.16479480000004 L 477.7092287 329.16479480000004 C 482.4211426 329.1647949 486.3312988 332.8005371 486.661377 337.5007324 z M 485.6086426 371.2712402 C 485.6086426 371.2712402 485.6086426 398.35278320000003 485.6086426 408.7619629 C 485.6086426 419.1765137 476.9309082 447.2946777 476.583252 460.829834 C 463.0480958 449.0310059 454.37036140000004 422.1853028 454.37036140000004 407.7199707 C 454.37036140000004 399.3952637 454.37036140000004 371.27124019999997 454.37036140000004 371.27124019999997 L 485.6086426 371.27124019999997 z M 442.2214355 224.0993652 C 442.2214355 224.0993652 475.8937988 267.4890136 481.0930175 324.0666504 L 446.3869628 324.0666504 C 446.3869628 324.0666504 444.3029784 281.029541 411.6750487 237.6345215 L 442.2214355 224.0993652 z M 446.967041 553.8562012 L 428.6838379 573.2907715 L 414.10375980000003 562.4216309 L 428.45141600000005 547.3737793 C 428.45141600000005 547.3737793 416.88208010000005 539.0437012 412.71704100000005 530.0183105 L 362.73364260000005 576.416748 L 367.59057620000004 531.2956542 L 397.442627 501.44116199999996 C 397.442627 501.44116199999996 373.3776856 452.96459949999996 380.548584 403.210205 C 387.0305176 463.37280269999997 425.4455567 569.8220214 483.76000980000003 540.2028808 C 483.7600098 540.2028809 478.8967285 558.2536621 446.967041 553.8562012 z M 497.8723145 493.4577637 L 485.6086426 477.72631839999997 C 485.6086426 477.72631839999997 498.7961426 464.9978028 505.2834473 458.51049809999995 C 511.7600098 452.03393559999995 524.4885254 445.32299809999995 529.3459473 453.88842779999993 C 534.2023926 462.454834 525.4133301 482.1188965 497.8723145 493.4577637 z M 555.2678223 361.3220215 L 520.0852051 361.3220215 L 520.0852051 357.1535645 L 555.2678223 357.1535645 L 555.2678223 361.3220215 z M 555.2678223 351.142334 L 520.0852051 351.142334 L 520.0852051 335.635498 L 555.2678223 335.635498 L 555.2678223 351.142334 z M 607.7941895 244.5808105 L 632.7805176 279.6403808 C 632.7805176 279.6403808 621.677002 306.1335449 621.677002 329.1647949 L 590.786377 322.329834 C 590.786377 322.329834 590.786377 276.166748 607.7941895 244.5808105 z M 586.8869629 335.8200684 C 587.1730957 331.4724122 591.2678222999999 328.4025879 595.5256347999999 329.35522460000004 L 616.2434082 334.00512690000005 C 620.3547363 334.92358390000004 623.0666504 338.85668940000005 622.4729004 343.03002920000006 L 619.3684082 364.71118150000007 C 618.864502 368.28002920000006 615.4699707 370.67749010000006 611.9406738 369.9714354000001 L 590.4504394 365.6579588000001 C 587.3352050000001 365.03051740000006 585.1613769 362.19555650000007 585.3742675000001 359.0246580000001 L 586.8869629 335.8200684 z M 586.270752 371.2712402 L 614.3830567 375.092041 C 614.3830567 375.092041 607.7941895 423.3395996 590.786377 453.88842769999997 C 590.786377 453.8884277 581.755127 420.2185059 586.270752 371.2712402 z M 562.8977051 342.3522949 L 580.4836426 342.3522949 L 580.4836426 354.6101074 L 562.8977051 354.6101074 L 562.8977051 342.3522949 z" stroke-linecap="round" />
</g>
		<g transform="matrix(1 0 0 1 -112.27172438067436 -167.1431922624106)"  >
<path style="stroke: none; stroke-width: 1; stroke-dasharray: none; stroke-linecap: butt; stroke-dashoffset: 0; stroke-linejoin: miter; stroke-miterlimit: 4; fill: rgb(77,70,55); fill-rule: nonzero; opacity: 1;"  paint-order="stroke"  transform=" translate(-354.0593903726749, -253.88988554232475)" d="M 335.3098145 277.9035645 C 364.1198731 293.001709 385.81469730000003 247.01245120000002 363.7727051 230.4631348 C 365.9689942 234.9787598 364.2932129 239.8977051 364.2932129 239.8977051 C 362.21215820000003 230.3513184 353.708252 228.4353028 353.708252 228.4353028 C 360.8229981 234.86108399999998 357.8732911 243.3654786 357.8732911 243.3654786 C 355.6154786 230.69848639999998 344.2204591 226.87768559999998 344.2204591 226.87768559999998 C 359.0275879 240.3010254 354.0554199 266.0993652 335.3098145 277.9035645 z" stroke-linecap="round" />
</g>
		<g transform="matrix(1 0 0 1 -133.8170662168037 -169.9941712162577)"  >
<path style="stroke: none; stroke-width: 1; stroke-dasharray: none; stroke-linecap: butt; stroke-dashoffset: 0; stroke-linejoin: miter; stroke-miterlimit: 4; fill: rgb(77,70,55); fill-rule: nonzero; opacity: 1;"  paint-order="stroke"  transform=" translate(-332.51404853654554, -251.03890658847763)" d="M 332.0129395 269.052002 C 326.3996583 255.92016610000002 328.0217286 240.9958497 341.9064942 233.12426760000002 C 324.3771973 231.2141113 315.1779785 257.595459 332.0129395 269.052002 z" stroke-linecap="round" />
</g>
		<g transform="matrix(1 0 0 1 -137.15289210334925 -36.454217408173974)"  >
<path style="stroke: none; stroke-width: 1; stroke-dasharray: none; stroke-linecap: butt; stroke-dashoffset: 0; stroke-linejoin: miter; stroke-miterlimit: 4; fill: rgb(77,70,55); fill-rule: nonzero; opacity: 1;"  paint-order="stroke"  transform=" translate(-329.17822265, -384.57886039656137)" d="M 348.7331543 388.0505371 C 344.42211910000003 374.0500488 311.4470215 376.8288574 309.623291 390.3640137 C 316.8283691 383.0754395 340.083252 381.0808105 348.7331543 388.0505371 z" stroke-linecap="round" />
</g>
		<g transform="matrix(1 0 0 1 1.114770936993807 -74.05458469530305)"  >
<path style="stroke: none; stroke-width: 1; stroke-dasharray: none; stroke-linecap: butt; stroke-dashoffset: 0; stroke-linejoin: miter; stroke-miterlimit: 4; fill: rgb(77,70,55); fill-rule: nonzero; opacity: 1;"  paint-order="stroke"  transform=" translate(-467.44588569034306, -346.9784931094323)" d="M 475.0314941 336.6828613 L 467.89379879999996 343.5231933 L 457.28051759999994 335.1589355 C 456.37573239999995 334.45874019999997 455.06762699999996 334.6101074 454.35327149999995 335.5065917 C 453.6418457 336.4138183 453.79858399999995 337.7194823 454.70043949999996 338.4362792 L 464.85766609999996 346.4309081 L 455.24145519999996 355.6520995 C 454.41235359999996 356.453369 454.386963 357.7697753 455.1823732 358.5988768 C 455.5886232 359.02465800000004 456.1379396 359.23754870000005 456.68676769999996 359.23754870000005 C 457.20483409999997 359.23754870000005 457.71997079999994 359.04711900000007 458.12622079999994 358.66088850000006 L 468.16333019999996 349.0417479000001 L 477.60864269999996 356.48120100000006 C 477.99536149999994 356.7839354000001 478.44848649999994 356.92944320000004 478.89672859999996 356.92944320000004 C 479.51293949999996 356.92944320000004 480.1291505 356.66088850000006 480.53833019999996 356.13403300000004 C 481.25024429999996 355.23217750000003 481.09301769999996 353.92651350000006 480.19067399999994 353.20971660000004 L 471.19946309999995 346.1281736 L 477.91137719999995 339.6857908 C 478.74047879999995 338.8903806 478.77368189999993 337.5734861 477.97290059999995 336.7390135 C 477.1711426 335.9206543 475.8605957 335.8815918 475.0314941 336.6828613 z" stroke-linecap="round" />
</g>
		<g transform="matrix(1 0 0 1 138.45381574706457 -71.74283905372266)"  >
<path style="stroke: none; stroke-width: 1; stroke-dasharray: none; stroke-linecap: butt; stroke-dashoffset: 0; stroke-linejoin: miter; stroke-miterlimit: 4; fill: rgb(77,70,55); fill-rule: nonzero; opacity: 1;"  paint-order="stroke"  transform=" translate(-604.7849305004138, -349.2902387510127)" d="M 595.1779785 357.2770996 C 595.6320800999999 357.2770996 596.0861816 357.1311035 596.467041 356.8288574 C 596.5344238 356.7839355 599.9855957 354.0944824 604.2932129 351.1706543 C 606.6691894999999 354.0612793 609.0998535 357.24340820000003 611.0666504 360.3522949 C 611.4641113 360.9802246 612.1359863 361.3220215 612.8254394999999 361.3220215 C 613.2062988999999 361.3220215 613.5988769999999 361.2209473 613.9348144999999 360.9968262 C 614.9094238999999 360.3806153 615.2004394999999 359.1032715 614.5852050999999 358.1286621 C 612.5793457 354.96850589999997 610.170166 351.78686519999997 607.8059082 348.8845215 C 610.3381347999999 347.2937012 612.9260254 345.8146973 615.2062988 344.8395996 C 616.2648926 344.3913574 616.7531738 343.1647949 616.2990722000001 342.10571289999996 C 615.8508300000001 341.05249019999997 614.6291503000001 340.55981449999996 613.5646972000001 341.00756839999997 C 610.9211425000001 342.13940429999997 607.9406738 343.85913089999997 605.1164550000001 345.65795899999995 C 601.3410644 341.2824707 598.2199706000001 338.10571289999996 597.9904784000001 337.87036129999996 C 597.1779784000001 337.0637207 595.8615722000002 337.0471191 595.0441893000002 337.86499019999997 C 594.2258299000002 338.67749019999997 594.2258299000002 339.9880371 595.0324705000002 340.8117675 C 595.0891111000002 340.8620605 598.0070799000001 343.82592769999997 601.5930174000001 347.96557609999996 C 597.4074705000002 350.81713859999996 594.1477049000001 353.3610839 593.9006346000001 353.55688469999996 C 592.9934080000002 354.26293939999994 592.8361815000001 355.57934559999995 593.5422362 356.48120109999996 C 593.9572754 357.0080566 594.5617676 357.2770996 595.1779785 357.2770996 z" stroke-linecap="round" />
</g>
</g>
</g>
</g>
</g>
<g transform="matrix(1.9211538461538462 0 0 1.9211538461538462 644.1290529368009 770.1338768214061)" id="text-logo-path-group"  >
<g style=""  paint-order="stroke"   >
		<g transform="matrix(1 0 0 1 -5.684342e-14 0)" id="text-logo-path-0"  >
<path style="stroke: none; stroke-width: 0; stroke-dasharray: none; stroke-linecap: butt; stroke-dashoffset: 0; stroke-linejoin: miter; stroke-miterlimit: 4; fill: rgb(77,70,55); fill-rule: nonzero; opacity: 1;"  paint-order="stroke"  transform=" translate(-322.81500000000005, 21.904999999999998)" d="M 3.43 -3.52 L 3.43 -3.52 L 3.43 -19.37 Q 3.43 -21.72 3.46 -25.57 Q 3.49 -29.42 3.49 -31.41 L 3.49 -31.41 L 3.49 -43.64 Q 3.55 -43.66 4.03 -43.66 Q 4.51 -43.66 5.13 -43.66 Q 5.74 -43.66 6.07 -43.72 L 6.07 -43.72 L 9.7 -43.87 Q 11.11 -43.93 11.87 -43.93 L 11.87 -43.93 L 16.53 -43.93 Q 17.76 -43.93 20.66 -44.03 Q 23.56 -44.13 25.14 -44.13 L 25.14 -44.13 Q 26.9 -44.13 29.01 -43.99 L 29.01 -43.99 L 29.22 -43.99 Q 30.21 -44.05 30.48 -44.05 L 30.48 -44.05 Q 33.35 -44.05 35.93 -43.08 Q 38.51 -42.11 40.51 -40.32 Q 42.52 -38.54 43.69 -35.72 Q 44.87 -32.91 44.87 -29.45 L 44.87 -29.45 Q 44.87 -26.9 44.25 -24.79 Q 43.64 -22.68 42.67 -21.2 Q 41.7 -19.72 40.24 -18.55 Q 38.77 -17.38 37.32 -16.67 Q 35.87 -15.97 34.05 -15.46 Q 32.24 -14.95 30.78 -14.7 Q 29.33 -14.45 27.66 -14.3 L 27.66 -14.3 L 27.69 -14.3 L 21.36 -14.04 Q 21.07 -7 21.07 -3.11 L 21.07 -3.11 Q 21.07 -2.93 21.08 -2.64 Q 21.1 -2.34 21.1 -2.2 L 21.1 -2.2 L 21.1 0.18 Q 20.98 0.59 20.66 0.73 L 20.66 0.73 L 3.93 1 Q 3.43 -0.41 3.43 -3.52 Z M 20.4 -26.61 L 20.34 -24.41 L 20.43 -22.65 Q 22.21 -22.68 23.72 -23.02 Q 25.23 -23.36 26.59 -24.09 Q 27.96 -24.82 28.73 -26.2 Q 29.51 -27.58 29.51 -29.51 L 29.51 -29.51 Q 29.51 -31.15 29.07 -31.94 L 29.07 -31.94 L 29.07 -31.91 Q 28.72 -32.88 28.02 -33.54 Q 27.31 -34.2 26.59 -34.52 Q 25.88 -34.84 24.72 -35.02 Q 23.56 -35.2 22.84 -35.22 Q 22.13 -35.25 20.84 -35.25 L 20.84 -35.25 Q 20.48 -35.25 20.4 -26.61 L 20.4 -26.61 Z M 57.15 -39.65 L 57.15 -39.65 Q 57.15 -43.37 57.77 -44.49 L 57.77 -44.49 Q 58.35 -44.46 59.38 -44.46 L 59.38 -44.46 L 60.78 -44.46 Q 61.61 -44.46 63.23 -44.49 Q 64.86 -44.51 65.71 -44.51 L 65.71 -44.51 Q 74.12 -44.51 74.97 -43.46 L 74.97 -43.46 Q 74.97 -41.79 74.85 -38.42 Q 74.73 -35.05 74.73 -33.23 L 74.73 -33.23 L 74.65 -24.65 Q 74.65 -24.59 74.63 -24.47 Q 74.62 -24.35 74.62 -24.29 L 74.62 -24.29 L 74.5 -12.1 L 75.67 -11.43 Q 80.98 -11.75 87.75 -11.75 L 87.75 -11.75 Q 90.91 -11.75 90.97 -11.25 L 90.97 -11.25 L 90.94 -11.14 Q 90.76 -10.61 90.76 -9.49 L 90.76 -9.49 L 90.76 -8.82 Q 90.76 -7.27 90.97 -6.59 L 90.97 -6.59 Q 90.97 -2.08 90.94 0.32 L 90.94 0.32 L 90.94 0.23 Q 90.76 1 62.02 1 L 62.02 1 Q 60.7 1 57.65 0.94 L 57.65 0.94 Q 57.18 0.06 57.18 -1.96 L 57.18 -1.96 Q 57.18 -2.26 57.21 -2.9 Q 57.24 -3.55 57.24 -3.87 L 57.24 -3.87 L 57.24 -10.52 Q 57.24 -11.14 57.25 -13.06 Q 57.27 -14.97 57.27 -16.09 L 57.27 -16.09 L 57.27 -21.6 Q 57.27 -23.03 57.28 -25.99 Q 57.3 -28.95 57.3 -30.48 L 57.3 -30.48 Q 57.3 -32.94 57.24 -35.11 L 57.24 -35.11 L 57.24 -35.43 Q 57.24 -36.02 57.19 -37.45 Q 57.15 -38.89 57.15 -39.65 Z M 98.71 0.5 L 98.71 0.5 Q 99.56 -2.43 100.67 -6.07 Q 101.79 -9.7 102.48 -11.82 Q 103.17 -13.95 104.7 -18.68 Q 106.24 -23.41 106.65 -24.65 L 106.65 -24.65 L 107.33 -26.73 L 107.3 -26.73 L 108.09 -29.16 Q 108.47 -30.33 110.27 -35.66 Q 112.07 -41 112.92 -43.9 L 112.92 -43.9 Q 112.98 -44.1 113.07 -44.16 L 113.07 -44.16 L 117.94 -44.16 Q 119.69 -44.16 123.17 -44.24 Q 126.64 -44.31 128.34 -44.31 L 128.34 -44.31 L 131.15 -44.16 Q 131.39 -44.16 132.19 -44.24 Q 133 -44.31 133.47 -44.31 L 133.47 -44.31 Q 135.23 -44.31 135.23 -43.61 L 135.23 -43.61 Q 138.16 -35.43 143.05 -20.07 Q 147.94 -4.72 148.56 -2.81 L 148.56 -2.81 L 148.97 -1.35 Q 149.17 -0.56 149.56 0.32 L 149.56 0.32 Q 149.53 0.59 149.13 0.64 Q 148.73 0.7 147.53 0.7 L 147.53 0.7 Q 147.18 0.7 146.98 0.7 L 146.98 0.7 L 145.25 0.7 Q 144.93 0.7 144.32 0.72 Q 143.72 0.73 143.43 0.73 L 143.43 0.73 L 141.64 0.73 Q 141.17 0.73 140.22 0.75 Q 139.27 0.76 138.8 0.76 L 138.8 0.76 Q 134.49 0.76 131.68 0.56 L 131.68 0.56 L 131.74 0.56 Q 131.65 0.53 131.53 0.21 L 131.53 0.21 L 131.39 -0.41 Q 131.27 -1.73 130.8 -3.58 Q 130.33 -5.42 130.01 -6.24 L 130.01 -6.24 L 117.47 -6.12 Q 117.35 -5.63 116.7 -3.16 Q 116.06 -0.7 115.74 0.56 L 115.74 0.56 Q 115.44 0.85 112.95 0.85 L 112.95 0.85 Q 112.84 0.85 112.59 0.84 Q 112.34 0.82 112.22 0.82 L 112.22 0.82 L 110.52 0.82 Q 109.26 0.82 106.71 0.91 Q 104.16 1 102.9 1 L 102.9 1 L 102.02 1 Q 101.85 1 101.58 1.01 Q 101.32 1.03 101.2 1.03 L 101.2 1.03 L 99.15 1.03 Q 98.95 0.82 98.71 0.5 Z M 119.14 -17.61 L 118.81 -15.68 L 120.54 -15.68 Q 120.69 -15.68 121.09 -15.66 Q 121.48 -15.65 121.74 -15.65 L 121.74 -15.65 L 128.75 -15.68 Q 128.31 -19.17 128.07 -20.81 L 128.07 -20.81 L 126.96 -25.82 Q 125.26 -33.32 125.2 -33.58 L 125.2 -33.58 L 125.09 -33.85 Q 125.09 -33.88 125.04 -34.01 Q 125 -34.14 124.97 -34.18 Q 124.94 -34.23 124.9 -34.35 Q 124.85 -34.46 124.81 -34.51 Q 124.76 -34.55 124.7 -34.65 Q 124.65 -34.76 124.57 -34.81 Q 124.5 -34.87 124.38 -34.96 Q 124.27 -35.05 124.13 -35.12 Q 124 -35.2 123.85 -35.25 L 123.85 -35.25 Q 123.06 -35.08 119.14 -17.61 L 119.14 -17.61 Z M 159.5 -0.38 L 159.5 -0.38 L 159.5 -0.91 Q 159.5 -1 159.51 -1.2 Q 159.52 -1.41 159.52 -1.49 L 159.52 -1.49 L 159.67 -12.92 Q 159.67 -31.74 160.02 -41.38 L 160.02 -41.38 L 160.08 -43.81 Q 160.08 -44.07 180.27 -44.28 L 180.27 -44.28 Q 180.45 -44.16 180.8 -42.99 L 180.8 -42.99 L 180.8 -43.08 L 180.98 -42.49 Q 183.14 -36.28 186.75 -26.93 L 186.75 -26.93 L 186.75 -26.96 Q 189.36 -20.19 189.42 -20.02 L 189.42 -20.02 L 190.41 -20.07 Q 190.41 -24.15 190.47 -32.22 Q 190.53 -40.29 190.53 -43.96 L 190.53 -43.96 Q 190.53 -44.19 194.81 -44.19 L 194.81 -44.19 Q 196.27 -44.19 198.87 -44.12 Q 201.46 -44.05 202.16 -44.05 L 202.16 -44.05 L 204.33 -44.05 Q 204.54 -34.35 204.54 -20.51 L 204.54 -20.51 Q 204.54 -20.19 204.52 -19.55 Q 204.51 -18.9 204.51 -18.55 L 204.51 -18.55 L 204.51 -8.44 L 204.51 -7.71 Q 204.51 -6.92 204.54 -5.1 Q 204.57 -3.28 204.57 -2.55 L 204.57 -2.55 L 204.57 -1.08 Q 204.57 -0.79 204.58 -0.32 Q 204.6 0.15 204.6 0.29 L 204.6 0.29 Q 204.42 0.53 203.16 0.53 L 203.16 0.53 L 202.4 0.53 Q 200.73 0.53 197.68 0.59 Q 194.63 0.64 193.2 0.64 L 193.2 0.64 Q 187.34 0.64 184.46 0.62 L 184.46 0.62 Q 184.02 0.15 181.27 -7.91 L 181.27 -7.91 L 175.67 -22.77 L 174.62 -22.62 Q 174.62 -22.18 174.6 -21.14 Q 174.59 -20.1 174.59 -19.63 L 174.59 -19.63 L 174.59 -11.69 Q 174.59 -10.32 174.65 -7.65 Q 174.7 -4.98 174.7 -3.75 L 174.7 -3.75 L 174.7 -0.47 Q 174.7 0 174.69 0.19 Q 174.68 0.38 174.54 0.63 Q 174.41 0.88 174.12 0.91 L 174.12 0.91 Q 171.22 0.82 168.58 0.82 L 168.58 0.82 L 167.67 0.82 Q 167 0.82 165.42 0.88 Q 163.83 0.94 163.25 0.94 L 163.25 0.94 L 162.66 0.94 Q 162.37 0.94 161.63 0.97 Q 160.9 1 160.55 1 L 160.55 1 L 160.46 0.94 Q 159.5 0.03 159.5 -0.38 Z M 250.26 0.67 L 250.26 0.67 Q 250.26 0.64 250.38 0.18 L 250.38 0.18 L 250.38 0 L 250.38 -0.06 Q 250.41 -0.09 250.41 -0.12 L 250.41 -0.12 Q 250.26 -2.23 250.26 -5.25 L 250.26 -5.25 Q 250.32 -11.55 250.34 -22.93 Q 250.35 -34.32 250.38 -37.98 L 250.38 -37.98 Q 250.38 -38.24 250.37 -38.76 Q 250.35 -39.27 250.35 -39.5 L 250.35 -39.5 L 250.35 -40.97 Q 250.35 -41.41 250.32 -42.33 Q 250.29 -43.25 250.29 -43.72 L 250.29 -43.72 Q 250.29 -44.02 250.62 -44.37 L 250.62 -44.37 L 254.63 -44.37 Q 254.95 -44.37 255.73 -44.37 Q 256.51 -44.37 256.98 -44.37 L 256.98 -44.37 Q 265.24 -44.37 268.8 -44.13 Q 272.36 -43.9 273.91 -43.9 L 273.91 -43.9 Q 274.76 -38.86 276.43 -30.54 L 276.43 -30.54 L 278.51 -20.04 L 279.54 -20.04 L 283.26 -39.06 L 283.29 -39.21 Q 283.32 -39.36 283.32 -39.5 L 283.32 -39.5 L 283.41 -39.97 Q 283.5 -40.44 283.66 -41.53 Q 283.82 -42.61 283.95 -43.3 Q 284.08 -43.99 284.2 -44.13 L 284.2 -44.13 L 284.32 -44.13 Q 287.63 -44.13 293.93 -44.22 Q 300.23 -44.31 303.39 -44.31 L 303.39 -44.31 Q 303.57 -44.31 303.95 -44.29 Q 304.33 -44.28 304.54 -44.28 L 304.54 -44.28 L 307.82 -44.28 Q 308.08 -44.16 308.11 -43.2 L 308.11 -43.2 L 308.41 -32.12 Q 308.76 -18.34 308.9 -10.67 L 308.9 -10.67 Q 308.9 -4.75 308.73 0.44 L 308.73 0.44 Q 308.64 0.79 307.56 0.85 L 307.56 0.85 L 306.24 0.91 Q 304.66 0.97 303.89 0.97 L 303.89 0.97 L 302.37 0.97 Q 299.53 1 293.99 1 L 293.99 1 Q 293.52 0.59 293.28 -0.81 Q 293.05 -2.2 293.01 -3.44 Q 292.96 -4.69 292.96 -6.86 L 292.96 -6.86 Q 292.96 -8.88 292.99 -11.88 Q 293.02 -14.89 293.02 -16.06 L 293.02 -16.06 L 293.02 -18.43 Q 293.02 -21.57 292.99 -23.06 L 292.99 -23.06 L 291.88 -23.27 Q 290.91 -19.72 288.16 -7.47 L 288.16 -7.47 L 287.89 -6.3 Q 287.69 -5.39 287.2 -3.06 Q 286.72 -0.73 286.43 0.47 L 286.43 0.47 Q 286.08 0.88 283.32 0.88 L 283.32 0.88 L 282.94 0.88 Q 282.38 0.88 281.28 0.84 Q 280.19 0.79 279.66 0.79 L 279.66 0.79 Q 279.36 0.79 278.75 0.81 Q 278.13 0.82 277.87 0.82 L 277.87 0.82 L 276.49 0.82 Q 276.14 0.82 275.36 0.84 Q 274.59 0.85 274.18 0.85 L 274.18 0.85 Q 274.09 0.85 273.87 0.85 Q 273.65 0.85 273.53 0.85 Q 273.42 0.85 273.23 0.85 Q 273.03 0.85 272.92 0.84 Q 272.8 0.82 272.64 0.79 Q 272.48 0.76 272.38 0.72 Q 272.27 0.67 272.16 0.6 Q 272.04 0.53 271.97 0.44 Q 271.89 0.35 271.86 0.23 L 271.86 0.23 L 271.89 0.26 L 269.23 -11.37 Q 269.11 -11.81 268.84 -12.75 Q 268.58 -13.69 268.42 -14.4 Q 268.26 -15.12 268.23 -15.77 L 268.23 -15.77 L 266.03 -25.26 L 264.95 -25.2 Q 264.6 -16.91 264.6 -10.14 L 264.6 -10.14 Q 264.6 -2.49 264.62 0.53 L 264.62 0.53 Q 264.62 0.59 264.6 0.59 L 264.6 0.59 L 262.46 0.59 Q 262.34 0.59 262.1 0.57 Q 261.87 0.56 261.72 0.56 L 261.72 0.56 Q 259.96 0.56 256.51 0.6 Q 253.05 0.64 251.32 0.64 L 251.32 0.64 Q 250.32 0.64 250.26 0.67 Z M 318.76 -43.99 L 318.76 -43.99 Q 318.76 -44.13 319.69 -44.13 L 319.69 -44.13 L 327.23 -44.13 Q 333.47 -44.13 336.63 -44.05 L 336.63 -44.05 Q 337.13 -43.96 338.63 -39.43 Q 340.12 -34.9 341.53 -29.95 L 341.53 -29.95 L 342.85 -25.29 Q 343.87 -28.02 344.97 -31.21 Q 346.07 -34.4 347.49 -38.81 Q 348.91 -43.22 349.15 -43.99 L 349.15 -43.99 Q 349.18 -44.22 353.48 -44.22 L 353.48 -44.22 L 357.23 -44.22 Q 358.58 -44.22 359.49 -44.16 L 359.49 -44.16 L 364.56 -44.16 Q 364.74 -44.16 365.06 -44.18 Q 365.38 -44.19 365.53 -44.19 L 365.53 -44.19 Q 365.82 -44.05 365.97 -43.46 L 365.97 -43.46 L 365.09 -41.73 L 365.09 -41.76 L 363.18 -38.1 Q 358.85 -30.1 357.62 -27.43 L 357.62 -27.43 L 357.62 -27.46 L 356.62 -25.55 Q 355.01 -22.45 351.14 -14.59 L 351.14 -14.59 Q 351.08 -13.6 351.08 -11.6 L 351.08 -11.6 L 351.08 0.5 Q 350.93 0.97 350.49 0.97 L 350.49 0.97 Q 347.59 0.97 342.07 1.03 Q 336.54 1.08 333.7 1.08 L 333.7 1.08 Q 333.06 0.26 333.06 -0.79 L 333.06 -0.79 Q 333.06 -1.41 333.09 -2.64 Q 333.12 -3.87 333.12 -4.45 L 333.12 -4.45 L 333.12 -5.3 Q 333.12 -5.48 333.13 -5.76 Q 333.15 -6.04 333.15 -6.18 L 333.15 -6.18 L 333.17 -8.32 Q 333.17 -10.75 332.79 -13 Q 332.41 -15.24 331.55 -17.61 Q 330.68 -19.99 330.02 -21.45 Q 329.37 -22.92 328.08 -25.58 L 328.08 -25.58 L 323.71 -34.32 Q 323.53 -34.64 322.71 -36.24 Q 321.89 -37.83 321.28 -38.95 L 321.28 -38.95 L 321.1 -39.27 L 321.1 -39.24 Q 318.76 -42.81 318.76 -43.99 Z M 406.36 -3.58 L 406.36 -3.58 Q 406.36 -4.75 406.45 -6.96 Q 406.54 -9.17 406.54 -10.05 L 406.54 -10.05 Q 406.54 -14.07 406.6 -18.61 Q 406.65 -23.15 406.73 -28.37 Q 406.8 -33.58 406.83 -36.31 L 406.83 -36.31 L 406.83 -37.72 Q 406.86 -38.16 406.86 -39.72 Q 406.86 -41.29 406.93 -42.51 Q 407.01 -43.72 407.18 -44.1 L 407.18 -44.1 L 407.33 -44.1 Q 409.26 -44.05 410.17 -44.05 L 410.17 -44.05 L 413.45 -44.05 Q 414.07 -44.05 415.3 -44.07 Q 416.53 -44.1 417 -44.1 L 417 -44.1 L 418.11 -44.1 Q 420.84 -44.1 422.17 -43.81 Q 423.5 -43.52 423.91 -42.95 Q 424.33 -42.38 424.33 -41.17 L 424.33 -41.17 Q 424.33 -40.7 424.28 -39.49 Q 424.24 -38.27 424.24 -37.51 L 424.24 -37.51 L 424.24 -36.13 Q 424.24 -35.34 424.15 -33.38 Q 424.06 -31.41 424.06 -30.33 L 424.06 -30.33 Q 424.06 -29.69 424.15 -28.63 L 424.15 -28.63 L 425.97 -28.63 Q 426.08 -28.63 426.32 -28.62 Q 426.55 -28.6 426.7 -28.6 L 426.7 -28.6 L 429.04 -28.6 Q 430.33 -28.6 431.68 -28.81 L 431.68 -28.81 L 431.68 -35.75 Q 431.68 -36.1 431.7 -36.82 Q 431.71 -37.54 431.71 -37.92 L 431.71 -37.92 L 431.71 -39.94 Q 431.71 -40.03 431.7 -40.18 Q 431.68 -40.32 431.68 -40.41 L 431.68 -40.41 L 431.68 -41.91 Q 431.68 -43.64 431.84 -44.02 Q 432 -44.4 432.68 -44.4 L 432.68 -44.4 Q 432.79 -44.4 432.97 -44.38 Q 433.15 -44.37 433.26 -44.37 L 433.26 -44.37 L 435.17 -44.37 Q 435.78 -44.37 436.28 -44.4 L 436.28 -44.4 L 436.25 -44.4 Q 439.27 -44.54 441.5 -44.54 L 441.5 -44.54 Q 449.06 -44.54 449.06 -43.34 L 449.06 -43.34 L 449.06 -41.26 Q 449.06 -41.14 449.07 -40.9 Q 449.09 -40.65 449.09 -40.56 L 449.09 -40.56 Q 449.09 -40.32 449.07 -39.8 Q 449.06 -39.27 449.06 -39.03 L 449.06 -39.03 L 449.06 -34.49 Q 449.06 -31.24 449.13 -25.04 Q 449.21 -18.84 449.21 -15.8 L 449.21 -15.8 Q 449.21 -15.33 449.15 -14.56 L 449.15 -14.56 L 449.15 -13.16 Q 449.15 -12.22 449.21 -10.7 L 449.21 -10.7 L 449.21 -10.02 Q 449.21 -9.49 449.18 -9.26 L 449.18 -9.26 Q 449.18 -5.51 449.23 0.41 L 449.23 0.41 Q 448.82 0.97 444.11 0.97 L 444.11 0.97 Q 436.63 0.97 431.83 0.79 L 431.83 0.79 Q 431.77 0.73 431.27 0.06 L 431.27 0.06 L 431.27 -4.63 Q 431.27 -6.39 431.3 -9.25 Q 431.33 -12.1 431.33 -13.63 L 431.33 -13.63 Q 431.33 -14.95 431.04 -15.18 Q 430.74 -15.41 429.25 -15.41 L 429.25 -15.41 L 428.84 -15.41 Q 426.05 -15.41 424.44 -15.15 L 424.44 -15.15 L 424.44 -11.05 Q 424.44 -8.79 424.41 -5.19 Q 424.38 -1.58 424.38 0.29 L 424.38 0.29 Q 423.94 0.76 417.03 0.76 L 417.03 0.76 L 415.62 0.76 Q 409.58 0.76 406.86 0.59 L 406.86 0.59 L 406.92 0.59 Q 406.36 0.41 406.36 -3.58 Z M 463.75 0.59 L 463.75 0.59 Q 463.75 0.5 463.76 0.35 Q 463.78 0.21 463.78 0.09 L 463.78 0.09 L 463.86 -3.14 Q 463.86 -3.69 463.88 -5.66 Q 463.89 -7.62 463.95 -8.88 Q 464.01 -10.14 464.19 -11.4 L 464.19 -11.4 Q 464.19 -24.15 464.54 -37.1 L 464.54 -37.1 Q 464.45 -38.95 464.45 -40.82 L 464.45 -40.82 L 464.45 -41.79 Q 464.33 -42.7 464.33 -43.9 L 464.33 -43.9 Q 464.33 -44.1 464.48 -44.31 L 464.48 -44.31 Q 470.75 -43.93 477.37 -43.93 L 477.37 -43.93 Q 480.19 -43.93 481.94 -44.1 L 481.94 -44.1 Q 482 -44.02 482.03 -43.61 L 482.03 -43.61 L 481.83 -43.61 L 481.83 -34.7 L 481.83 -33 Q 481.83 -28.89 481.93 -21.01 Q 482.03 -13.13 482.03 -9.14 L 482.03 -9.14 Q 482.03 -8.88 482.12 -8.7 L 482.12 -8.7 L 482.12 -8.64 Q 482.21 -8.47 482.21 -8.26 L 482.21 -8.26 Q 482.21 -7.44 482.27 -5.89 Q 482.33 -4.34 482.33 -3.96 L 482.33 -3.96 L 482.44 0.26 Q 482.3 0.59 481.92 0.76 L 481.92 0.76 L 480.92 0.76 Q 478.02 0.76 472.57 0.89 Q 467.12 1.03 464.51 1.03 L 464.51 1.03 Q 464.22 0.88 463.75 0.59 Z M 497.83 0.35 L 497.75 0.26 L 497.75 -4.19 Q 497.75 -5.04 497.78 -6.54 Q 497.8 -8.03 497.8 -8.79 L 497.8 -8.79 L 497.8 -25.35 L 497.89 -39.85 Q 497.89 -40.24 497.85 -41.13 Q 497.8 -42.02 497.8 -42.38 L 497.8 -42.38 Q 497.8 -43.99 498.13 -44.37 L 498.13 -44.37 Q 498.92 -44.4 500.21 -44.4 L 500.21 -44.4 Q 503.34 -44.4 504.95 -44.37 L 504.95 -44.37 L 509.09 -44.31 Q 510.23 -44.4 511.43 -44.4 L 511.43 -44.4 Q 514.57 -44.4 515.15 -43.81 L 515.15 -43.81 Q 515.01 -36.66 515.01 -26.81 L 515.01 -26.81 L 516.03 -26.64 Q 516.47 -27.78 517.63 -30.07 Q 518.79 -32.35 518.96 -32.73 L 518.96 -32.73 L 519.29 -33.44 Q 519.4 -33.7 520.35 -35.71 Q 521.31 -37.72 521.81 -38.95 L 521.81 -38.95 Q 523.3 -42.73 524.44 -44.16 L 524.44 -44.16 Q 526.49 -44.19 530.3 -44.19 L 530.3 -44.19 Q 532.38 -44.19 536.31 -44.09 Q 540.24 -43.99 542.2 -43.99 L 542.2 -43.99 Q 533.85 -28.89 530.33 -23.09 L 530.33 -23.09 L 531.01 -22.01 Q 531.62 -21.25 532.27 -20.25 L 532.27 -20.25 Q 533.88 -17.61 537.09 -12.03 Q 540.3 -6.45 542.11 -3.49 L 542.11 -3.49 L 542.82 -2.34 Q 544.11 -0.21 544.11 0.23 L 544.11 0.23 Q 544.11 0.38 543.93 0.62 L 543.93 0.62 L 543.75 0.62 Q 542.11 0.56 541.32 0.56 L 541.32 0.56 Q 540.09 0.56 538.45 0.62 L 538.45 0.62 L 525.29 0.62 Q 520.78 -7.82 515.92 -17.7 L 515.92 -17.7 Q 515.68 -15.36 515.21 -6.62 L 515.21 -6.62 L 515.21 -6.24 Q 515.21 -5.57 515.24 -3.03 Q 515.27 -0.5 515.27 0.41 L 515.27 0.41 Q 514.92 0.94 512.19 0.94 L 512.19 0.94 Q 512.11 0.94 511.9 0.92 Q 511.7 0.91 511.58 0.91 L 511.58 0.91 L 510 0.91 Q 508.5 0.91 505.6 0.94 Q 502.7 0.97 501.7 0.97 L 501.7 0.97 L 499.01 0.97 Q 498.45 0.97 498.24 0.84 Q 498.04 0.7 497.83 0.35 L 497.83 0.35 Z M 554.9 0.32 L 554.9 0.32 L 554.9 -0.7 Q 554.9 -6.21 554.98 -16.75 Q 555.07 -27.28 555.07 -32.03 L 555.07 -32.03 L 555.1 -36.28 Q 555.1 -37.22 555.06 -39.09 Q 555.01 -40.97 554.98 -42.39 Q 554.96 -43.81 554.96 -43.99 L 554.96 -43.99 Q 554.98 -43.99 555.16 -43.9 L 555.16 -43.9 Q 577.43 -44.28 588.71 -44.31 L 588.71 -44.31 Q 588.83 -44.25 588.89 -44.13 L 588.89 -44.13 L 588.89 -35.87 Q 588.89 -35.66 588.88 -34.98 Q 588.86 -34.29 588.83 -33.91 L 588.83 -33.91 Q 588.69 -33.44 587.1 -33.44 L 587.1 -33.44 L 586.9 -33.44 Q 579.81 -33.44 572.13 -33.67 L 572.13 -33.67 Q 572.13 -33.41 572.05 -32.73 Q 571.98 -32.06 571.95 -31.77 L 571.95 -31.77 L 571.81 -30.65 Q 571.66 -29.54 571.6 -26.78 L 571.6 -26.78 L 580.68 -26.99 Q 583.03 -27.05 584.08 -27.05 L 584.08 -27.05 L 584.55 -27.05 Q 586.34 -27.05 586.9 -26.95 Q 587.45 -26.84 587.45 -26.35 L 587.45 -26.35 Q 587.45 -26.29 587.44 -26.21 Q 587.43 -26.14 587.43 -26.11 L 587.43 -26.11 L 587.43 -25.41 Q 587.43 -23.85 587.5 -21.54 Q 587.57 -19.22 587.57 -17.88 L 587.57 -17.88 L 587.54 -17.85 L 587.54 -17.88 Q 578.63 -17.44 573.3 -17.44 L 573.3 -17.44 L 571.92 -17.44 L 571.92 -10.34 Q 574.68 -10.34 579.92 -10.59 Q 585.17 -10.84 587.84 -10.84 L 587.84 -10.84 Q 589.15 -10.84 589.51 -10.46 L 589.51 -10.46 Q 589.48 -9.7 589.48 -8.29 L 589.48 -8.29 Q 589.48 -4.07 589.62 -2.81 L 589.62 -2.81 L 589.62 -2.84 Q 589.68 -1.26 589.68 -0.32 L 589.68 -0.32 Q 589.68 0.41 589.04 0.53 L 589.04 0.53 Q 587.4 0.53 584.17 0.48 Q 580.95 0.44 579.31 0.44 L 579.31 0.44 Q 576.44 0.44 567.88 0.64 L 567.88 0.64 L 563.07 0.76 Q 562.22 0.79 560.68 0.84 Q 559.15 0.88 557.89 0.91 Q 556.63 0.94 555.51 0.94 L 555.51 0.94 L 555.42 0.88 L 555.45 0.88 Q 555.39 0.82 555.29 0.72 Q 555.19 0.62 555.07 0.5 Q 554.96 0.38 554.9 0.32 Z M 600.59 -12.13 L 600.59 -12.13 Q 600.68 -12.1 600.85 -12.1 L 600.85 -12.1 Q 603.52 -12.1 608.63 -12.23 Q 613.75 -12.37 616.36 -12.37 L 616.36 -12.37 Q 616.74 -12.37 617 -11.96 Q 617.26 -11.55 617.5 -10.96 Q 617.73 -10.37 618.11 -9.79 Q 618.49 -9.2 619.36 -8.79 Q 620.22 -8.38 621.48 -8.38 L 621.48 -8.38 Q 623.21 -8.38 624.5 -9.36 Q 625.79 -10.34 625.79 -12.07 L 625.79 -12.07 Q 625.79 -12.72 625.54 -13.26 Q 625.29 -13.8 624.75 -14.2 Q 624.21 -14.59 623.73 -14.87 Q 623.24 -15.15 622.36 -15.4 Q 621.48 -15.65 620.99 -15.78 Q 620.49 -15.91 619.49 -16.12 L 619.49 -16.12 L 619.52 -16.12 Q 619.4 -16.15 619.04 -16.21 Q 618.67 -16.26 618.49 -16.32 L 618.49 -16.32 L 618.55 -16.32 L 616.88 -16.76 Q 615.27 -17.06 614.19 -17.41 L 614.19 -17.41 Q 607.18 -19.28 604.06 -22.13 Q 600.94 -24.97 600.94 -29.77 L 600.94 -29.77 Q 600.94 -33.26 602.23 -36.05 Q 603.52 -38.83 605.6 -40.59 Q 607.68 -42.35 610.49 -43.52 Q 613.31 -44.69 616.19 -45.17 Q 619.08 -45.66 622.19 -45.66 L 622.19 -45.66 Q 630.6 -45.66 635.4 -42.61 L 635.4 -42.61 L 635.37 -42.61 Q 638.45 -40.38 639.59 -38.23 Q 640.74 -36.07 641.03 -32.91 L 641.03 -32.91 L 640.27 -32.15 Q 632.56 -31.85 626.61 -31.85 L 626.61 -31.85 Q 625.62 -31.85 625.12 -32.16 Q 624.62 -32.47 624.47 -32.91 Q 624.33 -33.35 624.15 -33.79 Q 623.97 -34.23 623.34 -34.54 Q 622.71 -34.84 621.51 -34.84 L 621.51 -34.84 L 621.4 -34.84 Q 620.81 -34.84 619.94 -34.65 Q 619.08 -34.46 618.14 -33.85 Q 617.2 -33.23 617.18 -32.29 L 617.18 -32.29 Q 617.18 -31.71 617.51 -31.21 Q 617.85 -30.71 618.23 -30.42 Q 618.61 -30.13 619.4 -29.82 Q 620.19 -29.51 620.59 -29.41 Q 620.99 -29.31 621.84 -29.07 L 621.84 -29.07 L 622.86 -28.81 Q 623.48 -28.63 626.45 -27.93 Q 629.43 -27.22 631.42 -26.58 L 631.42 -26.58 L 631.42 -26.61 Q 633.32 -25.96 634.82 -25.25 Q 636.31 -24.53 637.75 -23.46 Q 639.18 -22.39 640.12 -21.08 Q 641.06 -19.78 641.63 -17.98 Q 642.2 -16.18 642.2 -14.01 L 642.2 -14.01 Q 642.2 -11.43 641.47 -9.26 Q 640.74 -7.09 639.54 -5.57 Q 638.33 -4.04 636.55 -2.83 Q 634.76 -1.61 632.96 -0.85 Q 631.15 -0.09 628.85 0.48 Q 626.55 1.05 624.69 1.35 Q 622.83 1.64 620.6 1.85 L 620.6 1.85 Q 618.03 1.85 615.4 1.48 Q 612.78 1.11 610.24 0.35 Q 607.71 -0.41 605.73 -1.77 Q 603.75 -3.14 602.87 -4.89 L 602.87 -4.89 Q 601.67 -6.62 601.26 -8.07 Q 600.85 -9.52 600.59 -12.13 Z" stroke-linecap="round" />
</g>
</g>
</g>
<g transform="matrix(1.9211538461538462 0 0 1.9211538461538462 643.256507776654 897.6590518554672)" id="tagline-c7b045f4-c8bc-495d-8e4a-0ace0c2e3495-logo-path-group"  >
<g style=""  paint-order="stroke"   >
		<g transform="matrix(1 0 0 1 -5.684342e-14 0)" id="tagline-c7b045f4-c8bc-495d-8e4a-0ace0c2e3495-logo-path-0"  >
<path style="stroke: none; stroke-width: 0; stroke-dasharray: none; stroke-linecap: butt; stroke-dashoffset: 0; stroke-linejoin: miter; stroke-miterlimit: 4; fill: rgb(149,134,105); fill-rule: nonzero; opacity: 1;"  paint-order="stroke"  transform=" translate(-292.12, 9.73)" d="M 1.81 -3.17 L 1.81 -3.17 Q 1.81 -3.64 1.87 -4.66 Q 1.93 -5.68 2.04 -7.06 Q 2.14 -8.45 2.26 -10.1 Q 2.39 -11.74 2.53 -13.45 L 2.53 -13.45 Q 2.7 -15.56 2.83 -17.07 Q 2.96 -18.59 3.03 -19.68 Q 3.1 -20.77 3.15 -21.5 Q 3.21 -22.23 3.22 -22.78 Q 3.24 -23.33 3.26 -23.8 Q 3.28 -24.27 3.28 -24.79 L 3.28 -24.79 Q 3.28 -25.07 3.46 -25.2 Q 3.64 -25.33 3.82 -25.33 L 3.82 -25.33 Q 4.74 -25.33 5.84 -25.38 Q 6.95 -25.44 8.06 -25.51 Q 9.16 -25.57 10.2 -25.64 Q 11.24 -25.7 12.02 -25.7 L 12.02 -25.7 Q 14.3 -25.7 15.95 -25.14 Q 17.6 -24.58 18.61 -23.53 Q 19.62 -22.47 20.1 -20.98 Q 20.59 -19.48 20.59 -17.56 L 20.59 -17.56 Q 20.59 -15.45 20.03 -13.51 Q 19.48 -11.57 18.3 -10.07 Q 17.13 -8.57 15.27 -7.67 Q 13.41 -6.78 10.85 -6.78 L 10.85 -6.78 Q 9.32 -6.78 8.24 -7.11 L 8.24 -7.11 L 7.74 -0.54 Q 7.7 -0.26 7.6 -0.13 Q 7.49 0 7.18 0 L 7.18 0 L 5.52 0 Q 3.48 0 2.65 -0.8 Q 1.81 -1.6 1.81 -3.17 Z M 8.61 -12.02 L 8.61 -12.02 Q 9.15 -11.88 9.66 -11.83 Q 10.17 -11.78 10.59 -11.78 L 10.59 -11.78 Q 11.85 -11.78 12.61 -12.36 Q 13.38 -12.94 13.81 -13.81 Q 14.23 -14.67 14.38 -15.59 Q 14.53 -16.52 14.53 -17.2 L 14.53 -17.2 Q 14.53 -18.73 13.82 -19.53 Q 13.12 -20.33 11.31 -20.33 L 11.31 -20.33 Q 10.84 -20.33 10.27 -20.28 Q 9.7 -20.23 9.06 -20.16 L 9.06 -20.16 Q 8.99 -18.66 8.89 -16.52 Q 8.78 -14.37 8.61 -12.02 Z M 35.74 -8.57 L 35.74 -8.57 Q 35.74 -10.71 36.26 -12.76 Q 36.79 -14.81 38.03 -16.41 Q 39.28 -18.01 41.33 -19 Q 43.39 -19.98 46.45 -19.98 L 46.45 -19.98 Q 50.95 -19.98 52.89 -17.79 Q 54.83 -15.59 54.83 -11.64 L 54.83 -11.64 Q 54.83 -10.54 54.68 -9.2 Q 54.52 -7.86 54.07 -6.53 Q 53.61 -5.21 52.85 -3.96 Q 52.08 -2.72 50.91 -1.75 Q 49.73 -0.78 48.07 -0.22 Q 46.42 0.35 44.17 0.35 L 44.17 0.35 Q 41.72 0.35 40.09 -0.34 Q 38.46 -1.03 37.49 -2.25 Q 36.52 -3.47 36.13 -5.09 Q 35.74 -6.71 35.74 -8.57 Z M 41.82 -8.95 L 41.82 -8.95 Q 41.82 -6.6 42.57 -5.5 Q 43.32 -4.39 44.69 -4.39 L 44.69 -4.39 Q 45.95 -4.39 46.75 -5.17 Q 47.55 -5.96 48 -7.06 Q 48.44 -8.17 48.61 -9.38 Q 48.77 -10.59 48.77 -11.41 L 48.77 -11.41 Q 48.77 -13.19 48.11 -14.21 Q 47.45 -15.23 45.84 -15.23 L 45.84 -15.23 Q 44.49 -15.23 43.68 -14.54 Q 42.88 -13.85 42.47 -12.87 Q 42.06 -11.88 41.94 -10.79 Q 41.82 -9.7 41.82 -8.95 Z M 70.1 -18.8 L 70.1 -18.8 Q 70.1 -19.11 70.43 -19.36 Q 70.75 -19.62 71.24 -19.62 L 71.24 -19.62 Q 72.77 -19.62 73.88 -19.49 Q 74.98 -19.37 75.71 -19.05 Q 76.45 -18.73 76.84 -18.16 Q 77.23 -17.6 77.35 -16.66 L 77.35 -16.66 Q 77.39 -16.15 77.49 -14.63 Q 77.6 -13.1 77.72 -11.15 Q 77.84 -9.2 77.97 -7.2 Q 78.1 -5.21 78.21 -3.82 L 78.21 -3.82 Q 78.64 -6.03 78.9 -7.35 Q 79.16 -8.68 79.34 -9.56 Q 79.51 -10.45 79.64 -11.13 Q 79.77 -11.81 79.95 -12.74 Q 80.12 -13.66 80.36 -15.05 Q 80.59 -16.45 81.01 -18.76 L 81.01 -18.76 Q 81.15 -19.62 82.91 -19.62 L 82.91 -19.62 Q 84.01 -19.62 84.97 -19.55 Q 85.94 -19.48 86.69 -19.21 Q 87.44 -18.94 87.98 -18.42 Q 88.52 -17.91 88.73 -17.02 L 88.73 -17.02 Q 88.8 -16.78 88.85 -16.52 Q 88.9 -16.27 88.97 -15.81 Q 89.04 -15.35 89.13 -14.52 Q 89.22 -13.69 89.35 -12.31 Q 89.48 -10.92 89.66 -8.85 Q 89.84 -6.78 90.12 -3.82 L 90.12 -3.82 Q 90.59 -6.43 90.92 -8.37 Q 91.25 -10.31 91.49 -11.74 Q 91.72 -13.17 91.88 -14.2 Q 92.04 -15.23 92.17 -16.04 Q 92.3 -16.85 92.39 -17.47 Q 92.47 -18.08 92.58 -18.76 L 92.58 -18.76 Q 92.65 -19.16 92.95 -19.37 Q 93.26 -19.58 94.11 -19.58 L 94.11 -19.58 Q 94.58 -19.58 95.42 -19.53 Q 96.25 -19.48 97.07 -19.27 Q 97.89 -19.06 98.48 -18.61 Q 99.08 -18.15 99.08 -17.37 L 99.08 -17.37 Q 99.08 -16.79 98.75 -15.68 Q 98.43 -14.56 97.94 -13.1 Q 97.44 -11.64 96.79 -9.97 Q 96.15 -8.31 95.49 -6.69 Q 94.83 -5.07 94.22 -3.61 Q 93.61 -2.14 93.19 -1.06 L 93.19 -1.06 Q 92.91 -0.42 92.64 -0.21 Q 92.37 0 91.69 0 L 91.69 0 L 89.58 0 Q 88.59 0 87.94 -0.25 Q 87.3 -0.51 86.91 -0.93 Q 86.52 -1.36 86.3 -1.91 Q 86.08 -2.46 85.98 -3.1 L 85.98 -3.1 Q 85.63 -4.91 85.23 -7.99 Q 84.84 -11.06 84.51 -15.23 L 84.51 -15.23 Q 84.34 -14.44 84.1 -13.13 Q 83.87 -11.81 83.61 -10.28 Q 83.34 -8.75 83.06 -7.13 Q 82.77 -5.52 82.52 -4.16 Q 82.26 -2.79 82.06 -1.8 Q 81.85 -0.82 81.69 -0.54 L 81.69 -0.54 Q 81.52 -0.19 81.25 -0.1 Q 80.98 0 80.49 0 L 80.49 0 L 77.98 0 Q 77.06 0 76.39 -0.27 Q 75.73 -0.54 75.25 -0.97 Q 74.77 -1.39 74.47 -1.94 Q 74.16 -2.49 74.02 -3.1 L 74.02 -3.1 Q 72.06 -10.73 71.08 -14.63 Q 70.1 -18.52 70.1 -18.8 Z M 114.01 -8 L 114.01 -8 Q 114.01 -8.89 114.16 -10.13 Q 114.31 -11.38 114.72 -12.7 Q 115.13 -14.02 115.86 -15.32 Q 116.59 -16.62 117.77 -17.66 Q 118.95 -18.69 120.62 -19.34 Q 122.29 -19.98 124.62 -19.98 L 124.62 -19.98 Q 126.47 -19.98 127.76 -19.56 Q 129.05 -19.13 129.83 -18.4 Q 130.62 -17.67 130.97 -16.7 Q 131.33 -15.73 131.33 -14.63 L 131.33 -14.63 Q 131.33 -13 130.67 -11.85 Q 130.01 -10.7 128.95 -9.93 Q 127.9 -9.16 126.62 -8.74 Q 125.34 -8.31 124.08 -8.08 Q 122.83 -7.86 121.78 -7.8 Q 120.72 -7.74 120.16 -7.74 L 120.16 -7.74 Q 120.16 -7.06 120.36 -6.4 Q 120.55 -5.75 120.94 -5.24 Q 121.33 -4.74 121.98 -4.43 Q 122.62 -4.11 123.54 -4.11 L 123.54 -4.11 Q 124.47 -4.11 124.99 -4.41 Q 125.51 -4.7 125.84 -5.08 Q 126.16 -5.45 126.38 -5.76 Q 126.61 -6.06 127.01 -6.06 L 127.01 -6.06 Q 127.19 -6.06 127.63 -5.98 Q 128.07 -5.89 128.54 -5.6 Q 129.02 -5.31 129.36 -4.82 Q 129.71 -4.32 129.71 -3.54 L 129.71 -3.54 Q 129.71 -2.51 129.08 -1.75 Q 128.44 -0.99 127.42 -0.53 Q 126.4 -0.07 125.16 0.14 Q 123.91 0.35 122.73 0.35 L 122.73 0.35 Q 121.16 0.35 119.61 -0.04 Q 118.06 -0.44 116.82 -1.39 Q 115.58 -2.35 114.8 -3.95 Q 114.01 -5.56 114.01 -8 Z M 120.27 -10.59 L 120.27 -10.59 Q 122.48 -10.63 123.85 -11.34 Q 125.22 -12.06 125.22 -13.38 L 125.22 -13.38 Q 125.22 -14.09 124.77 -14.66 Q 124.33 -15.23 123.41 -15.23 L 123.41 -15.23 Q 122.62 -15.23 122.06 -14.78 Q 121.51 -14.34 121.13 -13.66 Q 120.76 -12.98 120.57 -12.16 Q 120.37 -11.34 120.27 -10.59 Z M 147.23 -3.4 L 147.23 -3.4 Q 147.23 -3.94 147.28 -4.91 Q 147.33 -5.89 147.48 -7.62 Q 147.63 -9.36 147.82 -12.01 Q 148.01 -14.67 148.29 -18.59 L 148.29 -18.59 Q 148.36 -19.62 149.04 -19.62 L 149.04 -19.62 L 150.43 -19.62 Q 151.43 -19.62 152.12 -19.41 Q 152.8 -19.2 153.23 -18.82 Q 153.66 -18.45 153.85 -17.94 Q 154.04 -17.44 154.11 -16.92 L 154.11 -16.92 Q 154.55 -17.74 155.13 -18.32 Q 155.71 -18.9 156.36 -19.28 Q 157 -19.65 157.68 -19.82 Q 158.36 -19.98 158.94 -19.98 L 158.94 -19.98 Q 159.62 -19.98 160.31 -19.73 Q 161.01 -19.48 161.58 -18.98 Q 162.14 -18.48 162.48 -17.7 Q 162.82 -16.92 162.82 -15.84 L 162.82 -15.84 Q 162.82 -14.88 162.53 -14.02 Q 162.25 -13.17 161.72 -12.51 Q 161.18 -11.85 160.41 -11.47 Q 159.63 -11.1 158.71 -11.1 L 158.71 -11.1 Q 158.5 -11.1 158.23 -11.12 Q 157.96 -11.13 157.72 -11.18 Q 157.47 -11.24 157.29 -11.32 Q 157.11 -11.41 157.11 -11.57 L 157.11 -11.57 Q 157.11 -12.04 157.14 -12.42 Q 157.18 -12.8 157.18 -13.24 L 157.18 -13.24 Q 157.18 -14.02 156.97 -14.52 Q 156.76 -15.02 156.11 -15.02 L 156.11 -15.02 Q 155.12 -15.02 154.46 -13.72 Q 153.8 -12.42 153.62 -9.81 L 153.62 -9.81 Q 153.55 -8.66 153.42 -7.22 Q 153.29 -5.78 153.19 -4.44 Q 153.08 -3.1 153.01 -2.06 Q 152.94 -1.03 152.94 -0.71 L 152.94 -0.71 Q 152.94 -0.37 152.69 -0.18 Q 152.44 0 152.16 0 L 152.16 0 L 150.87 0 Q 149.77 0 149.08 -0.24 Q 148.38 -0.47 147.96 -0.9 Q 147.54 -1.32 147.39 -1.94 Q 147.23 -2.56 147.23 -3.4 Z M 177.53 -8 L 177.53 -8 Q 177.53 -8.89 177.68 -10.13 Q 177.83 -11.38 178.24 -12.7 Q 178.65 -14.02 179.38 -15.32 Q 180.11 -16.62 181.29 -17.66 Q 182.46 -18.69 184.14 -19.34 Q 185.81 -19.98 188.14 -19.98 L 188.14 -19.98 Q 189.99 -19.98 191.28 -19.56 Q 192.57 -19.13 193.35 -18.4 Q 194.14 -17.67 194.49 -16.7 Q 194.85 -15.73 194.85 -14.63 L 194.85 -14.63 Q 194.85 -13 194.19 -11.85 Q 193.53 -10.7 192.47 -9.93 Q 191.42 -9.16 190.14 -8.74 Q 188.86 -8.31 187.6 -8.08 Q 186.35 -7.86 185.29 -7.8 Q 184.24 -7.74 183.68 -7.74 L 183.68 -7.74 Q 183.68 -7.06 183.88 -6.4 Q 184.07 -5.75 184.46 -5.24 Q 184.85 -4.74 185.5 -4.43 Q 186.14 -4.11 187.06 -4.11 L 187.06 -4.11 Q 187.99 -4.11 188.51 -4.41 Q 189.03 -4.7 189.35 -5.08 Q 189.68 -5.45 189.9 -5.76 Q 190.13 -6.06 190.53 -6.06 L 190.53 -6.06 Q 190.7 -6.06 191.15 -5.98 Q 191.59 -5.89 192.06 -5.6 Q 192.53 -5.31 192.88 -4.82 Q 193.23 -4.32 193.23 -3.54 L 193.23 -3.54 Q 193.23 -2.51 192.59 -1.75 Q 191.96 -0.99 190.94 -0.53 Q 189.92 -0.07 188.67 0.14 Q 187.43 0.35 186.24 0.35 L 186.24 0.35 Q 184.68 0.35 183.13 -0.04 Q 181.58 -0.44 180.34 -1.39 Q 179.1 -2.35 178.32 -3.95 Q 177.53 -5.56 177.53 -8 Z M 183.79 -10.59 L 183.79 -10.59 Q 186 -10.63 187.37 -11.34 Q 188.74 -12.06 188.74 -13.38 L 188.74 -13.38 Q 188.74 -14.09 188.29 -14.66 Q 187.85 -15.23 186.92 -15.23 L 186.92 -15.23 Q 186.14 -15.23 185.58 -14.78 Q 185.02 -14.34 184.65 -13.66 Q 184.28 -12.98 184.08 -12.16 Q 183.89 -11.34 183.79 -10.59 Z M 210.31 -8.38 L 210.31 -8.38 Q 210.31 -9.41 210.46 -10.68 Q 210.61 -11.95 210.97 -13.24 Q 211.32 -14.53 211.97 -15.74 Q 212.61 -16.95 213.59 -17.89 Q 214.56 -18.83 215.94 -19.41 Q 217.32 -19.98 219.16 -19.98 L 219.16 -19.98 Q 220.94 -19.98 222.04 -19.36 Q 223.13 -18.73 223.41 -17.2 L 223.41 -17.2 Q 223.48 -18.59 223.55 -19.63 Q 223.62 -20.66 223.67 -21.55 Q 223.73 -22.44 223.81 -23.34 Q 223.88 -24.23 223.95 -25.37 L 223.95 -25.37 Q 223.99 -26.15 224.13 -26.29 L 224.13 -26.29 Q 224.2 -26.36 224.3 -26.39 Q 224.41 -26.41 224.7 -26.41 L 224.7 -26.41 L 226.1 -26.41 Q 227.16 -26.41 227.87 -26.16 Q 228.59 -25.91 229.01 -25.48 Q 229.44 -25.05 229.62 -24.49 Q 229.81 -23.94 229.81 -23.33 L 229.81 -23.33 Q 229.81 -23.33 229.74 -22.44 L 229.74 -22.44 Q 229.65 -21.55 229.55 -20.07 Q 229.44 -18.59 229.3 -16.7 Q 229.16 -14.81 229.01 -12.79 Q 228.87 -10.77 228.73 -8.79 Q 228.59 -6.81 228.45 -5.16 Q 228.31 -3.5 228.21 -2.3 Q 228.12 -1.1 228.08 -0.71 L 228.08 -0.71 Q 228.01 -0.28 227.91 -0.14 Q 227.8 0 227.3 0 L 227.3 0 L 226.03 0 Q 225.28 0 224.62 -0.12 Q 223.95 -0.24 223.47 -0.55 Q 222.98 -0.85 222.72 -1.38 Q 222.45 -1.9 222.45 -2.72 L 222.45 -2.72 Q 221.81 -1.36 220.51 -0.51 Q 219.21 0.35 217.25 0.35 L 217.25 0.35 Q 215.85 0.35 214.58 -0.15 Q 213.31 -0.64 212.37 -1.72 Q 211.43 -2.79 210.87 -4.43 Q 210.31 -6.06 210.31 -8.38 Z M 216.78 -9.39 L 216.78 -9.39 Q 216.78 -8.47 216.9 -7.57 Q 217.02 -6.67 217.34 -5.96 Q 217.66 -5.24 218.22 -4.82 Q 218.78 -4.39 219.63 -4.39 L 219.63 -4.39 Q 221.17 -4.39 222.2 -5.89 Q 223.24 -7.39 223.24 -10.59 L 223.24 -10.59 Q 223.24 -11.48 223.13 -12.33 Q 223.03 -13.17 222.71 -13.81 Q 222.39 -14.44 221.81 -14.83 Q 221.24 -15.23 220.35 -15.23 L 220.35 -15.23 Q 218.54 -15.23 217.66 -13.64 Q 216.78 -12.06 216.78 -9.39 Z M 267.68 -7.67 L 267.68 -7.67 Q 267.68 -8.14 267.77 -9.49 Q 267.86 -10.85 268 -12.63 Q 268.15 -14.41 268.29 -16.43 Q 268.43 -18.45 268.58 -20.25 Q 268.73 -22.06 268.81 -23.44 Q 268.9 -24.83 268.9 -25.37 L 268.9 -25.37 Q 268.9 -26.15 269 -26.28 Q 269.11 -26.41 269.65 -26.41 L 269.65 -26.41 L 271.04 -26.41 Q 272.11 -26.41 272.82 -26.16 Q 273.53 -25.91 273.96 -25.48 Q 274.39 -25.05 274.57 -24.49 Q 274.75 -23.94 274.75 -23.29 L 274.75 -23.29 Q 274.75 -22.68 274.62 -20.94 Q 274.49 -19.2 274.32 -16.85 L 274.32 -16.85 Q 275.24 -18.45 276.43 -19.22 Q 277.61 -19.98 279.53 -19.98 L 279.53 -19.98 Q 282.77 -19.98 284.5 -17.84 Q 286.23 -15.7 286.23 -11.45 L 286.23 -11.45 Q 286.23 -10.35 286.08 -9.02 Q 285.92 -7.7 285.51 -6.4 Q 285.1 -5.1 284.37 -3.88 Q 283.64 -2.65 282.45 -1.72 Q 281.27 -0.78 279.61 -0.22 Q 277.96 0.35 275.71 0.35 L 275.71 0.35 Q 272.96 0.35 271.36 -0.45 Q 269.75 -1.25 268.94 -2.47 Q 268.12 -3.68 267.9 -5.09 Q 267.68 -6.5 267.68 -7.67 Z M 273.57 -8.95 L 273.57 -8.95 Q 273.57 -6.5 274.25 -5.44 Q 274.93 -4.39 276.29 -4.39 L 276.29 -4.39 Q 277.58 -4.39 278.3 -5.19 Q 279.02 -5.99 279.4 -7.1 Q 279.77 -8.21 279.88 -9.35 Q 280 -10.49 280 -11.13 L 280 -11.13 Q 280 -13.14 279.39 -14.18 Q 278.78 -15.23 277.32 -15.23 L 277.32 -15.23 Q 276.03 -15.23 275.29 -14.56 Q 274.56 -13.89 274.17 -12.92 Q 273.78 -11.95 273.67 -10.86 Q 273.57 -9.77 273.57 -8.95 Z M 302.36 2.82 L 302.36 2.82 Q 302.36 2.14 302.65 1.65 Q 302.95 1.15 303.46 0.83 Q 303.96 0.51 304.61 0.34 Q 305.27 0.17 305.98 0.17 L 305.98 0.17 Q 306.33 0.17 306.5 0.53 Q 306.66 0.89 307 1.33 Q 307.34 1.78 308.09 2.13 Q 308.84 2.49 310.34 2.49 L 310.34 2.49 Q 311.66 2.49 312.48 1.86 Q 313.3 1.22 313.74 0.22 Q 314.19 -0.78 314.34 -1.96 Q 314.48 -3.14 314.48 -4.22 L 314.48 -4.22 Q 313.91 -3.22 313.21 -2.6 Q 312.52 -1.97 311.77 -1.63 Q 311.02 -1.29 310.27 -1.18 Q 309.52 -1.06 308.84 -1.06 L 308.84 -1.06 Q 307.52 -1.06 306.44 -1.42 Q 305.35 -1.78 304.56 -2.59 Q 303.77 -3.4 303.34 -4.68 Q 302.92 -5.96 302.92 -7.77 L 302.92 -7.77 Q 302.92 -8.45 302.99 -9.57 Q 303.06 -10.7 303.17 -12.11 Q 303.28 -13.52 303.4 -15.17 Q 303.53 -16.81 303.66 -18.52 L 303.66 -18.52 Q 303.73 -19.62 304.68 -19.62 L 304.68 -19.62 L 305.81 -19.62 Q 306.96 -19.62 307.67 -19.41 Q 308.39 -19.2 308.8 -18.79 Q 309.21 -18.38 309.34 -17.75 Q 309.48 -17.13 309.48 -16.34 L 309.48 -16.34 Q 309.48 -15.52 309.38 -14.4 Q 309.27 -13.28 309.15 -12.15 Q 309.03 -11.03 308.92 -10.04 Q 308.8 -9.06 308.8 -8.52 L 308.8 -8.52 Q 308.8 -7.16 309.47 -6.51 Q 310.13 -5.85 311.09 -5.85 L 311.09 -5.85 Q 312.76 -5.85 313.76 -7.6 Q 314.76 -9.36 315.02 -12.23 L 315.02 -12.23 L 315.58 -18.9 Q 315.62 -19.3 315.85 -19.46 Q 316.09 -19.62 316.37 -19.62 L 316.37 -19.62 L 317.65 -19.62 Q 318.4 -19.62 319.07 -19.49 Q 319.73 -19.37 320.22 -19.03 Q 320.72 -18.69 321.01 -18.13 Q 321.3 -17.56 321.3 -16.66 L 321.3 -16.66 Q 321.3 -16.31 321.24 -15.32 Q 321.19 -14.34 321.07 -12.5 Q 320.95 -10.66 320.73 -7.87 Q 320.51 -5.07 320.23 -1.03 L 320.23 -1.03 Q 320.06 1.32 319.18 2.87 Q 318.3 4.43 316.98 5.33 Q 315.65 6.24 314.01 6.59 Q 312.38 6.95 310.67 6.95 L 310.67 6.95 Q 308.86 6.95 307.33 6.63 Q 305.81 6.31 304.7 5.74 Q 303.6 5.17 302.98 4.43 Q 302.36 3.68 302.36 2.82 Z M 359.5 -10.92 L 359.5 -10.92 Q 359.5 -12.11 359.66 -13.65 Q 359.81 -15.19 360.28 -16.84 Q 360.76 -18.48 361.59 -20.07 Q 362.43 -21.66 363.74 -22.9 Q 365.06 -24.15 366.97 -24.92 Q 368.87 -25.7 371.52 -25.7 L 371.52 -25.7 Q 373.63 -25.7 375.18 -25.19 Q 376.73 -24.69 377.75 -23.82 Q 378.77 -22.94 379.25 -21.77 Q 379.73 -20.59 379.73 -19.27 L 379.73 -19.27 Q 379.73 -16.99 378.39 -15.93 Q 377.04 -14.88 374.59 -14.88 L 374.59 -14.88 Q 373.8 -14.88 373.61 -15 Q 373.42 -15.12 373.42 -15.52 L 373.42 -15.52 Q 373.39 -16.74 373.34 -17.63 Q 373.3 -18.52 373.09 -19.1 Q 372.88 -19.69 372.44 -19.96 Q 371.99 -20.23 371.21 -20.23 L 371.21 -20.23 Q 370.06 -20.23 369.26 -19.75 Q 368.46 -19.27 367.9 -18.5 Q 367.34 -17.74 367.01 -16.77 Q 366.68 -15.8 366.48 -14.81 Q 366.28 -13.82 366.23 -12.88 Q 366.17 -11.95 366.17 -11.27 L 366.17 -11.27 Q 366.17 -8 367.26 -6.6 Q 368.35 -5.21 370.63 -5.21 L 370.63 -5.21 Q 372.1 -5.21 373.12 -5.64 Q 374.13 -6.06 374.84 -6.6 Q 375.55 -7.14 376.1 -7.57 Q 376.66 -8 377.24 -8 L 377.24 -8 Q 377.95 -8 377.95 -6.92 L 377.95 -6.92 Q 377.95 -6.34 377.8 -5.54 Q 377.65 -4.74 377.41 -3.75 L 377.41 -3.75 Q 377.27 -3.14 376.71 -2.42 Q 376.16 -1.71 375.2 -1.09 Q 374.24 -0.47 372.83 -0.06 Q 371.42 0.35 369.59 0.35 L 369.59 0.35 Q 367.78 0.35 365.96 -0.18 Q 364.13 -0.71 362.71 -1.99 Q 361.28 -3.28 360.39 -5.45 Q 359.5 -7.63 359.5 -10.92 Z M 395.28 -3.4 L 395.28 -3.4 Q 395.28 -4.18 395.4 -5.58 Q 395.52 -6.99 395.74 -9.47 Q 395.96 -11.95 396.24 -15.8 Q 396.53 -19.65 396.84 -25.37 L 396.84 -25.37 Q 396.88 -26.15 397.02 -26.29 L 397.02 -26.29 Q 397.12 -26.39 397.59 -26.41 L 397.59 -26.41 L 398.99 -26.41 Q 400.05 -26.41 400.76 -26.16 Q 401.48 -25.91 401.9 -25.48 Q 402.33 -25.05 402.51 -24.49 Q 402.7 -23.94 402.7 -23.33 L 402.7 -23.33 Q 402.7 -22.68 402.58 -20.94 Q 402.45 -19.2 402.26 -16.85 L 402.26 -16.85 Q 403.32 -18.62 404.63 -19.3 Q 405.94 -19.98 407.94 -19.98 L 407.94 -19.98 Q 409.44 -19.98 410.55 -19.66 Q 411.65 -19.34 412.38 -18.57 Q 413.12 -17.8 413.47 -16.58 Q 413.83 -15.35 413.83 -13.52 L 413.83 -13.52 Q 413.83 -12.94 413.73 -11.56 Q 413.62 -10.17 413.46 -8.39 Q 413.29 -6.6 413.13 -4.66 Q 412.98 -2.72 412.87 -1.1 L 412.87 -1.1 Q 412.84 -0.7 412.79 -0.49 Q 412.75 -0.28 412.66 -0.17 Q 412.58 -0.07 412.4 -0.03 Q 412.23 0 411.9 0 L 411.9 0 L 410.76 0 Q 409.61 0 408.9 -0.22 Q 408.19 -0.44 407.79 -0.83 Q 407.4 -1.22 407.24 -1.8 Q 407.09 -2.39 407.09 -3.14 L 407.09 -3.14 Q 407.09 -3.48 407.11 -3.82 Q 407.12 -4.15 407.16 -4.43 L 407.16 -4.43 Q 407.26 -5.61 407.38 -6.89 Q 407.51 -8.17 407.6 -9.35 Q 407.7 -10.52 407.77 -11.45 Q 407.84 -12.39 407.84 -12.8 L 407.84 -12.8 Q 407.84 -13.73 407.39 -14.46 Q 406.95 -15.19 405.66 -15.19 L 405.66 -15.19 Q 403.95 -15.19 402.9 -13.59 Q 401.84 -11.99 401.67 -9.32 L 401.67 -9.32 Q 401.6 -8.57 401.49 -7.23 Q 401.37 -5.89 401.27 -4.51 Q 401.16 -3.14 401.08 -2.05 Q 400.99 -0.96 400.99 -0.71 L 400.99 -0.71 Q 400.99 -0.28 400.82 -0.14 Q 400.66 0 400.21 0 L 400.21 0 L 398.92 0 Q 397.82 0 397.11 -0.24 Q 396.41 -0.47 396 -0.9 Q 395.59 -1.32 395.43 -1.94 Q 395.28 -2.56 395.28 -3.4 Z M 429.67 -4.39 L 429.67 -4.39 Q 429.67 -7.6 432.56 -9.42 Q 435.44 -11.24 441.09 -11.38 L 441.09 -11.38 Q 441.12 -11.78 441.14 -12.05 Q 441.16 -12.32 441.16 -12.7 L 441.16 -12.7 Q 441.16 -13.85 440.73 -14.52 Q 440.3 -15.19 438.94 -15.19 L 438.94 -15.19 Q 438.19 -15.19 437.73 -14.98 Q 437.27 -14.77 436.98 -14.4 Q 436.7 -14.02 436.52 -13.48 Q 436.35 -12.94 436.19 -12.32 L 436.19 -12.32 Q 436.12 -12 435.88 -11.91 Q 435.63 -11.81 435.09 -11.81 L 435.09 -11.81 Q 431.45 -11.81 431.45 -14.56 L 431.45 -14.56 Q 431.45 -15.66 431.97 -16.66 Q 432.48 -17.67 433.5 -18.4 Q 434.52 -19.13 436.05 -19.56 Q 437.58 -19.98 439.62 -19.98 L 439.62 -19.98 Q 443.58 -19.98 445.36 -18.34 Q 447.15 -16.69 447.15 -13.69 L 447.15 -13.69 Q 447.15 -13.29 447.06 -12.28 Q 446.97 -11.27 446.84 -10.15 Q 446.71 -9.02 446.63 -8.02 Q 446.54 -7.02 446.54 -6.64 L 446.54 -6.64 Q 446.54 -5.75 446.86 -5.37 Q 447.18 -5 447.59 -4.85 Q 448 -4.7 448.32 -4.63 Q 448.65 -4.56 448.65 -4.29 L 448.65 -4.29 Q 448.65 -3.5 448.43 -2.67 Q 448.21 -1.85 447.73 -1.18 Q 447.25 -0.51 446.42 -0.08 Q 445.58 0.35 444.36 0.35 L 444.36 0.35 Q 442.65 0.35 441.8 -0.47 Q 440.95 -1.29 440.65 -2.75 L 440.65 -2.75 Q 439.8 -1.5 438.42 -0.57 Q 437.04 0.35 434.83 0.35 L 434.83 0.35 Q 433.77 0.35 432.83 0.1 Q 431.89 -0.14 431.19 -0.71 Q 430.49 -1.29 430.08 -2.2 Q 429.67 -3.1 429.67 -4.39 Z M 435.81 -5.85 L 435.81 -5.85 Q 435.81 -5.03 436.32 -4.71 Q 436.83 -4.39 437.44 -4.39 L 437.44 -4.39 Q 438.02 -4.39 438.59 -4.64 Q 439.15 -4.9 439.6 -5.41 Q 440.04 -5.92 440.36 -6.67 Q 440.68 -7.42 440.75 -8.45 L 440.75 -8.45 Q 439.83 -8.45 438.94 -8.31 Q 438.05 -8.17 437.36 -7.87 Q 436.66 -7.56 436.23 -7.06 Q 435.81 -6.57 435.81 -5.85 Z M 464.02 -15.31 L 464.02 -15.31 L 464.13 -17.13 Q 464.16 -17.6 464.26 -18.04 Q 464.35 -18.48 464.61 -18.84 Q 464.87 -19.2 465.38 -19.41 Q 465.88 -19.62 466.7 -19.62 L 466.7 -19.62 Q 466.95 -20.26 467.27 -21.16 Q 467.59 -22.06 467.91 -22.89 Q 468.24 -23.73 468.54 -24.29 Q 468.85 -24.86 469.09 -24.86 L 469.09 -24.86 L 470.12 -24.86 Q 471.62 -24.86 472.19 -23.94 Q 472.77 -23.01 472.77 -21.72 L 472.77 -21.72 Q 472.77 -21.01 472.66 -19.62 L 472.66 -19.62 L 476.41 -19.62 Q 476.98 -19.62 476.98 -19.13 L 476.98 -19.13 L 476.83 -17.2 Q 476.76 -16.13 476.24 -15.47 Q 475.73 -14.81 474.13 -14.81 L 474.13 -14.81 L 472.23 -14.81 Q 472.12 -13.45 472 -12.13 Q 471.88 -10.82 471.77 -9.63 Q 471.67 -8.45 471.61 -7.53 Q 471.55 -6.6 471.55 -6.1 L 471.55 -6.1 Q 471.55 -5.17 471.76 -4.87 Q 471.98 -4.56 472.49 -4.56 L 472.49 -4.56 Q 472.89 -4.56 473.17 -4.71 Q 473.45 -4.86 473.7 -5.03 Q 473.95 -5.21 474.14 -5.35 Q 474.33 -5.49 474.58 -5.49 L 474.58 -5.49 Q 474.82 -5.49 475.04 -5.21 Q 475.26 -4.93 475.26 -3.89 L 475.26 -3.89 Q 475.26 -1.92 474.19 -0.78 Q 473.11 0.35 470.52 0.35 L 470.52 0.35 Q 467.96 0.35 466.72 -0.84 Q 465.48 -2.04 465.48 -4.49 L 465.48 -4.49 Q 465.48 -5.03 465.54 -5.77 Q 465.59 -6.5 465.7 -7.67 Q 465.82 -8.85 465.97 -10.57 Q 466.13 -12.28 466.3 -14.81 L 466.3 -14.81 L 464.42 -14.81 Q 464.14 -14.81 464.08 -14.93 Q 464.02 -15.05 464.02 -15.31 Z M 492.53 -10.77 L 492.53 -10.77 Q 492.53 -11.99 492.67 -13.57 Q 492.81 -15.16 493.26 -16.82 Q 493.72 -18.48 494.55 -20.07 Q 495.39 -21.66 496.76 -22.9 Q 498.14 -24.15 500.14 -24.92 Q 502.13 -25.7 504.92 -25.7 L 504.92 -25.7 Q 506.73 -25.7 508.18 -25.3 Q 509.62 -24.91 510.64 -24.2 Q 511.66 -23.48 512.21 -22.45 Q 512.76 -21.41 512.76 -20.12 L 512.76 -20.12 Q 512.76 -18.05 511.41 -16.99 Q 510.06 -15.94 507.58 -15.94 L 507.58 -15.94 Q 506.8 -15.94 506.64 -16.07 Q 506.49 -16.2 506.45 -16.59 L 506.45 -16.59 Q 506.38 -17.23 506.36 -17.87 Q 506.35 -18.52 506.18 -19.05 Q 506.02 -19.58 505.62 -19.9 Q 505.23 -20.23 504.38 -20.23 L 504.38 -20.23 Q 502.64 -20.23 501.6 -19.23 Q 500.56 -18.24 500.02 -16.81 Q 499.48 -15.38 499.34 -13.87 Q 499.2 -12.35 499.2 -11.31 L 499.2 -11.31 Q 499.2 -9.6 499.42 -8.44 Q 499.64 -7.28 500.05 -6.55 Q 500.46 -5.82 501.02 -5.51 Q 501.59 -5.21 502.34 -5.21 L 502.34 -5.21 Q 503.7 -5.21 504.62 -5.78 Q 505.55 -6.36 505.74 -7.86 L 505.74 -7.86 L 505.95 -9.84 Q 506.05 -10.87 506.23 -11.53 Q 506.42 -12.2 507.1 -12.2 L 507.1 -12.2 L 509.05 -12.2 Q 509.94 -12.2 510.49 -12 Q 511.05 -11.81 511.36 -11.37 Q 511.66 -10.92 511.76 -10.21 Q 511.87 -9.49 511.87 -8.45 L 511.87 -8.45 Q 511.87 -7.74 511.82 -6.56 Q 511.76 -5.38 511.68 -4.17 Q 511.59 -2.96 511.48 -1.94 Q 511.36 -0.92 511.29 -0.54 L 511.29 -0.54 Q 511.22 -0.23 511.12 -0.11 Q 511.02 0 510.68 0 L 510.68 0 L 508.73 0 Q 506.89 0 506.08 -0.77 Q 505.27 -1.53 505.2 -2.68 L 505.2 -2.68 Q 504.8 -1.46 503.53 -0.56 Q 502.27 0.35 499.88 0.35 L 499.88 0.35 Q 498.49 0.35 497.17 -0.2 Q 495.84 -0.75 494.81 -2.03 Q 493.79 -3.31 493.16 -5.45 Q 492.53 -7.6 492.53 -10.77 Z M 529.44 -3.17 L 529.44 -3.17 Q 529.44 -3.64 529.5 -4.66 Q 529.56 -5.68 529.66 -7.06 Q 529.77 -8.45 529.89 -10.1 Q 530.01 -11.74 530.15 -13.45 L 530.15 -13.45 Q 530.33 -15.56 530.46 -17.07 Q 530.59 -18.59 530.66 -19.68 Q 530.73 -20.77 530.78 -21.5 Q 530.83 -22.23 530.85 -22.78 Q 530.87 -23.33 530.88 -23.8 Q 530.9 -24.27 530.9 -24.79 L 530.9 -24.79 Q 530.9 -25.07 531.08 -25.2 Q 531.27 -25.33 531.44 -25.33 L 531.44 -25.33 Q 532.37 -25.33 533.47 -25.38 Q 534.58 -25.44 535.68 -25.51 Q 536.79 -25.57 537.83 -25.64 Q 538.86 -25.7 539.65 -25.7 L 539.65 -25.7 Q 541.93 -25.7 543.58 -25.14 Q 545.22 -24.58 546.23 -23.53 Q 547.24 -22.47 547.73 -20.98 Q 548.22 -19.48 548.22 -17.56 L 548.22 -17.56 Q 548.22 -15.45 547.66 -13.51 Q 547.1 -11.57 545.93 -10.07 Q 544.75 -8.57 542.9 -7.67 Q 541.04 -6.78 538.48 -6.78 L 538.48 -6.78 Q 536.95 -6.78 535.87 -7.11 L 535.87 -7.11 L 535.36 -0.54 Q 535.33 -0.26 535.22 -0.13 Q 535.12 0 534.8 0 L 534.8 0 L 533.15 0 Q 531.11 0 530.27 -0.8 Q 529.44 -1.6 529.44 -3.17 Z M 536.23 -12.02 L 536.23 -12.02 Q 536.77 -11.88 537.29 -11.83 Q 537.8 -11.78 538.22 -11.78 L 538.22 -11.78 Q 539.47 -11.78 540.24 -12.36 Q 541.01 -12.94 541.43 -13.81 Q 541.86 -14.67 542.01 -15.59 Q 542.16 -16.52 542.16 -17.2 L 542.16 -17.2 Q 542.16 -18.73 541.45 -19.53 Q 540.75 -20.33 538.93 -20.33 L 538.93 -20.33 Q 538.46 -20.33 537.9 -20.28 Q 537.33 -20.23 536.69 -20.16 L 536.69 -20.16 Q 536.62 -18.66 536.51 -16.52 Q 536.41 -14.37 536.23 -12.02 Z M 563.4 -20.84 L 563.4 -20.84 L 563.52 -22.84 Q 563.56 -23.31 563.68 -23.75 Q 563.8 -24.2 564.09 -24.56 Q 564.38 -24.91 564.82 -25.12 Q 565.27 -25.33 565.91 -25.33 L 565.91 -25.33 L 581.85 -25.33 Q 582.06 -25.33 582.24 -25.23 Q 582.43 -25.12 582.43 -24.83 L 582.43 -24.83 L 582.29 -22.74 Q 582.22 -21.67 581.69 -21 Q 581.17 -20.33 579.57 -20.33 L 579.57 -20.33 L 575.72 -20.33 L 574.36 -0.54 Q 574.33 0 573.98 0 L 573.98 0 L 572.01 0 Q 570 0 569.15 -0.78 Q 568.3 -1.57 568.3 -3.03 L 568.3 -3.03 Q 568.3 -3.57 568.35 -4.64 Q 568.4 -5.71 568.51 -7.16 Q 568.61 -8.61 568.74 -10.3 Q 568.87 -11.99 569.01 -13.72 Q 569.15 -15.45 569.28 -17.16 Q 569.41 -18.87 569.52 -20.33 L 569.52 -20.33 L 563.8 -20.33 Q 563.4 -20.33 563.4 -20.84 Z" stroke-linecap="round" />
</g>
</g>
</g>
</svg>