<?xml version="1.0" encoding="UTF-8" standalone="no" ?>
<!DOCTYPE svg PUBLIC "-//W3C//DTD SVG 1.1//EN" "http://www.w3.org/Graphics/SVG/1.1/DTD/svg11.dtd">
<svg xmlns="http://www.w3.org/2000/svg" xmlns:xlink="http://www.w3.org/1999/xlink" version="1.1" width="1280" height="1024" viewBox="0 0 1280 1024" xml:space="preserve">
<desc>Created with Fabric.js 4.4.0</desc>
<defs>
</defs>
<g transform="matrix(1 0 0 1 640 512)" id="background-logo"  >
<rect style="stroke: none; stroke-width: 0; stroke-dasharray: none; stroke-linecap: butt; stroke-dashoffset: 0; stroke-linejoin: miter; stroke-miterlimit: 4; fill: rgb(255,255,255); fill-opacity: 0; fill-rule: nonzero; opacity: 1;"  paint-order="stroke"  x="-640" y="-512" rx="0" ry="0" width="1280" height="1024" />
</g>
<g transform="matrix(2.166505076550412 0 0 2.166505076550412 640 398.23778022811746)" id="logo-logo"  >
<g style=""  paint-order="stroke"   >
		<g transform="matrix(0.31240471927426056 0 0 0.31240471927426056 0 0)"  >
<g style=""  paint-order="stroke"   >
		<g transform="matrix(1 0 0 1 0 0)"  >
<path style="stroke: none; stroke-width: 1; stroke-dasharray: none; stroke-linecap: butt; stroke-dashoffset: 0; stroke-linejoin: miter; stroke-miterlimit: 4; fill: rgb(77,70,55); fill-rule: nonzero; opacity: 1;"  paint-order="stroke"  transform=" translate(-466.33111475334925, -421.03307780473534)" d="M 661.9406738 755.5270996 C 655.69458 743.7233887 630.0080566 655.9020996 635.5598144 599.4421387 L 641.3527832000001 629.0671387 C 641.3527832000001 629.0671387 696.6525879000001 564.2702637 654.0695801 513.8278809 L 654.0695801 496.5837403 L 623.7609863 541.0095215 L 624.4562988 567.7380371 L 614.3830566 551.0769043 C 614.3830566 551.0769043 589.7443847000001 562.8815918 572.7355957 540.6628418 C 572.7355957 540.6628418 602.5842285 553.8562012 611.6096190999999 540.3151856000001 C 620.6350097 526.7800294000001 663.3303222 457.81616220000006 663.3303222 457.81616220000006 C 663.3303222 457.81616220000006 683.4592283999999 401.12622080000006 660.5568847 349.7531739000001 C 660.5568847 349.7531739000001 660.5568847 288.8952637000001 660.5568847 277.3210450000001 C 660.5568847 265.7521973000001 645.6271972 234.51391610000007 645.6271972 228.96167000000008 C 645.6271972 223.40454110000007 659.6271972 216.92797860000007 659.6271972 211.14672860000007 C 659.6271972 205.35375980000006 648.28833 203.96459970000006 642.0412597 205.35375980000006 C 635.7951658999999 206.74292000000005 628.0969237999999 212.64819340000005 629.3127440999999 216.11596680000005 C 630.5285643999999 219.58374020000005 638.1652831999999 221.84692380000004 638.1652831999999 227.22534180000005 C 638.1652831999999 232.60327150000006 612.1311034999999 233.81909180000005 598.2482909999999 215.94213870000004 C 598.2482909999999 215.94213870000004 598.0695800999998 232.42944340000005 630.5285643999998 235.90307620000004 C 630.5285643999998 235.90307620000004 618.7297362999998 247.52807620000004 596.5119627999998 230.86694340000005 C 596.5119627999998 230.86694340000005 597.7219236999998 236.13256840000005 602.4719236999998 239.83032230000006 C 602.4719236999998 239.83032230000006 589.3967283999998 239.71850590000005 581.5871580999998 228.43530280000007 C 581.5871580999998 228.43530280000007 581.0607908999998 233.24194340000008 586.7297361999998 239.71850590000008 C 586.7297361999998 239.71850590000008 576.2092283999998 238.21655280000007 571.4582517999999 224.6818848000001 C 571.4582517999999 224.6818848000001 569.2619626999999 228.2673340000001 570.6516111999998 234.8610840000001 C 563.0148923999998 228.6145020000001 560.8195799999999 204.8942871000001 577.4807127999998 188.4626465000001 C 577.4807127999998 188.4626465000001 569.6096189999997 193.0344238000001 564.9260252999998 200.1491699000001 C 565.0939940999998 190.6027832000001 579.1555174999997 177.4152832000001 594.6008299999997 172.72583010000008 C 592.0578611999997 178.63061530000007 583.6037596999997 183.14038090000008 581.9904783999998 191.4714356000001 C 586.0354002999998 185.6843262000001 601.3742674999999 179.1462403000001 605.3635252999998 172.72583010000008 C 609.3518064999997 166.3059082000001 615.0773924999997 143.91870120000007 621.5031736999997 143.91870120000007 C 627.9230955999997 143.91870120000007 630.0080564999997 159.88549810000006 642.5070798999997 170.29467780000007 C 638.3381345999996 152.24975590000008 662.6359860999996 129.51000980000006 615.7727048999997 88.72534190000007 C 615.7727048999997 88.72534190000007 624.6857907999997 88.72534190000007 635.3244626999997 99.83471690000007 C 643.6604001999997 84.09741220000008 640.7355954999997 64.94897470000006 628.3889157999997 58.640869200000076 C 614.5617673999997 51.587646500000076 600.8479001999997 72.75854500000008 592.0578610999997 72.75854500000008 C 583.2619626999997 72.75854500000008 543.4631344999998 72.75854500000008 543.4631344999998 72.75854500000008 C 536.2863766999998 72.75854500000008 514.9426266999998 44.153076200000086 490.9309078999998 62.57885750000008 C 471.0314937999998 77.85668950000009 487.9279781999998 110.01391610000007 487.9279781999998 110.01391610000007 C 487.9279781999998 110.01391610000007 458.8830562999998 145.65551770000008 458.8830562999998 172.72583020000008 C 458.8830562999998 172.72583020000008 451.7648921999998 161.79028330000008 438.7482906999998 157.6276857000001 C 438.7482906999998 157.6276857000001 448.2941890999998 167.00073260000008 448.6418453999998 179.8410646000001 C 448.6418453999998 179.8410646000001 440.4846187999998 163.8742677000001 424.1711422999998 162.1374513000001 C 424.1711422999998 162.1374513000001 433.3698727999998 168.7370607000001 435.4514156999998 183.31420910000008 C 435.4514156999998 183.31420910000008 424.69165009999983 167.86889660000008 407.3361812999998 167.69506850000008 C 407.3361812999998 167.69506850000008 414.9719234999998 172.21069350000008 419.4846187999998 183.31420910000008 C 419.4846187999998 183.31420910000008 405.9465328999998 171.8630372000001 388.4172359999998 173.7683107000001 C 388.4172359999998 173.7683107000001 399.70043909999976 179.49340840000008 405.77270479999976 189.5666505000001 C 383.21264619999977 176.1994630000001 347.11157199999974 179.67260750000008 337.39379859999974 220.62573250000008 C 337.39379859999974 220.62573250000008 355.09448219999973 190.5412598000001 372.6857907999997 194.01489270000008 C 372.6857907999997 194.01489270000008 366.6633298999997 195.05688490000009 364.1198727999997 198.8776857000001 C 364.1198727999997 198.8776857000001 380.2014157999997 194.24975600000008 386.2209469999997 204.0817873000001 C 392.2375485999997 213.9196779000001 381.9968258999997 233.4714357000001 381.9968258999997 233.4714357000001 C 381.9968258999997 233.4714357000001 387.8371578999997 229.3093263000001 389.6945797999997 222.5974123000001 C 389.5739742999997 233.0124514000001 359.6071774999997 284.4973146000001 361.3439938999997 337.2541506000001 C 361.3439938999997 337.2541506000001 368.2854000999997 304.1672365000001 375.9211422999997 293.0632326000001 C 376.1564938999997 316.8952638000001 369.6745602999997 350.6828615000001 354.6350094999997 378.6774904000001 C 361.5764156999997 384.0056154000001 357.41137669999966 396.96362320000014 327.5593258999997 396.96362320000014 C 300.0183102999997 396.96362320000014 305.1105953999997 385.33325210000015 305.1105953999997 385.33325210000015 C 297.1276851999997 386.8962404000001 300.2536617999997 396.96362320000014 312.2287594999997 401.12622090000013 C 312.2287594999997 401.12622090000013 302.3352047999997 402.74487320000014 298.6320797999997 394.7673342000001 C 298.6320797999997 394.7673342000001 297.4748531999997 402.8630373000001 310.5510250999997 405.9831545000001 C 310.5510250999997 405.9831545000001 302.10278289999974 406.4479983000001 297.4748531999997 402.86303730000014 C 297.4748531999997 402.86303730000014 299.5588375999997 408.99731460000015 309.3908687999997 411.0812990000002 C 309.3908687999997 411.0812990000002 303.8361812999997 412.69506850000016 298.6320796999997 409.45678730000014 C 298.6320796999997 409.45678730000014 299.79125939999966 414.43139670000016 308.69653279999966 415.82104510000016 C 308.69653279999966 415.82104510000016 303.95678669999967 417.9050295000002 299.6711421999997 415.82104510000016 C 299.6711421999997 415.82104510000016 303.55053669999967 422.99194350000016 322.4670405999997 422.99194350000016 L 322.4670405999997 449.72631850000016 C 322.4670405999997 449.72631850000016 306.50024369999966 452.1520997000002 292.4416499999997 444.86303730000014 C 292.4416499999997 444.86303730000014 295.3937983999997 452.84643570000014 309.2761226999997 456.84057640000015 C 309.2761226999997 456.84057640000015 302.5676265999997 458.51049830000017 295.5061031999997 454.00073260000016 C 295.5061031999997 454.00073260000016 296.7805172999997 460.9421388000002 309.6232906999997 464.1853029000002 C 309.6232906999997 464.1853029000002 304.0715328999997 466.2692873000002 297.9372554999997 462.91381850000016 C 297.9372554999997 462.91381850000016 303.0295406999997 473.67065440000016 327.3269038999997 475.9274904000002 C 327.3269038999997 475.9274904000002 321.8869624999997 478.29760760000016 315.4103999999997 476.4489748000002 C 315.4103999999997 476.4489748000002 319.2287593999997 481.4235842000002 329.2961421999997 482.2360842000002 C 316.4523921999997 486.97534200000024 272.0236812999997 474.9470217000002 271.32934529999966 499.70971700000024 L 271.32934529999966 502.2194826000002 C 286.43872029999966 496.5104982000002 300.61498979999965 496.5944826000002 311.3801264999997 502.9030764000002 C 321.0466303999997 508.5612795000002 332.5646967999997 521.9392092000002 332.5344233999997 553.5144045000002 C 332.47241169999967 615.0270998000002 299.8361811999997 619.8063967000002 289.8391108999997 619.8063967000002 C 283.0993647999997 619.8063967000002 276.3850092999997 616.6520998000002 270.9367670999997 610.9265139000001 C 262.1467279999997 601.6823733000001 257.7658686999997 587.3571780000002 258.6062006999997 570.5895998000001 C 260.1330561999997 540.0407717 272.9455561999997 518.0964357 289.1555170999997 518.0964357 C 289.3181147999997 518.0964357 289.4777826999997 518.1022951 289.6398920999997 518.1022951 C 294.87817329999973 518.2419435 299.6740717999997 520.5729982 303.5139154999997 524.819092 C 310.9372552999997 533.0437013999999 313.4919427999997 546.9255373 312.7326654999997 557.0495608 C 312.1726068999997 564.5056155 309.2424310999997 588.8923342 295.0012201999997 589.6042483 C 291.1584467999997 589.8063967 287.5422357999997 588.2927248999999 284.8645013999997 585.3796389 C 280.1555169999997 580.2712405 278.42407169999973 570.9655764 279.9958490999997 559.1950686 C 280.40161079999973 556.1579592 283.2111810999997 554.0241702 286.2336420999997 554.4216311 C 289.2761225999997 554.8308108 291.4133295999997 557.6267092 291.00414989999973 560.6628420000001 C 289.71606399999973 570.3269045000001 291.29565379999974 575.9685061 293.03539989999973 577.8620608000001 C 293.5617670999997 578.4333499 293.97387649999973 578.5681155000001 294.44946239999973 578.5056155000001 C 295.7883295999997 578.4440921 300.50317329999973 571.6091311000001 301.6569818999997 556.2145999 C 302.33227489999973 547.1833499 299.64868109999975 537.1110843 295.2707513999997 532.2644046 C 293.4665521999997 530.2644046 291.52563419999973 529.2673343 289.3430169999997 529.2116702000001 C 280.9929192999997 528.7634280000001 270.9680169999997 545.7829593000001 269.6984857999997 571.1394046 C 269.0236810999997 584.6462405000001 272.4103998999997 596.3552249 278.9875482999997 603.2741702000001 C 282.3151849999997 606.7692874 286.1721185999997 608.6970218 289.8391107999997 608.6970218 C 299.3181146999997 608.6970218 321.3742669999997 603.3181156 321.4250482999997 553.5026859 C 321.4475091999997 532.6853030999999 316.0324701999997 518.4997562 305.76635689999966 512.4880375 C 297.01830999999964 507.3620609 274.96801709999966 504.0515141 260.1525873999997 529.8054203 C 254.21411079999967 540.1306156 248.88061469999968 555.8669437000001 248.88061469999968 576.0690922 C 248.88061469999968 616.3386234 273.2951654999997 634.4392094 293.8894037999997 636.6296391 C 307.7692865999997 638.1091313 349.5427240999997 641.0944829 349.5427240999997 641.0944829 L 413.0646967999997 570.1696782 L 419.3107905999997 576.7634282 L 253.2785645 761.8864746 L 257.90600589999997 766.5192871 L 356.94604499999997 667.4763183 L 347.4978028 748.0144042 C 361.5344239 743.9030760999999 377.0808106 746.7712401 390.2072755 754.6091307999999 C 352.37182629999995 745.9304198999998 335.98266609999996 764.9333495999999 326.9797364 785.6735838999999 L 423.246338 785.6735838999999 C 441.5715333 766.2106932999999 457.8630372 687.0114745 504.1184083 681.8288573 C 504.1184083 681.8288573 492.090088 687.3757323 484.6789552 696.6306151 C 484.6789552 696.6306151 515.9230958 679.7448729 539.9953614 701.9587401 C 539.9953614 701.9587401 517.7766114 692.238037 500.4211426 700.5690917 C 500.4211426 700.5690917 531.1662598 708.2946776 559.536377 738.7145995 C 570.6291504000001 750.6032713999999 588.4777832 785.6735838999999 598.8195801 785.6735838999999 L 683.7619629000001 785.6735838999999 C 684.5402832 767.454834 661.9406738 755.5270996 661.9406738 755.5270996 z M 587.536377 158.1149902 C 588.0744629000001 154.0368652 591.9348145 150.7424316 596.1701661 150.75366209999999 C 600.3996582999999 150.7648926 603.4025879999999 154.08178709999999 602.8762207999999 158.154541 C 602.3381348999999 162.2331543 598.4719239 165.5212402 594.2482911 165.5158691 C 590.0070801 165.5046387 587.0100098 162.1936035 587.536377 158.1149902 z M 500.0734863 73.3415527 C 512.4719238 63.06665039999999 529.1721191 81.4362793 529.1721191 81.4362793 L 524.3312988 85.3078613 C 521.373291 81.9685058 513.5363769 74.9660644 502.7297363 79.4699707 C 502.7297363 79.4699707 510.96997070000003 81.6608887 517.6984863 90.6188965 L 501.40747070000003 103.6496582 C 501.4074707 103.6496582 487.2336426 83.9855957 500.0734863 73.3415527 z M 494.1750488 342.576416 L 511.7600097 342.576416 L 511.7600097 354.845459 L 494.1750488 354.845459 L 494.1750488 342.576416 z M 486.661377 337.5007324 L 488.1857911 359.1091308 C 488.4211427 362.4309081 485.7824708 365.2600097 482.44848640000004 365.2600097 L 454.68383800000004 365.2600097 C 451.60815440000005 365.2600097 449.02856460000004 362.9465331 448.6921388 359.8874511 L 445.9943849 335.14233390000004 C 445.6477052 331.9489745 448.1486818 329.16479480000004 451.3645021 329.16479480000004 L 477.7092287 329.16479480000004 C 482.4211426 329.1647949 486.3312988 332.8005371 486.661377 337.5007324 z M 485.6086426 371.2712402 C 485.6086426 371.2712402 485.6086426 398.35278320000003 485.6086426 408.7619629 C 485.6086426 419.1765137 476.9309082 447.2946777 476.583252 460.829834 C 463.0480958 449.0310059 454.37036140000004 422.1853028 454.37036140000004 407.7199707 C 454.37036140000004 399.3952637 454.37036140000004 371.27124019999997 454.37036140000004 371.27124019999997 L 485.6086426 371.27124019999997 z M 442.2214355 224.0993652 C 442.2214355 224.0993652 475.8937988 267.4890136 481.0930175 324.0666504 L 446.3869628 324.0666504 C 446.3869628 324.0666504 444.3029784 281.029541 411.6750487 237.6345215 L 442.2214355 224.0993652 z M 446.967041 553.8562012 L 428.6838379 573.2907715 L 414.10375980000003 562.4216309 L 428.45141600000005 547.3737793 C 428.45141600000005 547.3737793 416.88208010000005 539.0437012 412.71704100000005 530.0183105 L 362.73364260000005 576.416748 L 367.59057620000004 531.2956542 L 397.442627 501.44116199999996 C 397.442627 501.44116199999996 373.3776856 452.96459949999996 380.548584 403.210205 C 387.0305176 463.37280269999997 425.4455567 569.8220214 483.76000980000003 540.2028808 C 483.7600098 540.2028809 478.8967285 558.2536621 446.967041 553.8562012 z M 497.8723145 493.4577637 L 485.6086426 477.72631839999997 C 485.6086426 477.72631839999997 498.7961426 464.9978028 505.2834473 458.51049809999995 C 511.7600098 452.03393559999995 524.4885254 445.32299809999995 529.3459473 453.88842779999993 C 534.2023926 462.454834 525.4133301 482.1188965 497.8723145 493.4577637 z M 555.2678223 361.3220215 L 520.0852051 361.3220215 L 520.0852051 357.1535645 L 555.2678223 357.1535645 L 555.2678223 361.3220215 z M 555.2678223 351.142334 L 520.0852051 351.142334 L 520.0852051 335.635498 L 555.2678223 335.635498 L 555.2678223 351.142334 z M 607.7941895 244.5808105 L 632.7805176 279.6403808 C 632.7805176 279.6403808 621.677002 306.1335449 621.677002 329.1647949 L 590.786377 322.329834 C 590.786377 322.329834 590.786377 276.166748 607.7941895 244.5808105 z M 586.8869629 335.8200684 C 587.1730957 331.4724122 591.2678222999999 328.4025879 595.5256347999999 329.35522460000004 L 616.2434082 334.00512690000005 C 620.3547363 334.92358390000004 623.0666504 338.85668940000005 622.4729004 343.03002920000006 L 619.3684082 364.71118150000007 C 618.864502 368.28002920000006 615.4699707 370.67749010000006 611.9406738 369.9714354000001 L 590.4504394 365.6579588000001 C 587.3352050000001 365.03051740000006 585.1613769 362.19555650000007 585.3742675000001 359.0246580000001 L 586.8869629 335.8200684 z M 586.270752 371.2712402 L 614.3830567 375.092041 C 614.3830567 375.092041 607.7941895 423.3395996 590.786377 453.88842769999997 C 590.786377 453.8884277 581.755127 420.2185059 586.270752 371.2712402 z M 562.8977051 342.3522949 L 580.4836426 342.3522949 L 580.4836426 354.6101074 L 562.8977051 354.6101074 L 562.8977051 342.3522949 z" stroke-linecap="round" />
</g>
		<g transform="matrix(1 0 0 1 -112.27172438067436 -167.1431922624106)"  >
<path style="stroke: none; stroke-width: 1; stroke-dasharray: none; stroke-linecap: butt; stroke-dashoffset: 0; stroke-linejoin: miter; stroke-miterlimit: 4; fill: rgb(77,70,55); fill-rule: nonzero; opacity: 1;"  paint-order="stroke"  transform=" translate(-354.0593903726749, -253.88988554232475)" d="M 335.3098145 277.9035645 C 364.1198731 293.001709 385.81469730000003 247.01245120000002 363.7727051 230.4631348 C 365.9689942 234.9787598 364.2932129 239.8977051 364.2932129 239.8977051 C 362.21215820000003 230.3513184 353.708252 228.4353028 353.708252 228.4353028 C 360.8229981 234.86108399999998 357.8732911 243.3654786 357.8732911 243.3654786 C 355.6154786 230.69848639999998 344.2204591 226.87768559999998 344.2204591 226.87768559999998 C 359.0275879 240.3010254 354.0554199 266.0993652 335.3098145 277.9035645 z" stroke-linecap="round" />
</g>
		<g transform="matrix(1 0 0 1 -133.8170662168037 -169.9941712162577)"  >
<path style="stroke: none; stroke-width: 1; stroke-dasharray: none; stroke-linecap: butt; stroke-dashoffset: 0; stroke-linejoin: miter; stroke-miterlimit: 4; fill: rgb(77,70,55); fill-rule: nonzero; opacity: 1;"  paint-order="stroke"  transform=" translate(-332.51404853654554, -251.03890658847763)" d="M 332.0129395 269.052002 C 326.3996583 255.92016610000002 328.0217286 240.9958497 341.9064942 233.12426760000002 C 324.3771973 231.2141113 315.1779785 257.595459 332.0129395 269.052002 z" stroke-linecap="round" />
</g>
		<g transform="matrix(1 0 0 1 -137.15289210334925 -36.454217408173974)"  >
<path style="stroke: none; stroke-width: 1; stroke-dasharray: none; stroke-linecap: butt; stroke-dashoffset: 0; stroke-linejoin: miter; stroke-miterlimit: 4; fill: rgb(77,70,55); fill-rule: nonzero; opacity: 1;"  paint-order="stroke"  transform=" translate(-329.17822265, -384.57886039656137)" d="M 348.7331543 388.0505371 C 344.42211910000003 374.0500488 311.4470215 376.8288574 309.623291 390.3640137 C 316.8283691 383.0754395 340.083252 381.0808105 348.7331543 388.0505371 z" stroke-linecap="round" />
</g>
		<g transform="matrix(1 0 0 1 1.114770936993807 -74.05458469530305)"  >
<path style="stroke: none; stroke-width: 1; stroke-dasharray: none; stroke-linecap: butt; stroke-dashoffset: 0; stroke-linejoin: miter; stroke-miterlimit: 4; fill: rgb(77,70,55); fill-rule: nonzero; opacity: 1;"  paint-order="stroke"  transform=" translate(-467.44588569034306, -346.9784931094323)" d="M 475.0314941 336.6828613 L 467.89379879999996 343.5231933 L 457.28051759999994 335.1589355 C 456.37573239999995 334.45874019999997 455.06762699999996 334.6101074 454.35327149999995 335.5065917 C 453.6418457 336.4138183 453.79858399999995 337.7194823 454.70043949999996 338.4362792 L 464.85766609999996 346.4309081 L 455.24145519999996 355.6520995 C 454.41235359999996 356.453369 454.386963 357.7697753 455.1823732 358.5988768 C 455.5886232 359.02465800000004 456.1379396 359.23754870000005 456.68676769999996 359.23754870000005 C 457.20483409999997 359.23754870000005 457.71997079999994 359.04711900000007 458.12622079999994 358.66088850000006 L 468.16333019999996 349.0417479000001 L 477.60864269999996 356.48120100000006 C 477.99536149999994 356.7839354000001 478.44848649999994 356.92944320000004 478.89672859999996 356.92944320000004 C 479.51293949999996 356.92944320000004 480.1291505 356.66088850000006 480.53833019999996 356.13403300000004 C 481.25024429999996 355.23217750000003 481.09301769999996 353.92651350000006 480.19067399999994 353.20971660000004 L 471.19946309999995 346.1281736 L 477.91137719999995 339.6857908 C 478.74047879999995 338.8903806 478.77368189999993 337.5734861 477.97290059999995 336.7390135 C 477.1711426 335.9206543 475.8605957 335.8815918 475.0314941 336.6828613 z" stroke-linecap="round" />
</g>
		<g transform="matrix(1 0 0 1 138.45381574706457 -71.74283905372266)"  >
<path style="stroke: none; stroke-width: 1; stroke-dasharray: none; stroke-linecap: butt; stroke-dashoffset: 0; stroke-linejoin: miter; stroke-miterlimit: 4; fill: rgb(77,70,55); fill-rule: nonzero; opacity: 1;"  paint-order="stroke"  transform=" translate(-604.7849305004138, -349.2902387510127)" d="M 595.1779785 357.2770996 C 595.6320800999999 357.2770996 596.0861816 357.1311035 596.467041 356.8288574 C 596.5344238 356.7839355 599.9855957 354.0944824 604.2932129 351.1706543 C 606.6691894999999 354.0612793 609.0998535 357.24340820000003 611.0666504 360.3522949 C 611.4641113 360.9802246 612.1359863 361.3220215 612.8254394999999 361.3220215 C 613.2062988999999 361.3220215 613.5988769999999 361.2209473 613.9348144999999 360.9968262 C 614.9094238999999 360.3806153 615.2004394999999 359.1032715 614.5852050999999 358.1286621 C 612.5793457 354.96850589999997 610.170166 351.78686519999997 607.8059082 348.8845215 C 610.3381347999999 347.2937012 612.9260254 345.8146973 615.2062988 344.8395996 C 616.2648926 344.3913574 616.7531738 343.1647949 616.2990722000001 342.10571289999996 C 615.8508300000001 341.05249019999997 614.6291503000001 340.55981449999996 613.5646972000001 341.00756839999997 C 610.9211425000001 342.13940429999997 607.9406738 343.85913089999997 605.1164550000001 345.65795899999995 C 601.3410644 341.2824707 598.2199706000001 338.10571289999996 597.9904784000001 337.87036129999996 C 597.1779784000001 337.0637207 595.8615722000002 337.0471191 595.0441893000002 337.86499019999997 C 594.2258299000002 338.67749019999997 594.2258299000002 339.9880371 595.0324705000002 340.8117675 C 595.0891111000002 340.8620605 598.0070799000001 343.82592769999997 601.5930174000001 347.96557609999996 C 597.4074705000002 350.81713859999996 594.1477049000001 353.3610839 593.9006346000001 353.55688469999996 C 592.9934080000002 354.26293939999994 592.8361815000001 355.57934559999995 593.5422362 356.48120109999996 C 593.9572754 357.0080566 594.5617676 357.2770996 595.1779785 357.2770996 z" stroke-linecap="round" />
</g>
</g>
</g>
</g>
</g>
<g transform="matrix(1.9211538461538462 0 0 1.9211538461538462 642.4839731257514 717.663795984269)" id="text-logo-path-group"  >
<g style=""  paint-order="stroke"   >
		<g transform="matrix(1 0 0 1 0 0)" id="text-logo-path-0"  >
<path style="stroke: none; stroke-width: 0; stroke-dasharray: none; stroke-linecap: butt; stroke-dashoffset: 0; stroke-linejoin: miter; stroke-miterlimit: 4; fill: rgb(77,70,55); fill-rule: nonzero; opacity: 1;"  paint-order="stroke"  transform=" translate(-252.805, 17.15)" d="M 2.69 -2.75 L 2.69 -2.75 L 2.69 -15.17 Q 2.69 -17.01 2.71 -20.02 Q 2.73 -23.04 2.73 -24.6 L 2.73 -24.6 L 2.73 -34.17 Q 2.78 -34.19 3.16 -34.19 Q 3.53 -34.19 4.02 -34.19 Q 4.5 -34.19 4.75 -34.24 L 4.75 -34.24 L 7.6 -34.35 Q 8.7 -34.4 9.29 -34.4 L 9.29 -34.4 L 12.94 -34.4 Q 13.91 -34.4 16.18 -34.48 Q 18.45 -34.56 19.69 -34.56 L 19.69 -34.56 Q 21.07 -34.56 22.72 -34.45 L 22.72 -34.45 L 22.88 -34.45 Q 23.66 -34.49 23.87 -34.49 L 23.87 -34.49 Q 26.12 -34.49 28.14 -33.74 Q 30.16 -32.98 31.73 -31.58 Q 33.3 -30.18 34.22 -27.98 Q 35.14 -25.77 35.14 -23.06 L 35.14 -23.06 Q 35.14 -21.07 34.65 -19.42 Q 34.17 -17.76 33.41 -16.6 Q 32.66 -15.44 31.51 -14.53 Q 30.36 -13.61 29.23 -13.06 Q 28.09 -12.51 26.67 -12.11 Q 25.24 -11.7 24.11 -11.51 Q 22.97 -11.31 21.66 -11.2 L 21.66 -11.2 L 21.69 -11.2 L 16.73 -10.99 Q 16.5 -5.48 16.5 -2.43 L 16.5 -2.43 Q 16.5 -2.29 16.51 -2.07 Q 16.52 -1.84 16.52 -1.72 L 16.52 -1.72 L 16.52 0.14 Q 16.43 0.46 16.18 0.57 L 16.18 0.57 L 3.08 0.78 Q 2.69 -0.32 2.69 -2.75 Z M 15.97 -20.84 L 15.93 -19.12 L 16 -17.74 Q 17.4 -17.76 18.58 -18.03 Q 19.76 -18.29 20.83 -18.86 Q 21.89 -19.44 22.5 -20.52 Q 23.11 -21.6 23.11 -23.11 L 23.11 -23.11 Q 23.11 -24.4 22.77 -25.01 L 22.77 -25.01 L 22.77 -24.99 Q 22.49 -25.75 21.94 -26.27 Q 21.39 -26.78 20.83 -27.03 Q 20.26 -27.29 19.36 -27.42 Q 18.45 -27.56 17.89 -27.58 Q 17.33 -27.61 16.32 -27.61 L 16.32 -27.61 Q 16.04 -27.61 15.97 -20.84 L 15.97 -20.84 Z M 44.76 -31.05 L 44.76 -31.05 Q 44.76 -33.96 45.24 -34.84 L 45.24 -34.84 Q 45.7 -34.81 46.5 -34.81 L 46.5 -34.81 L 47.6 -34.81 Q 48.24 -34.81 49.52 -34.84 Q 50.79 -34.86 51.46 -34.86 L 51.46 -34.86 Q 58.04 -34.86 58.71 -34.03 L 58.71 -34.03 Q 58.71 -32.73 58.62 -30.09 Q 58.53 -27.45 58.53 -26.02 L 58.53 -26.02 L 58.46 -19.3 Q 58.46 -19.25 58.44 -19.16 Q 58.43 -19.07 58.43 -19.02 L 58.43 -19.02 L 58.34 -9.48 L 59.26 -8.95 Q 63.41 -9.2 68.71 -9.2 L 68.71 -9.2 Q 71.19 -9.2 71.24 -8.81 L 71.24 -8.81 L 71.22 -8.72 Q 71.08 -8.31 71.08 -7.44 L 71.08 -7.44 L 71.08 -6.91 Q 71.08 -5.69 71.24 -5.16 L 71.24 -5.16 Q 71.24 -1.63 71.22 0.25 L 71.22 0.25 L 71.22 0.18 Q 71.08 0.78 48.57 0.78 L 48.57 0.78 Q 47.53 0.78 45.15 0.73 L 45.15 0.73 Q 44.78 0.05 44.78 -1.54 L 44.78 -1.54 Q 44.78 -1.77 44.8 -2.27 Q 44.82 -2.78 44.82 -3.03 L 44.82 -3.03 L 44.82 -8.24 Q 44.82 -8.72 44.84 -10.22 Q 44.85 -11.73 44.85 -12.6 L 44.85 -12.6 L 44.85 -16.91 Q 44.85 -18.04 44.86 -20.36 Q 44.87 -22.67 44.87 -23.87 L 44.87 -23.87 Q 44.87 -25.79 44.82 -27.49 L 44.82 -27.49 L 44.82 -27.75 Q 44.82 -28.2 44.79 -29.33 Q 44.76 -30.45 44.76 -31.05 Z M 77.3 0.39 L 77.3 0.39 Q 77.97 -1.9 78.84 -4.75 Q 79.71 -7.6 80.25 -9.26 Q 80.79 -10.92 82 -14.63 Q 83.2 -18.34 83.52 -19.3 L 83.52 -19.3 L 84.05 -20.93 L 84.03 -20.93 L 84.65 -22.83 Q 84.94 -23.75 86.36 -27.93 Q 87.77 -32.11 88.43 -34.38 L 88.43 -34.38 Q 88.48 -34.54 88.55 -34.58 L 88.55 -34.58 L 92.36 -34.58 Q 93.73 -34.58 96.45 -34.64 Q 99.17 -34.7 100.5 -34.7 L 100.5 -34.7 L 102.71 -34.58 Q 102.89 -34.58 103.52 -34.64 Q 104.15 -34.7 104.52 -34.7 L 104.52 -34.7 Q 105.9 -34.7 105.9 -34.15 L 105.9 -34.15 Q 108.19 -27.75 112.02 -15.72 Q 115.86 -3.69 116.34 -2.2 L 116.34 -2.2 L 116.66 -1.06 Q 116.82 -0.44 117.12 0.25 L 117.12 0.25 Q 117.1 0.46 116.79 0.5 Q 116.48 0.55 115.54 0.55 L 115.54 0.55 Q 115.26 0.55 115.1 0.55 L 115.1 0.55 L 113.75 0.55 Q 113.49 0.55 113.02 0.56 Q 112.55 0.57 112.32 0.57 L 112.32 0.57 L 110.92 0.57 Q 110.56 0.57 109.81 0.59 Q 109.06 0.6 108.7 0.6 L 108.7 0.6 Q 105.32 0.6 103.12 0.44 L 103.12 0.44 L 103.17 0.44 Q 103.1 0.41 103.01 0.16 L 103.01 0.16 L 102.89 -0.32 Q 102.8 -1.35 102.43 -2.8 Q 102.06 -4.25 101.81 -4.89 L 101.81 -4.89 L 91.99 -4.8 Q 91.9 -4.41 91.39 -2.48 Q 90.89 -0.55 90.64 0.44 L 90.64 0.44 Q 90.41 0.67 88.46 0.67 L 88.46 0.67 Q 88.36 0.67 88.17 0.65 Q 87.97 0.64 87.88 0.64 L 87.88 0.64 L 86.55 0.64 Q 85.56 0.64 83.57 0.71 Q 81.57 0.78 80.58 0.78 L 80.58 0.78 L 79.9 0.78 Q 79.76 0.78 79.55 0.79 Q 79.34 0.8 79.25 0.8 L 79.25 0.8 L 77.65 0.8 Q 77.49 0.64 77.3 0.39 Z M 93.3 -13.79 L 93.05 -12.28 L 94.4 -12.28 Q 94.51 -12.28 94.82 -12.27 Q 95.13 -12.25 95.34 -12.25 L 95.34 -12.25 L 100.83 -12.28 Q 100.48 -15.01 100.3 -16.29 L 100.3 -16.29 L 99.43 -20.22 Q 98.09 -26.09 98.05 -26.3 L 98.05 -26.3 L 97.96 -26.51 Q 97.96 -26.53 97.92 -26.63 Q 97.89 -26.74 97.86 -26.77 Q 97.84 -26.8 97.81 -26.9 Q 97.77 -26.99 97.74 -27.02 Q 97.7 -27.06 97.66 -27.14 Q 97.61 -27.22 97.55 -27.26 Q 97.5 -27.31 97.41 -27.38 Q 97.31 -27.45 97.21 -27.5 Q 97.11 -27.56 96.99 -27.61 L 96.99 -27.61 Q 96.37 -27.47 93.3 -13.79 L 93.3 -13.79 Z M 124.9 -0.3 L 124.9 -0.3 L 124.9 -0.71 Q 124.9 -0.78 124.91 -0.94 Q 124.93 -1.1 124.93 -1.17 L 124.93 -1.17 L 125.04 -10.12 Q 125.04 -24.85 125.32 -32.4 L 125.32 -32.4 L 125.36 -34.31 Q 125.36 -34.52 141.17 -34.68 L 141.17 -34.68 Q 141.31 -34.58 141.59 -33.67 L 141.59 -33.67 L 141.59 -33.74 L 141.73 -33.28 Q 143.42 -28.41 146.25 -21.09 L 146.25 -21.09 L 146.25 -21.11 Q 148.29 -15.81 148.33 -15.67 L 148.33 -15.67 L 149.11 -15.72 Q 149.11 -18.91 149.16 -25.23 Q 149.21 -31.56 149.21 -34.42 L 149.21 -34.42 Q 149.21 -34.61 152.56 -34.61 L 152.56 -34.61 Q 153.7 -34.61 155.74 -34.55 Q 157.77 -34.49 158.32 -34.49 L 158.32 -34.49 L 160.02 -34.49 Q 160.18 -26.9 160.18 -16.06 L 160.18 -16.06 Q 160.18 -15.81 160.16 -15.31 Q 160.15 -14.8 160.15 -14.53 L 160.15 -14.53 L 160.15 -6.61 L 160.15 -6.04 Q 160.15 -5.42 160.18 -3.99 Q 160.2 -2.57 160.2 -2 L 160.2 -2 L 160.2 -0.85 Q 160.2 -0.62 160.21 -0.25 Q 160.22 0.11 160.22 0.23 L 160.22 0.23 Q 160.08 0.41 159.1 0.41 L 159.1 0.41 L 158.5 0.41 Q 157.19 0.41 154.81 0.46 Q 152.42 0.5 151.3 0.5 L 151.3 0.5 Q 146.71 0.5 144.46 0.48 L 144.46 0.48 Q 144.11 0.11 141.95 -6.2 L 141.95 -6.2 L 137.57 -17.83 L 136.75 -17.72 Q 136.75 -17.37 136.73 -16.56 Q 136.72 -15.74 136.72 -15.38 L 136.72 -15.38 L 136.72 -9.16 Q 136.72 -8.08 136.77 -5.99 Q 136.81 -3.9 136.81 -2.94 L 136.81 -2.94 L 136.81 -0.37 Q 136.81 0 136.8 0.15 Q 136.79 0.3 136.69 0.49 Q 136.58 0.69 136.36 0.71 L 136.36 0.71 Q 134.08 0.64 132.02 0.64 L 132.02 0.64 L 131.31 0.64 Q 130.78 0.64 129.54 0.69 Q 128.3 0.73 127.84 0.73 L 127.84 0.73 L 127.38 0.73 Q 127.15 0.73 126.58 0.76 Q 126 0.78 125.73 0.78 L 125.73 0.78 L 125.66 0.73 Q 124.9 0.02 124.9 -0.3 Z M 195.99 0.53 L 195.99 0.53 Q 195.99 0.5 196.08 0.14 L 196.08 0.14 L 196.08 0 L 196.08 -0.05 Q 196.1 -0.07 196.1 -0.09 L 196.1 -0.09 Q 195.99 -1.74 195.99 -4.11 L 195.99 -4.11 Q 196.03 -9.04 196.04 -17.96 Q 196.06 -26.87 196.08 -29.74 L 196.08 -29.74 Q 196.08 -29.95 196.07 -30.35 Q 196.06 -30.75 196.06 -30.94 L 196.06 -30.94 L 196.06 -32.08 Q 196.06 -32.43 196.03 -33.15 Q 196.01 -33.87 196.01 -34.24 L 196.01 -34.24 Q 196.01 -34.47 196.26 -34.75 L 196.26 -34.75 L 199.41 -34.75 Q 199.66 -34.75 200.27 -34.75 Q 200.87 -34.75 201.24 -34.75 L 201.24 -34.75 Q 207.71 -34.75 210.5 -34.56 Q 213.29 -34.38 214.51 -34.38 L 214.51 -34.38 Q 215.17 -30.43 216.48 -23.91 L 216.48 -23.91 L 218.11 -15.7 L 218.91 -15.7 L 221.83 -30.59 L 221.85 -30.71 Q 221.87 -30.82 221.87 -30.94 L 221.87 -30.94 L 221.94 -31.3 Q 222.01 -31.67 222.14 -32.52 Q 222.26 -33.37 222.37 -33.91 Q 222.47 -34.45 222.56 -34.56 L 222.56 -34.56 L 222.65 -34.56 Q 225.25 -34.56 230.18 -34.63 Q 235.11 -34.7 237.59 -34.7 L 237.59 -34.7 Q 237.73 -34.7 238.03 -34.69 Q 238.33 -34.68 238.49 -34.68 L 238.49 -34.68 L 241.06 -34.68 Q 241.27 -34.58 241.29 -33.83 L 241.29 -33.83 L 241.52 -25.15 Q 241.79 -14.37 241.91 -8.35 L 241.91 -8.35 Q 241.91 -3.72 241.77 0.34 L 241.77 0.34 Q 241.7 0.62 240.85 0.67 L 240.85 0.67 L 239.82 0.71 Q 238.58 0.76 237.98 0.76 L 237.98 0.76 L 236.79 0.76 Q 234.56 0.78 230.23 0.78 L 230.23 0.78 Q 229.86 0.46 229.68 -0.63 Q 229.49 -1.72 229.46 -2.7 Q 229.42 -3.67 229.42 -5.37 L 229.42 -5.37 Q 229.42 -6.95 229.45 -9.31 Q 229.47 -11.66 229.47 -12.58 L 229.47 -12.58 L 229.47 -14.44 Q 229.47 -16.89 229.45 -18.06 L 229.45 -18.06 L 228.57 -18.22 Q 227.82 -15.44 225.66 -5.85 L 225.66 -5.85 L 225.45 -4.93 Q 225.29 -4.22 224.91 -2.4 Q 224.54 -0.57 224.31 0.37 L 224.31 0.37 Q 224.03 0.69 221.87 0.69 L 221.87 0.69 L 221.57 0.69 Q 221.14 0.69 220.28 0.65 Q 219.42 0.62 219 0.62 L 219 0.62 Q 218.77 0.62 218.29 0.63 Q 217.81 0.64 217.6 0.64 L 217.6 0.64 L 216.53 0.64 Q 216.25 0.64 215.64 0.65 Q 215.03 0.67 214.71 0.67 L 214.71 0.67 Q 214.64 0.67 214.47 0.67 Q 214.3 0.67 214.21 0.67 Q 214.12 0.67 213.97 0.67 Q 213.82 0.67 213.73 0.65 Q 213.63 0.64 213.51 0.62 Q 213.38 0.6 213.3 0.56 Q 213.22 0.53 213.13 0.47 Q 213.04 0.41 212.98 0.34 Q 212.92 0.28 212.9 0.18 L 212.9 0.18 L 212.92 0.21 L 210.83 -8.9 Q 210.74 -9.25 210.54 -9.98 Q 210.33 -10.72 210.2 -11.28 Q 210.08 -11.84 210.05 -12.35 L 210.05 -12.35 L 208.33 -19.78 L 207.48 -19.74 Q 207.21 -13.24 207.21 -7.94 L 207.21 -7.94 Q 207.21 -1.95 207.23 0.41 L 207.23 0.41 Q 207.23 0.46 207.21 0.46 L 207.21 0.46 L 205.53 0.46 Q 205.44 0.46 205.26 0.45 Q 205.07 0.44 204.96 0.44 L 204.96 0.44 Q 203.58 0.44 200.87 0.47 Q 198.17 0.5 196.81 0.5 L 196.81 0.5 Q 196.03 0.5 195.99 0.53 Z M 249.62 -34.45 L 249.62 -34.45 Q 249.62 -34.56 250.36 -34.56 L 250.36 -34.56 L 256.26 -34.56 Q 261.14 -34.56 263.62 -34.49 L 263.62 -34.49 Q 264.01 -34.42 265.18 -30.88 Q 266.35 -27.33 267.45 -23.45 L 267.45 -23.45 L 268.49 -19.81 Q 269.29 -21.94 270.15 -24.44 Q 271.01 -26.94 272.12 -30.4 Q 273.24 -33.85 273.42 -34.45 L 273.42 -34.45 Q 273.44 -34.63 276.82 -34.63 L 276.82 -34.63 L 279.76 -34.63 Q 280.81 -34.63 281.52 -34.58 L 281.52 -34.58 L 285.49 -34.58 Q 285.63 -34.58 285.88 -34.6 Q 286.14 -34.61 286.25 -34.61 L 286.25 -34.61 Q 286.48 -34.49 286.59 -34.03 L 286.59 -34.03 L 285.91 -32.68 L 285.91 -32.7 L 284.41 -29.83 Q 281.02 -23.57 280.05 -21.48 L 280.05 -21.48 L 280.05 -21.5 L 279.27 -20.01 Q 278.01 -17.58 274.98 -11.43 L 274.98 -11.43 Q 274.94 -10.65 274.94 -9.09 L 274.94 -9.09 L 274.94 0.39 Q 274.82 0.76 274.48 0.76 L 274.48 0.76 Q 272.21 0.76 267.88 0.8 Q 263.55 0.85 261.33 0.85 L 261.33 0.85 Q 260.82 0.21 260.82 -0.62 L 260.82 -0.62 Q 260.82 -1.1 260.85 -2.07 Q 260.87 -3.03 260.87 -3.49 L 260.87 -3.49 L 260.87 -4.15 Q 260.87 -4.29 260.88 -4.51 Q 260.89 -4.73 260.89 -4.84 L 260.89 -4.84 L 260.91 -6.52 Q 260.91 -8.42 260.62 -10.18 Q 260.32 -11.93 259.64 -13.79 Q 258.96 -15.65 258.45 -16.8 Q 257.93 -17.95 256.92 -20.03 L 256.92 -20.03 L 253.5 -26.87 Q 253.36 -27.13 252.72 -28.38 Q 252.08 -29.63 251.6 -30.5 L 251.6 -30.5 L 251.46 -30.75 L 251.46 -30.73 Q 249.62 -33.53 249.62 -34.45 Z M 318.23 -2.8 L 318.23 -2.8 Q 318.23 -3.72 318.3 -5.45 Q 318.37 -7.18 318.37 -7.87 L 318.37 -7.87 Q 318.37 -11.02 318.41 -14.57 Q 318.46 -18.13 318.51 -22.21 Q 318.57 -26.3 318.59 -28.43 L 318.59 -28.43 L 318.59 -29.54 Q 318.62 -29.88 318.62 -31.11 Q 318.62 -32.34 318.68 -33.29 Q 318.73 -34.24 318.87 -34.54 L 318.87 -34.54 L 318.98 -34.54 Q 320.5 -34.49 321.21 -34.49 L 321.21 -34.49 L 323.78 -34.49 Q 324.26 -34.49 325.23 -34.52 Q 326.19 -34.54 326.56 -34.54 L 326.56 -34.54 L 327.43 -34.54 Q 329.56 -34.54 330.61 -34.31 Q 331.65 -34.08 331.97 -33.63 Q 332.3 -33.18 332.3 -32.24 L 332.3 -32.24 Q 332.3 -31.88 332.26 -30.92 Q 332.23 -29.97 332.23 -29.38 L 332.23 -29.38 L 332.23 -28.3 Q 332.23 -27.68 332.16 -26.14 Q 332.09 -24.6 332.09 -23.75 L 332.09 -23.75 Q 332.09 -23.25 332.16 -22.42 L 332.16 -22.42 L 333.58 -22.42 Q 333.67 -22.42 333.86 -22.41 Q 334.04 -22.4 334.15 -22.4 L 334.15 -22.4 L 335.99 -22.4 Q 337 -22.4 338.06 -22.56 L 338.06 -22.56 L 338.06 -28 Q 338.06 -28.27 338.07 -28.84 Q 338.08 -29.4 338.08 -29.7 L 338.08 -29.7 L 338.08 -31.28 Q 338.08 -31.35 338.07 -31.46 Q 338.06 -31.58 338.06 -31.65 L 338.06 -31.65 L 338.06 -32.82 Q 338.06 -34.17 338.18 -34.47 Q 338.31 -34.77 338.84 -34.77 L 338.84 -34.77 Q 338.93 -34.77 339.07 -34.76 Q 339.2 -34.75 339.3 -34.75 L 339.3 -34.75 L 340.79 -34.75 Q 341.27 -34.75 341.66 -34.77 L 341.66 -34.77 L 341.64 -34.77 Q 344 -34.88 345.74 -34.88 L 345.74 -34.88 Q 351.66 -34.88 351.66 -33.94 L 351.66 -33.94 L 351.66 -32.31 Q 351.66 -32.22 351.68 -32.03 Q 351.69 -31.83 351.69 -31.76 L 351.69 -31.76 Q 351.69 -31.58 351.68 -31.17 Q 351.66 -30.75 351.66 -30.57 L 351.66 -30.57 L 351.66 -27.01 Q 351.66 -24.46 351.72 -19.61 Q 351.78 -14.76 351.78 -12.37 L 351.78 -12.37 Q 351.78 -12 351.73 -11.41 L 351.73 -11.41 L 351.73 -10.3 Q 351.73 -9.57 351.78 -8.38 L 351.78 -8.38 L 351.78 -7.85 Q 351.78 -7.44 351.76 -7.25 L 351.76 -7.25 Q 351.76 -4.31 351.8 0.32 L 351.8 0.32 Q 351.48 0.76 347.79 0.76 L 347.79 0.76 Q 341.93 0.76 338.17 0.62 L 338.17 0.62 Q 338.12 0.57 337.73 0.05 L 337.73 0.05 L 337.73 -3.63 Q 337.73 -5 337.76 -7.24 Q 337.78 -9.48 337.78 -10.67 L 337.78 -10.67 Q 337.78 -11.7 337.55 -11.89 Q 337.32 -12.07 336.15 -12.07 L 336.15 -12.07 L 335.83 -12.07 Q 333.65 -12.07 332.39 -11.86 L 332.39 -11.86 L 332.39 -8.65 Q 332.39 -6.88 332.36 -4.06 Q 332.34 -1.24 332.34 0.23 L 332.34 0.23 Q 332 0.6 326.58 0.6 L 326.58 0.6 L 325.48 0.6 Q 320.75 0.6 318.62 0.46 L 318.62 0.46 L 318.66 0.46 Q 318.23 0.32 318.23 -2.8 Z M 363.17 0.46 L 363.17 0.46 Q 363.17 0.39 363.18 0.28 Q 363.19 0.16 363.19 0.07 L 363.19 0.07 L 363.26 -2.46 Q 363.26 -2.89 363.27 -4.43 Q 363.28 -5.97 363.33 -6.95 Q 363.37 -7.94 363.51 -8.93 L 363.51 -8.93 Q 363.51 -18.91 363.79 -29.05 L 363.79 -29.05 Q 363.72 -30.5 363.72 -31.97 L 363.72 -31.97 L 363.72 -32.73 Q 363.63 -33.44 363.63 -34.38 L 363.63 -34.38 Q 363.63 -34.54 363.74 -34.7 L 363.74 -34.7 Q 368.65 -34.4 373.84 -34.4 L 373.84 -34.4 Q 376.04 -34.4 377.42 -34.54 L 377.42 -34.54 Q 377.46 -34.47 377.49 -34.15 L 377.49 -34.15 L 377.33 -34.15 L 377.33 -27.17 L 377.33 -25.84 Q 377.33 -22.63 377.41 -16.45 Q 377.49 -10.28 377.49 -7.16 L 377.49 -7.16 Q 377.49 -6.95 377.56 -6.82 L 377.56 -6.82 L 377.56 -6.77 Q 377.62 -6.63 377.62 -6.47 L 377.62 -6.47 Q 377.62 -5.83 377.67 -4.61 Q 377.72 -3.4 377.72 -3.1 L 377.72 -3.1 L 377.81 0.21 Q 377.69 0.46 377.4 0.6 L 377.4 0.6 L 376.62 0.6 Q 374.34 0.6 370.07 0.7 Q 365.81 0.8 363.76 0.8 L 363.76 0.8 Q 363.53 0.69 363.17 0.46 Z M 389.86 0.28 L 389.79 0.21 L 389.79 -3.28 Q 389.79 -3.95 389.82 -5.12 Q 389.84 -6.29 389.84 -6.88 L 389.84 -6.88 L 389.84 -19.85 L 389.91 -31.21 Q 389.91 -31.51 389.87 -32.21 Q 389.84 -32.91 389.84 -33.18 L 389.84 -33.18 Q 389.84 -34.45 390.09 -34.75 L 390.09 -34.75 Q 390.71 -34.77 391.72 -34.77 L 391.72 -34.77 Q 394.18 -34.77 395.44 -34.75 L 395.44 -34.75 L 398.67 -34.7 Q 399.57 -34.77 400.51 -34.77 L 400.51 -34.77 Q 402.97 -34.77 403.42 -34.31 L 403.42 -34.31 Q 403.31 -28.71 403.31 -21 L 403.31 -21 L 404.11 -20.86 Q 404.46 -21.76 405.36 -23.55 Q 406.27 -25.34 406.41 -25.63 L 406.41 -25.63 L 406.66 -26.19 Q 406.75 -26.39 407.5 -27.96 Q 408.24 -29.54 408.63 -30.5 L 408.63 -30.5 Q 409.8 -33.46 410.7 -34.58 L 410.7 -34.58 Q 412.31 -34.61 415.29 -34.61 L 415.29 -34.61 Q 416.92 -34.61 419.99 -34.53 Q 423.07 -34.45 424.61 -34.45 L 424.61 -34.45 Q 418.07 -22.63 415.31 -18.08 L 415.31 -18.08 L 415.84 -17.23 Q 416.32 -16.64 416.83 -15.86 L 416.83 -15.86 Q 418.09 -13.79 420.6 -9.42 Q 423.11 -5.05 424.54 -2.73 L 424.54 -2.73 L 425.09 -1.84 Q 426.1 -0.16 426.1 0.18 L 426.1 0.18 Q 426.1 0.3 425.96 0.48 L 425.96 0.48 L 425.82 0.48 Q 424.54 0.44 423.92 0.44 L 423.92 0.44 Q 422.95 0.44 421.67 0.48 L 421.67 0.48 L 411.36 0.48 Q 407.83 -6.13 404.02 -13.86 L 404.02 -13.86 Q 403.84 -12.03 403.47 -5.19 L 403.47 -5.19 L 403.47 -4.89 Q 403.47 -4.36 403.49 -2.38 Q 403.52 -0.39 403.52 0.32 L 403.52 0.32 Q 403.24 0.73 401.11 0.73 L 401.11 0.73 Q 401.04 0.73 400.88 0.72 Q 400.72 0.71 400.62 0.71 L 400.62 0.71 L 399.39 0.71 Q 398.21 0.71 395.94 0.73 Q 393.67 0.76 392.89 0.76 L 392.89 0.76 L 390.78 0.76 Q 390.34 0.76 390.18 0.65 Q 390.02 0.55 389.86 0.28 L 389.86 0.28 Z M 434.55 0.25 L 434.55 0.25 L 434.55 -0.55 Q 434.55 -4.87 434.62 -13.12 Q 434.69 -21.37 434.69 -25.08 L 434.69 -25.08 L 434.71 -28.41 Q 434.71 -29.15 434.67 -30.61 Q 434.64 -32.08 434.62 -33.2 Q 434.59 -34.31 434.59 -34.45 L 434.59 -34.45 Q 434.62 -34.45 434.75 -34.38 L 434.75 -34.38 Q 452.2 -34.68 461.03 -34.7 L 461.03 -34.7 Q 461.12 -34.65 461.17 -34.56 L 461.17 -34.56 L 461.17 -28.09 Q 461.17 -27.93 461.16 -27.39 Q 461.15 -26.85 461.12 -26.55 L 461.12 -26.55 Q 461.01 -26.19 459.77 -26.19 L 459.77 -26.19 L 459.61 -26.19 Q 454.05 -26.19 448.04 -26.37 L 448.04 -26.37 Q 448.04 -26.16 447.98 -25.63 Q 447.93 -25.11 447.9 -24.88 L 447.9 -24.88 L 447.79 -24 Q 447.68 -23.13 447.63 -20.98 L 447.63 -20.98 L 454.74 -21.14 Q 456.58 -21.18 457.41 -21.18 L 457.41 -21.18 L 457.77 -21.18 Q 459.17 -21.18 459.61 -21.1 Q 460.04 -21.02 460.04 -20.63 L 460.04 -20.63 Q 460.04 -20.59 460.03 -20.53 Q 460.02 -20.47 460.02 -20.45 L 460.02 -20.45 L 460.02 -19.9 Q 460.02 -18.68 460.08 -16.87 Q 460.14 -15.05 460.14 -14 L 460.14 -14 L 460.11 -13.98 L 460.11 -14 Q 453.14 -13.65 448.96 -13.65 L 448.96 -13.65 L 447.88 -13.65 L 447.88 -8.1 Q 450.04 -8.1 454.15 -8.3 Q 458.25 -8.49 460.34 -8.49 L 460.34 -8.49 Q 461.38 -8.49 461.65 -8.19 L 461.65 -8.19 Q 461.63 -7.6 461.63 -6.49 L 461.63 -6.49 Q 461.63 -3.19 461.74 -2.2 L 461.74 -2.2 L 461.74 -2.23 Q 461.79 -0.99 461.79 -0.25 L 461.79 -0.25 Q 461.79 0.32 461.28 0.41 L 461.28 0.41 Q 460 0.41 457.47 0.38 Q 454.95 0.34 453.66 0.34 L 453.66 0.34 Q 451.42 0.34 444.71 0.5 L 444.71 0.5 L 440.95 0.6 Q 440.29 0.62 439.08 0.65 Q 437.88 0.69 436.89 0.71 Q 435.9 0.73 435.03 0.73 L 435.03 0.73 L 434.96 0.69 L 434.98 0.69 Q 434.94 0.64 434.86 0.56 Q 434.78 0.48 434.69 0.39 Q 434.59 0.3 434.55 0.25 Z M 470.33 -9.5 L 470.33 -9.5 Q 470.4 -9.48 470.54 -9.48 L 470.54 -9.48 Q 472.63 -9.48 476.63 -9.58 Q 480.63 -9.68 482.68 -9.68 L 482.68 -9.68 Q 482.98 -9.68 483.18 -9.36 Q 483.39 -9.04 483.57 -8.58 Q 483.76 -8.12 484.05 -7.67 Q 484.35 -7.21 485.03 -6.88 Q 485.71 -6.56 486.69 -6.56 L 486.69 -6.56 Q 488.05 -6.56 489.06 -7.33 Q 490.07 -8.1 490.07 -9.46 L 490.07 -9.46 Q 490.07 -9.96 489.87 -10.38 Q 489.68 -10.81 489.25 -11.12 Q 488.83 -11.43 488.45 -11.65 Q 488.07 -11.86 487.38 -12.06 Q 486.69 -12.25 486.3 -12.36 Q 485.91 -12.46 485.13 -12.62 L 485.13 -12.62 L 485.16 -12.62 Q 485.06 -12.65 484.78 -12.69 Q 484.49 -12.74 484.35 -12.78 L 484.35 -12.78 L 484.4 -12.78 L 483.09 -13.13 Q 481.83 -13.36 480.98 -13.63 L 480.98 -13.63 Q 475.49 -15.1 473.05 -17.33 Q 470.61 -19.55 470.61 -23.32 L 470.61 -23.32 Q 470.61 -26.05 471.62 -28.23 Q 472.63 -30.41 474.25 -31.78 Q 475.88 -33.16 478.09 -34.08 Q 480.29 -35 482.55 -35.38 Q 484.81 -35.75 487.24 -35.75 L 487.24 -35.75 Q 493.83 -35.75 497.59 -33.37 L 497.59 -33.37 L 497.57 -33.37 Q 499.98 -31.62 500.88 -29.94 Q 501.77 -28.25 502 -25.77 L 502 -25.77 L 501.4 -25.18 Q 495.37 -24.95 490.71 -24.95 L 490.71 -24.95 Q 489.93 -24.95 489.54 -25.19 Q 489.15 -25.43 489.03 -25.77 Q 488.92 -26.12 488.78 -26.46 Q 488.64 -26.8 488.15 -27.05 Q 487.66 -27.29 486.72 -27.29 L 486.72 -27.29 L 486.62 -27.29 Q 486.17 -27.29 485.49 -27.14 Q 484.81 -26.99 484.08 -26.51 Q 483.34 -26.02 483.32 -25.29 L 483.32 -25.29 Q 483.32 -24.83 483.58 -24.44 Q 483.85 -24.05 484.15 -23.82 Q 484.44 -23.59 485.06 -23.35 Q 485.68 -23.11 485.99 -23.03 Q 486.3 -22.95 486.97 -22.77 L 486.97 -22.77 L 487.77 -22.56 Q 488.25 -22.42 490.58 -21.87 Q 492.91 -21.32 494.47 -20.81 L 494.47 -20.81 L 494.47 -20.84 Q 495.96 -20.33 497.14 -19.77 Q 498.31 -19.21 499.43 -18.37 Q 500.55 -17.53 501.29 -16.51 Q 502.02 -15.49 502.47 -14.08 Q 502.92 -12.67 502.92 -10.97 L 502.92 -10.97 Q 502.92 -8.95 502.34 -7.25 Q 501.77 -5.55 500.83 -4.36 Q 499.89 -3.17 498.49 -2.21 Q 497.09 -1.26 495.68 -0.67 Q 494.27 -0.07 492.46 0.38 Q 490.66 0.83 489.21 1.06 Q 487.75 1.29 486 1.45 L 486 1.45 Q 483.99 1.45 481.93 1.16 Q 479.88 0.87 477.89 0.28 Q 475.91 -0.32 474.36 -1.39 Q 472.81 -2.46 472.12 -3.83 L 472.12 -3.83 Q 471.18 -5.19 470.86 -6.32 Q 470.54 -7.46 470.33 -9.5 Z" stroke-linecap="round" />
</g>
</g>
</g>
<g transform="matrix(1.9211538461538462 0 0 1.9211538461538462 641.6111238919772 811.0815041158794)" id="tagline-c7b045f4-c8bc-495d-8e4a-0ace0c2e3495-logo-path-group"  >
<g style=""  paint-order="stroke"   >
		<g transform="matrix(1 0 0 1 0 0)" id="tagline-c7b045f4-c8bc-495d-8e4a-0ace0c2e3495-logo-path-0"  >
<path style="stroke: none; stroke-width: 0; stroke-dasharray: none; stroke-linecap: butt; stroke-dashoffset: 0; stroke-linejoin: miter; stroke-miterlimit: 4; fill: rgb(149,134,105); fill-rule: nonzero; opacity: 1;"  paint-order="stroke"  transform=" translate(-204.68500000000003, 6.82)" d="M 1.27 -2.22 L 1.27 -2.22 Q 1.27 -2.55 1.31 -3.27 Q 1.35 -3.98 1.43 -4.95 Q 1.5 -5.92 1.59 -7.07 Q 1.67 -8.23 1.77 -9.42 L 1.77 -9.42 Q 1.89 -10.9 1.98 -11.96 Q 2.08 -13.02 2.12 -13.79 Q 2.17 -14.55 2.21 -15.06 Q 2.25 -15.58 2.26 -15.96 Q 2.27 -16.35 2.28 -16.67 Q 2.29 -17 2.29 -17.37 L 2.29 -17.37 Q 2.29 -17.57 2.42 -17.66 Q 2.55 -17.75 2.67 -17.75 L 2.67 -17.75 Q 3.32 -17.75 4.1 -17.79 Q 4.87 -17.82 5.65 -17.87 Q 6.42 -17.92 7.15 -17.96 Q 7.87 -18.01 8.42 -18.01 L 8.42 -18.01 Q 10.02 -18.01 11.18 -17.61 Q 12.33 -17.22 13.04 -16.49 Q 13.75 -15.75 14.09 -14.7 Q 14.43 -13.65 14.43 -12.3 L 14.43 -12.3 Q 14.43 -10.83 14.04 -9.47 Q 13.65 -8.11 12.82 -7.06 Q 12 -6.01 10.7 -5.38 Q 9.4 -4.75 7.6 -4.75 L 7.6 -4.75 Q 6.53 -4.75 5.77 -4.98 L 5.77 -4.98 L 5.42 -0.38 Q 5.4 -0.18 5.32 -0.09 Q 5.25 0 5.03 0 L 5.03 0 L 3.87 0 Q 2.44 0 1.86 -0.56 Q 1.27 -1.12 1.27 -2.22 Z M 6.03 -8.42 L 6.03 -8.42 Q 6.41 -8.33 6.77 -8.29 Q 7.13 -8.25 7.42 -8.25 L 7.42 -8.25 Q 8.3 -8.25 8.84 -8.66 Q 9.38 -9.07 9.67 -9.67 Q 9.97 -10.28 10.08 -10.93 Q 10.18 -11.57 10.18 -12.05 L 10.18 -12.05 Q 10.18 -13.12 9.69 -13.68 Q 9.19 -14.25 7.92 -14.25 L 7.92 -14.25 Q 7.59 -14.25 7.2 -14.21 Q 6.8 -14.17 6.35 -14.12 L 6.35 -14.12 Q 6.3 -13.07 6.23 -11.57 Q 6.15 -10.07 6.03 -8.42 Z M 25.04 -6.01 L 25.04 -6.01 Q 25.04 -7.51 25.41 -8.94 Q 25.77 -10.38 26.65 -11.5 Q 27.52 -12.62 28.96 -13.31 Q 30.4 -14 32.55 -14 L 32.55 -14 Q 35.7 -14 37.06 -12.46 Q 38.42 -10.93 38.42 -8.15 L 38.42 -8.15 Q 38.42 -7.39 38.31 -6.45 Q 38.2 -5.51 37.88 -4.58 Q 37.57 -3.65 37.03 -2.78 Q 36.49 -1.9 35.67 -1.23 Q 34.84 -0.55 33.69 -0.15 Q 32.53 0.24 30.95 0.24 L 30.95 0.24 Q 29.23 0.24 28.09 -0.24 Q 26.95 -0.72 26.27 -1.57 Q 25.59 -2.43 25.32 -3.56 Q 25.04 -4.7 25.04 -6.01 Z M 29.3 -6.27 L 29.3 -6.27 Q 29.3 -4.63 29.83 -3.85 Q 30.35 -3.08 31.32 -3.08 L 31.32 -3.08 Q 32.2 -3.08 32.76 -3.63 Q 33.32 -4.17 33.63 -4.95 Q 33.94 -5.73 34.06 -6.57 Q 34.17 -7.42 34.17 -8 L 34.17 -8 Q 34.17 -9.24 33.71 -9.95 Q 33.25 -10.67 32.12 -10.67 L 32.12 -10.67 Q 31.17 -10.67 30.61 -10.19 Q 30.05 -9.7 29.76 -9.01 Q 29.47 -8.33 29.39 -7.56 Q 29.3 -6.8 29.3 -6.27 Z M 49.12 -13.17 L 49.12 -13.17 Q 49.12 -13.39 49.35 -13.57 Q 49.57 -13.75 49.91 -13.75 L 49.91 -13.75 Q 50.99 -13.75 51.76 -13.66 Q 52.54 -13.57 53.05 -13.35 Q 53.56 -13.12 53.84 -12.73 Q 54.11 -12.33 54.2 -11.67 L 54.2 -11.67 Q 54.22 -11.32 54.3 -10.25 Q 54.37 -9.18 54.46 -7.81 Q 54.54 -6.45 54.63 -5.05 Q 54.72 -3.65 54.8 -2.67 L 54.8 -2.67 Q 55.1 -4.22 55.29 -5.15 Q 55.47 -6.08 55.59 -6.7 Q 55.71 -7.32 55.8 -7.8 Q 55.9 -8.28 56.02 -8.92 Q 56.14 -9.57 56.3 -10.55 Q 56.47 -11.52 56.76 -13.15 L 56.76 -13.15 Q 56.86 -13.75 58.09 -13.75 L 58.09 -13.75 Q 58.86 -13.75 59.54 -13.7 Q 60.22 -13.65 60.74 -13.46 Q 61.27 -13.27 61.65 -12.91 Q 62.02 -12.55 62.17 -11.93 L 62.17 -11.93 Q 62.22 -11.76 62.26 -11.58 Q 62.29 -11.4 62.34 -11.08 Q 62.39 -10.75 62.45 -10.17 Q 62.51 -9.59 62.6 -8.62 Q 62.69 -7.65 62.82 -6.2 Q 62.95 -4.75 63.15 -2.67 L 63.15 -2.67 Q 63.48 -4.5 63.71 -5.87 Q 63.94 -7.23 64.1 -8.23 Q 64.27 -9.23 64.38 -9.95 Q 64.49 -10.67 64.58 -11.24 Q 64.67 -11.8 64.73 -12.24 Q 64.79 -12.67 64.87 -13.15 L 64.87 -13.15 Q 64.92 -13.43 65.13 -13.57 Q 65.34 -13.72 65.94 -13.72 L 65.94 -13.72 Q 66.27 -13.72 66.86 -13.68 Q 67.44 -13.65 68.02 -13.5 Q 68.59 -13.35 69.01 -13.04 Q 69.42 -12.72 69.42 -12.17 L 69.42 -12.17 Q 69.42 -11.77 69.2 -10.99 Q 68.97 -10.21 68.62 -9.18 Q 68.27 -8.15 67.82 -6.99 Q 67.37 -5.82 66.91 -4.69 Q 66.44 -3.55 66.02 -2.53 Q 65.59 -1.5 65.29 -0.74 L 65.29 -0.74 Q 65.1 -0.29 64.91 -0.15 Q 64.72 0 64.25 0 L 64.25 0 L 62.77 0 Q 62.07 0 61.62 -0.18 Q 61.17 -0.35 60.89 -0.65 Q 60.62 -0.95 60.47 -1.34 Q 60.31 -1.72 60.24 -2.17 L 60.24 -2.17 Q 60 -3.44 59.72 -5.6 Q 59.45 -7.75 59.22 -10.67 L 59.22 -10.67 Q 59.09 -10.12 58.93 -9.2 Q 58.76 -8.28 58.58 -7.2 Q 58.4 -6.13 58.2 -5 Q 58 -3.87 57.82 -2.91 Q 57.64 -1.95 57.49 -1.26 Q 57.35 -0.57 57.24 -0.38 L 57.24 -0.38 Q 57.12 -0.13 56.93 -0.07 Q 56.74 0 56.4 0 L 56.4 0 L 54.64 0 Q 53.99 0 53.53 -0.19 Q 53.06 -0.38 52.73 -0.68 Q 52.39 -0.98 52.18 -1.36 Q 51.96 -1.75 51.87 -2.17 L 51.87 -2.17 Q 50.49 -7.52 49.8 -10.25 Q 49.12 -12.98 49.12 -13.17 Z M 79.89 -5.6 L 79.89 -5.6 Q 79.89 -6.23 79.99 -7.1 Q 80.1 -7.97 80.38 -8.9 Q 80.67 -9.83 81.18 -10.74 Q 81.69 -11.65 82.52 -12.37 Q 83.34 -13.1 84.51 -13.55 Q 85.69 -14 87.32 -14 L 87.32 -14 Q 88.62 -14 89.52 -13.7 Q 90.42 -13.4 90.97 -12.89 Q 91.52 -12.38 91.77 -11.7 Q 92.02 -11.02 92.02 -10.25 L 92.02 -10.25 Q 92.02 -9.11 91.56 -8.3 Q 91.09 -7.5 90.36 -6.96 Q 89.62 -6.42 88.72 -6.12 Q 87.82 -5.82 86.94 -5.66 Q 86.06 -5.51 85.33 -5.46 Q 84.59 -5.42 84.2 -5.42 L 84.2 -5.42 Q 84.2 -4.94 84.33 -4.49 Q 84.47 -4.03 84.74 -3.67 Q 85.02 -3.32 85.47 -3.1 Q 85.92 -2.88 86.57 -2.88 L 86.57 -2.88 Q 87.21 -2.88 87.58 -3.09 Q 87.94 -3.3 88.17 -3.56 Q 88.4 -3.82 88.56 -4.03 Q 88.71 -4.25 88.99 -4.25 L 88.99 -4.25 Q 89.12 -4.25 89.43 -4.19 Q 89.74 -4.13 90.07 -3.92 Q 90.4 -3.72 90.64 -3.38 Q 90.89 -3.03 90.89 -2.48 L 90.89 -2.48 Q 90.89 -1.76 90.44 -1.23 Q 90 -0.7 89.28 -0.37 Q 88.57 -0.05 87.69 0.1 Q 86.82 0.24 85.99 0.24 L 85.99 0.24 Q 84.89 0.24 83.81 -0.03 Q 82.72 -0.31 81.85 -0.98 Q 80.99 -1.65 80.44 -2.77 Q 79.89 -3.89 79.89 -5.6 Z M 84.27 -7.42 L 84.27 -7.42 Q 85.82 -7.45 86.78 -7.95 Q 87.74 -8.45 87.74 -9.38 L 87.74 -9.38 Q 87.74 -9.88 87.43 -10.27 Q 87.11 -10.67 86.47 -10.67 L 86.47 -10.67 Q 85.92 -10.67 85.53 -10.36 Q 85.14 -10.05 84.87 -9.57 Q 84.61 -9.09 84.48 -8.52 Q 84.34 -7.95 84.27 -7.42 Z M 103.16 -2.38 L 103.16 -2.38 Q 103.16 -2.76 103.2 -3.44 Q 103.23 -4.13 103.34 -5.34 Q 103.44 -6.56 103.58 -8.42 Q 103.71 -10.28 103.91 -13.02 L 103.91 -13.02 Q 103.95 -13.75 104.43 -13.75 L 104.43 -13.75 L 105.41 -13.75 Q 106.1 -13.75 106.58 -13.6 Q 107.07 -13.45 107.37 -13.19 Q 107.67 -12.93 107.8 -12.57 Q 107.93 -12.22 107.98 -11.85 L 107.98 -11.85 Q 108.29 -12.43 108.7 -12.84 Q 109.11 -13.24 109.56 -13.51 Q 110.01 -13.77 110.48 -13.89 Q 110.96 -14 111.36 -14 L 111.36 -14 Q 111.84 -14 112.33 -13.82 Q 112.82 -13.65 113.21 -13.3 Q 113.61 -12.95 113.85 -12.4 Q 114.09 -11.85 114.09 -11.1 L 114.09 -11.1 Q 114.09 -10.42 113.88 -9.83 Q 113.68 -9.23 113.31 -8.76 Q 112.94 -8.3 112.4 -8.04 Q 111.85 -7.78 111.21 -7.78 L 111.21 -7.78 Q 111.06 -7.78 110.87 -7.79 Q 110.68 -7.8 110.51 -7.84 Q 110.34 -7.87 110.21 -7.93 Q 110.08 -8 110.08 -8.11 L 110.08 -8.11 Q 110.08 -8.44 110.11 -8.7 Q 110.13 -8.97 110.13 -9.28 L 110.13 -9.28 Q 110.13 -9.83 109.98 -10.17 Q 109.84 -10.52 109.39 -10.52 L 109.39 -10.52 Q 108.69 -10.52 108.23 -9.61 Q 107.76 -8.7 107.64 -6.87 L 107.64 -6.87 Q 107.59 -6.07 107.5 -5.06 Q 107.41 -4.05 107.34 -3.11 Q 107.26 -2.17 107.21 -1.45 Q 107.16 -0.72 107.16 -0.5 L 107.16 -0.5 Q 107.16 -0.26 106.99 -0.13 Q 106.81 0 106.62 0 L 106.62 0 L 105.71 0 Q 104.94 0 104.45 -0.16 Q 103.97 -0.33 103.67 -0.63 Q 103.38 -0.93 103.27 -1.36 Q 103.16 -1.79 103.16 -2.38 Z M 124.39 -5.6 L 124.39 -5.6 Q 124.39 -6.23 124.5 -7.1 Q 124.6 -7.97 124.89 -8.9 Q 125.18 -9.83 125.69 -10.74 Q 126.2 -11.65 127.03 -12.37 Q 127.85 -13.1 129.02 -13.55 Q 130.19 -14 131.83 -14 L 131.83 -14 Q 133.12 -14 134.03 -13.7 Q 134.93 -13.4 135.48 -12.89 Q 136.03 -12.38 136.28 -11.7 Q 136.53 -11.02 136.53 -10.25 L 136.53 -10.25 Q 136.53 -9.11 136.06 -8.3 Q 135.6 -7.5 134.86 -6.96 Q 134.12 -6.42 133.23 -6.12 Q 132.33 -5.82 131.45 -5.66 Q 130.57 -5.51 129.83 -5.46 Q 129.09 -5.42 128.7 -5.42 L 128.7 -5.42 Q 128.7 -4.94 128.84 -4.49 Q 128.97 -4.03 129.25 -3.67 Q 129.52 -3.32 129.97 -3.1 Q 130.42 -2.88 131.07 -2.88 L 131.07 -2.88 Q 131.72 -2.88 132.08 -3.09 Q 132.45 -3.3 132.68 -3.56 Q 132.9 -3.82 133.06 -4.03 Q 133.22 -4.25 133.5 -4.25 L 133.5 -4.25 Q 133.62 -4.25 133.93 -4.19 Q 134.25 -4.13 134.58 -3.92 Q 134.9 -3.72 135.15 -3.38 Q 135.39 -3.03 135.39 -2.48 L 135.39 -2.48 Q 135.39 -1.76 134.95 -1.23 Q 134.5 -0.7 133.79 -0.37 Q 133.07 -0.05 132.2 0.1 Q 131.33 0.24 130.5 0.24 L 130.5 0.24 Q 129.4 0.24 128.31 -0.03 Q 127.23 -0.31 126.36 -0.98 Q 125.49 -1.65 124.94 -2.77 Q 124.39 -3.89 124.39 -5.6 Z M 128.78 -7.42 L 128.78 -7.42 Q 130.33 -7.45 131.29 -7.95 Q 132.24 -8.45 132.24 -9.38 L 132.24 -9.38 Q 132.24 -9.88 131.93 -10.27 Q 131.62 -10.67 130.97 -10.67 L 130.97 -10.67 Q 130.42 -10.67 130.03 -10.36 Q 129.64 -10.05 129.38 -9.57 Q 129.12 -9.09 128.98 -8.52 Q 128.85 -7.95 128.78 -7.42 Z M 147.36 -5.87 L 147.36 -5.87 Q 147.36 -6.59 147.47 -7.48 Q 147.57 -8.37 147.82 -9.28 Q 148.07 -10.18 148.52 -11.03 Q 148.97 -11.88 149.66 -12.54 Q 150.34 -13.2 151.3 -13.6 Q 152.27 -14 153.56 -14 L 153.56 -14 Q 154.81 -14 155.58 -13.56 Q 156.35 -13.12 156.54 -12.05 L 156.54 -12.05 Q 156.59 -13.02 156.64 -13.75 Q 156.69 -14.48 156.72 -15.1 Q 156.76 -15.72 156.82 -16.35 Q 156.87 -16.98 156.92 -17.77 L 156.92 -17.77 Q 156.94 -18.32 157.04 -18.42 L 157.04 -18.42 Q 157.09 -18.47 157.16 -18.49 Q 157.24 -18.51 157.44 -18.51 L 157.44 -18.51 L 158.42 -18.51 Q 159.17 -18.51 159.67 -18.33 Q 160.17 -18.15 160.47 -17.85 Q 160.77 -17.55 160.89 -17.16 Q 161.02 -16.77 161.02 -16.35 L 161.02 -16.35 Q 161.02 -16.35 160.97 -15.72 L 160.97 -15.72 Q 160.91 -15.1 160.84 -14.06 Q 160.77 -13.02 160.67 -11.7 Q 160.57 -10.38 160.47 -8.96 Q 160.36 -7.54 160.26 -6.16 Q 160.17 -4.77 160.07 -3.61 Q 159.97 -2.45 159.9 -1.61 Q 159.84 -0.77 159.81 -0.5 L 159.81 -0.5 Q 159.76 -0.2 159.69 -0.1 Q 159.62 0 159.26 0 L 159.26 0 L 158.37 0 Q 157.85 0 157.38 -0.09 Q 156.92 -0.17 156.58 -0.38 Q 156.24 -0.6 156.05 -0.96 Q 155.87 -1.33 155.87 -1.9 L 155.87 -1.9 Q 155.42 -0.95 154.51 -0.35 Q 153.6 0.24 152.22 0.24 L 152.22 0.24 Q 151.24 0.24 150.35 -0.1 Q 149.46 -0.45 148.8 -1.2 Q 148.14 -1.95 147.75 -3.1 Q 147.36 -4.25 147.36 -5.87 Z M 151.89 -6.58 L 151.89 -6.58 Q 151.89 -5.93 151.98 -5.3 Q 152.06 -4.68 152.29 -4.17 Q 152.51 -3.67 152.9 -3.38 Q 153.29 -3.08 153.89 -3.08 L 153.89 -3.08 Q 154.97 -3.08 155.69 -4.13 Q 156.42 -5.18 156.42 -7.42 L 156.42 -7.42 Q 156.42 -8.04 156.35 -8.64 Q 156.27 -9.23 156.05 -9.67 Q 155.82 -10.12 155.42 -10.39 Q 155.02 -10.67 154.39 -10.67 L 154.39 -10.67 Q 153.12 -10.67 152.51 -9.56 Q 151.89 -8.45 151.89 -6.58 Z M 187.56 -5.37 L 187.56 -5.37 Q 187.56 -5.7 187.62 -6.65 Q 187.68 -7.6 187.78 -8.85 Q 187.89 -10.1 187.99 -11.51 Q 188.08 -12.93 188.19 -14.19 Q 188.29 -15.45 188.35 -16.42 Q 188.41 -17.4 188.41 -17.77 L 188.41 -17.77 Q 188.41 -18.32 188.49 -18.41 Q 188.56 -18.51 188.94 -18.51 L 188.94 -18.51 L 189.92 -18.51 Q 190.66 -18.51 191.16 -18.33 Q 191.66 -18.15 191.96 -17.85 Q 192.26 -17.55 192.39 -17.16 Q 192.52 -16.77 192.52 -16.32 L 192.52 -16.32 Q 192.52 -15.89 192.42 -14.67 Q 192.33 -13.45 192.21 -11.8 L 192.21 -11.8 Q 192.86 -12.93 193.69 -13.46 Q 194.52 -14 195.86 -14 L 195.86 -14 Q 198.13 -14 199.34 -12.5 Q 200.56 -11 200.56 -8.02 L 200.56 -8.02 Q 200.56 -7.25 200.45 -6.32 Q 200.34 -5.4 200.05 -4.49 Q 199.77 -3.58 199.25 -2.72 Q 198.74 -1.86 197.91 -1.2 Q 197.08 -0.55 195.92 -0.15 Q 194.76 0.24 193.19 0.24 L 193.19 0.24 Q 191.26 0.24 190.13 -0.32 Q 189.01 -0.88 188.44 -1.73 Q 187.86 -2.58 187.71 -3.56 Q 187.56 -4.55 187.56 -5.37 Z M 191.69 -6.27 L 191.69 -6.27 Q 191.69 -4.55 192.16 -3.81 Q 192.64 -3.08 193.59 -3.08 L 193.59 -3.08 Q 194.49 -3.08 195 -3.64 Q 195.51 -4.2 195.77 -4.97 Q 196.03 -5.75 196.11 -6.55 Q 196.19 -7.35 196.19 -7.8 L 196.19 -7.8 Q 196.19 -9.2 195.76 -9.94 Q 195.33 -10.67 194.31 -10.67 L 194.31 -10.67 Q 193.41 -10.67 192.89 -10.2 Q 192.38 -9.73 192.11 -9.05 Q 191.83 -8.37 191.76 -7.61 Q 191.69 -6.85 191.69 -6.27 Z M 211.86 1.98 L 211.86 1.98 Q 211.86 1.5 212.06 1.15 Q 212.27 0.81 212.63 0.58 Q 212.98 0.35 213.44 0.24 Q 213.9 0.12 214.4 0.12 L 214.4 0.12 Q 214.64 0.12 214.76 0.37 Q 214.87 0.62 215.11 0.93 Q 215.35 1.25 215.87 1.5 Q 216.4 1.75 217.45 1.75 L 217.45 1.75 Q 218.38 1.75 218.95 1.3 Q 219.52 0.85 219.83 0.15 Q 220.15 -0.55 220.25 -1.37 Q 220.35 -2.2 220.35 -2.95 L 220.35 -2.95 Q 219.95 -2.26 219.46 -1.82 Q 218.97 -1.38 218.45 -1.14 Q 217.92 -0.9 217.4 -0.82 Q 216.87 -0.74 216.4 -0.74 L 216.4 -0.74 Q 215.47 -0.74 214.71 -0.99 Q 213.96 -1.25 213.4 -1.81 Q 212.85 -2.38 212.55 -3.28 Q 212.25 -4.17 212.25 -5.44 L 212.25 -5.44 Q 212.25 -5.92 212.3 -6.71 Q 212.35 -7.5 212.42 -8.48 Q 212.5 -9.47 212.59 -10.63 Q 212.67 -11.78 212.77 -12.98 L 212.77 -12.98 Q 212.82 -13.75 213.48 -13.75 L 213.48 -13.75 L 214.27 -13.75 Q 215.08 -13.75 215.58 -13.6 Q 216.08 -13.45 216.37 -13.17 Q 216.65 -12.88 216.75 -12.44 Q 216.85 -12 216.85 -11.45 L 216.85 -11.45 Q 216.85 -10.88 216.78 -10.09 Q 216.7 -9.3 216.62 -8.51 Q 216.53 -7.73 216.45 -7.04 Q 216.37 -6.35 216.37 -5.97 L 216.37 -5.97 Q 216.37 -5.02 216.84 -4.56 Q 217.3 -4.1 217.97 -4.1 L 217.97 -4.1 Q 219.14 -4.1 219.85 -5.33 Q 220.55 -6.56 220.73 -8.57 L 220.73 -8.57 L 221.12 -13.24 Q 221.15 -13.53 221.31 -13.64 Q 221.48 -13.75 221.67 -13.75 L 221.67 -13.75 L 222.57 -13.75 Q 223.1 -13.75 223.56 -13.66 Q 224.03 -13.57 224.38 -13.34 Q 224.72 -13.1 224.92 -12.7 Q 225.13 -12.3 225.13 -11.67 L 225.13 -11.67 Q 225.13 -11.43 225.09 -10.74 Q 225.05 -10.05 224.97 -8.76 Q 224.88 -7.47 224.73 -5.51 Q 224.58 -3.55 224.38 -0.72 L 224.38 -0.72 Q 224.26 0.93 223.64 2.01 Q 223.03 3.1 222.1 3.74 Q 221.17 4.37 220.02 4.62 Q 218.88 4.87 217.68 4.87 L 217.68 4.87 Q 216.41 4.87 215.34 4.64 Q 214.27 4.42 213.5 4.02 Q 212.72 3.63 212.29 3.1 Q 211.86 2.58 211.86 1.98 Z M 251.9 -7.65 L 251.9 -7.65 Q 251.9 -8.48 252.01 -9.56 Q 252.12 -10.64 252.44 -11.8 Q 252.77 -12.95 253.36 -14.06 Q 253.95 -15.17 254.87 -16.05 Q 255.79 -16.92 257.13 -17.46 Q 258.46 -18.01 260.32 -18.01 L 260.32 -18.01 Q 261.8 -18.01 262.88 -17.65 Q 263.97 -17.3 264.68 -16.69 Q 265.4 -16.08 265.73 -15.25 Q 266.07 -14.43 266.07 -13.5 L 266.07 -13.5 Q 266.07 -11.9 265.13 -11.16 Q 264.19 -10.42 262.47 -10.42 L 262.47 -10.42 Q 261.92 -10.42 261.78 -10.51 Q 261.65 -10.6 261.65 -10.88 L 261.65 -10.88 Q 261.62 -11.73 261.59 -12.35 Q 261.56 -12.98 261.42 -13.39 Q 261.27 -13.79 260.96 -13.98 Q 260.65 -14.17 260.1 -14.17 L 260.1 -14.17 Q 259.29 -14.17 258.73 -13.84 Q 258.17 -13.5 257.78 -12.96 Q 257.39 -12.43 257.16 -11.75 Q 256.92 -11.07 256.78 -10.38 Q 256.64 -9.68 256.61 -9.03 Q 256.57 -8.37 256.57 -7.9 L 256.57 -7.9 Q 256.57 -5.6 257.33 -4.63 Q 258.1 -3.65 259.7 -3.65 L 259.7 -3.65 Q 260.72 -3.65 261.44 -3.95 Q 262.15 -4.25 262.64 -4.63 Q 263.14 -5 263.53 -5.3 Q 263.92 -5.6 264.32 -5.6 L 264.32 -5.6 Q 264.82 -5.6 264.82 -4.85 L 264.82 -4.85 Q 264.82 -4.44 264.72 -3.88 Q 264.62 -3.32 264.44 -2.62 L 264.44 -2.62 Q 264.35 -2.2 263.96 -1.7 Q 263.57 -1.2 262.89 -0.76 Q 262.22 -0.33 261.23 -0.04 Q 260.25 0.24 258.96 0.24 L 258.96 0.24 Q 257.69 0.24 256.42 -0.13 Q 255.14 -0.5 254.14 -1.4 Q 253.14 -2.29 252.52 -3.82 Q 251.9 -5.35 251.9 -7.65 Z M 276.96 -2.38 L 276.96 -2.38 Q 276.96 -2.93 277.05 -3.91 Q 277.13 -4.9 277.29 -6.63 Q 277.44 -8.37 277.64 -11.07 Q 277.84 -13.77 278.06 -17.77 L 278.06 -17.77 Q 278.09 -18.32 278.18 -18.42 L 278.18 -18.42 Q 278.26 -18.49 278.59 -18.51 L 278.59 -18.51 L 279.56 -18.51 Q 280.31 -18.51 280.81 -18.33 Q 281.31 -18.15 281.61 -17.85 Q 281.91 -17.55 282.03 -17.16 Q 282.16 -16.77 282.16 -16.35 L 282.16 -16.35 Q 282.16 -15.89 282.08 -14.67 Q 281.99 -13.45 281.86 -11.8 L 281.86 -11.8 Q 282.6 -13.05 283.52 -13.53 Q 284.43 -14 285.84 -14 L 285.84 -14 Q 286.89 -14 287.66 -13.78 Q 288.44 -13.55 288.95 -13.01 Q 289.46 -12.48 289.71 -11.61 Q 289.96 -10.75 289.96 -9.47 L 289.96 -9.47 Q 289.96 -9.07 289.89 -8.1 Q 289.82 -7.13 289.7 -5.88 Q 289.58 -4.63 289.47 -3.27 Q 289.36 -1.9 289.29 -0.77 L 289.29 -0.77 Q 289.27 -0.49 289.24 -0.34 Q 289.21 -0.2 289.15 -0.12 Q 289.08 -0.05 288.96 -0.02 Q 288.84 0 288.61 0 L 288.61 0 L 287.81 0 Q 287.01 0 286.51 -0.15 Q 286.01 -0.31 285.73 -0.58 Q 285.46 -0.85 285.35 -1.26 Q 285.24 -1.67 285.24 -2.2 L 285.24 -2.2 Q 285.24 -2.44 285.25 -2.67 Q 285.26 -2.91 285.29 -3.1 L 285.29 -3.1 Q 285.36 -3.93 285.45 -4.83 Q 285.53 -5.73 285.6 -6.55 Q 285.67 -7.37 285.71 -8.03 Q 285.76 -8.68 285.76 -8.97 L 285.76 -8.97 Q 285.76 -9.62 285.45 -10.13 Q 285.14 -10.64 284.24 -10.64 L 284.24 -10.64 Q 283.04 -10.64 282.3 -9.52 Q 281.56 -8.4 281.44 -6.53 L 281.44 -6.53 Q 281.39 -6.01 281.31 -5.07 Q 281.23 -4.13 281.16 -3.16 Q 281.09 -2.2 281.03 -1.43 Q 280.97 -0.67 280.97 -0.5 L 280.97 -0.5 Q 280.97 -0.2 280.85 -0.1 Q 280.73 0 280.42 0 L 280.42 0 L 279.51 0 Q 278.74 0 278.25 -0.16 Q 277.76 -0.33 277.47 -0.63 Q 277.18 -0.93 277.07 -1.36 Q 276.96 -1.79 276.96 -2.38 Z M 301.06 -3.08 L 301.06 -3.08 Q 301.06 -5.32 303.09 -6.6 Q 305.11 -7.87 309.06 -7.97 L 309.06 -7.97 Q 309.08 -8.25 309.1 -8.44 Q 309.11 -8.63 309.11 -8.9 L 309.11 -8.9 Q 309.11 -9.7 308.81 -10.17 Q 308.51 -10.64 307.56 -10.64 L 307.56 -10.64 Q 307.03 -10.64 306.71 -10.5 Q 306.39 -10.35 306.19 -10.09 Q 305.98 -9.83 305.86 -9.45 Q 305.74 -9.07 305.63 -8.63 L 305.63 -8.63 Q 305.58 -8.41 305.41 -8.34 Q 305.24 -8.28 304.86 -8.28 L 304.86 -8.28 Q 302.31 -8.28 302.31 -10.21 L 302.31 -10.21 Q 302.31 -10.97 302.67 -11.68 Q 303.03 -12.38 303.74 -12.89 Q 304.46 -13.4 305.53 -13.7 Q 306.61 -14 308.04 -14 L 308.04 -14 Q 310.81 -14 312.06 -12.85 Q 313.31 -11.69 313.31 -9.59 L 313.31 -9.59 Q 313.31 -9.31 313.25 -8.61 Q 313.19 -7.9 313.09 -7.11 Q 313 -6.32 312.94 -5.62 Q 312.88 -4.92 312.88 -4.65 L 312.88 -4.65 Q 312.88 -4.03 313.11 -3.77 Q 313.33 -3.5 313.62 -3.4 Q 313.91 -3.3 314.13 -3.25 Q 314.36 -3.2 314.36 -3 L 314.36 -3 Q 314.36 -2.45 314.21 -1.87 Q 314.05 -1.29 313.72 -0.82 Q 313.38 -0.35 312.8 -0.05 Q 312.21 0.24 311.36 0.24 L 311.36 0.24 Q 310.16 0.24 309.56 -0.33 Q 308.96 -0.9 308.76 -1.93 L 308.76 -1.93 Q 308.16 -1.05 307.19 -0.4 Q 306.23 0.24 304.68 0.24 L 304.68 0.24 Q 303.93 0.24 303.27 0.07 Q 302.62 -0.1 302.13 -0.5 Q 301.64 -0.9 301.35 -1.54 Q 301.06 -2.17 301.06 -3.08 Z M 305.36 -4.1 L 305.36 -4.1 Q 305.36 -3.53 305.72 -3.3 Q 306.08 -3.08 306.51 -3.08 L 306.51 -3.08 Q 306.91 -3.08 307.31 -3.25 Q 307.71 -3.43 308.02 -3.79 Q 308.33 -4.15 308.55 -4.68 Q 308.78 -5.2 308.83 -5.92 L 308.83 -5.92 Q 308.18 -5.92 307.56 -5.82 Q 306.94 -5.73 306.45 -5.51 Q 305.96 -5.3 305.66 -4.95 Q 305.36 -4.6 305.36 -4.1 Z M 325.13 -10.73 L 325.13 -10.73 L 325.2 -12 Q 325.23 -12.33 325.3 -12.64 Q 325.36 -12.95 325.55 -13.2 Q 325.73 -13.45 326.08 -13.6 Q 326.44 -13.75 327.01 -13.75 L 327.01 -13.75 Q 327.18 -14.2 327.41 -14.83 Q 327.63 -15.45 327.86 -16.04 Q 328.08 -16.63 328.3 -17.02 Q 328.51 -17.42 328.68 -17.42 L 328.68 -17.42 L 329.4 -17.42 Q 330.45 -17.42 330.86 -16.77 Q 331.26 -16.13 331.26 -15.22 L 331.26 -15.22 Q 331.26 -14.72 331.19 -13.75 L 331.19 -13.75 L 333.81 -13.75 Q 334.21 -13.75 334.21 -13.4 L 334.21 -13.4 L 334.1 -12.05 Q 334.05 -11.3 333.69 -10.84 Q 333.33 -10.38 332.21 -10.38 L 332.21 -10.38 L 330.88 -10.38 Q 330.81 -9.42 330.72 -8.5 Q 330.64 -7.58 330.56 -6.75 Q 330.49 -5.92 330.45 -5.27 Q 330.4 -4.63 330.4 -4.27 L 330.4 -4.27 Q 330.4 -3.63 330.56 -3.41 Q 330.71 -3.2 331.06 -3.2 L 331.06 -3.2 Q 331.34 -3.2 331.54 -3.3 Q 331.73 -3.41 331.91 -3.53 Q 332.09 -3.65 332.22 -3.75 Q 332.36 -3.85 332.53 -3.85 L 332.53 -3.85 Q 332.7 -3.85 332.85 -3.65 Q 333 -3.45 333 -2.72 L 333 -2.72 Q 333 -1.34 332.25 -0.55 Q 331.5 0.24 329.68 0.24 L 329.68 0.24 Q 327.89 0.24 327.02 -0.59 Q 326.16 -1.43 326.16 -3.15 L 326.16 -3.15 Q 326.16 -3.53 326.19 -4.04 Q 326.23 -4.55 326.31 -5.38 Q 326.39 -6.2 326.5 -7.4 Q 326.61 -8.61 326.73 -10.38 L 326.73 -10.38 L 325.41 -10.38 Q 325.22 -10.38 325.17 -10.46 Q 325.13 -10.55 325.13 -10.73 Z M 345.11 -7.54 L 345.11 -7.54 Q 345.11 -8.4 345.21 -9.51 Q 345.3 -10.62 345.62 -11.79 Q 345.94 -12.95 346.52 -14.06 Q 347.11 -15.17 348.07 -16.05 Q 349.04 -16.92 350.44 -17.46 Q 351.83 -18.01 353.79 -18.01 L 353.79 -18.01 Q 355.06 -18.01 356.07 -17.73 Q 357.08 -17.46 357.8 -16.96 Q 358.51 -16.46 358.9 -15.73 Q 359.28 -15 359.28 -14.1 L 359.28 -14.1 Q 359.28 -12.65 358.33 -11.91 Q 357.39 -11.17 355.65 -11.17 L 355.65 -11.17 Q 355.1 -11.17 355 -11.26 Q 354.89 -11.35 354.86 -11.62 L 354.86 -11.62 Q 354.81 -12.07 354.8 -12.52 Q 354.79 -12.98 354.67 -13.35 Q 354.56 -13.72 354.28 -13.95 Q 354.01 -14.17 353.41 -14.17 L 353.41 -14.17 Q 352.19 -14.17 351.46 -13.48 Q 350.73 -12.78 350.36 -11.78 Q 349.98 -10.78 349.88 -9.72 Q 349.78 -8.65 349.78 -7.92 L 349.78 -7.92 Q 349.78 -6.73 349.94 -5.91 Q 350.09 -5.1 350.37 -4.59 Q 350.66 -4.08 351.06 -3.86 Q 351.46 -3.65 351.98 -3.65 L 351.98 -3.65 Q 352.93 -3.65 353.58 -4.05 Q 354.23 -4.46 354.36 -5.51 L 354.36 -5.51 L 354.51 -6.9 Q 354.58 -7.62 354.71 -8.08 Q 354.84 -8.54 355.31 -8.54 L 355.31 -8.54 L 356.68 -8.54 Q 357.3 -8.54 357.69 -8.41 Q 358.08 -8.28 358.3 -7.97 Q 358.51 -7.65 358.58 -7.15 Q 358.66 -6.65 358.66 -5.92 L 358.66 -5.92 Q 358.66 -5.42 358.62 -4.6 Q 358.58 -3.77 358.52 -2.92 Q 358.46 -2.08 358.38 -1.36 Q 358.3 -0.65 358.25 -0.38 L 358.25 -0.38 Q 358.21 -0.16 358.13 -0.08 Q 358.06 0 357.83 0 L 357.83 0 L 356.46 0 Q 355.17 0 354.6 -0.54 Q 354.03 -1.07 353.98 -1.88 L 353.98 -1.88 Q 353.7 -1.03 352.82 -0.39 Q 351.93 0.24 350.26 0.24 L 350.26 0.24 Q 349.28 0.24 348.35 -0.14 Q 347.43 -0.52 346.71 -1.42 Q 345.99 -2.32 345.55 -3.82 Q 345.11 -5.32 345.11 -7.54 Z M 370.97 -2.22 L 370.97 -2.22 Q 370.97 -2.55 371.01 -3.27 Q 371.05 -3.98 371.13 -4.95 Q 371.2 -5.92 371.29 -7.07 Q 371.37 -8.23 371.47 -9.42 L 371.47 -9.42 Q 371.59 -10.9 371.68 -11.96 Q 371.77 -13.02 371.82 -13.79 Q 371.87 -14.55 371.91 -15.06 Q 371.94 -15.58 371.96 -15.96 Q 371.97 -16.35 371.98 -16.67 Q 371.99 -17 371.99 -17.37 L 371.99 -17.37 Q 371.99 -17.57 372.12 -17.66 Q 372.25 -17.75 372.37 -17.75 L 372.37 -17.75 Q 373.02 -17.75 373.79 -17.79 Q 374.57 -17.82 375.34 -17.87 Q 376.12 -17.92 376.85 -17.96 Q 377.57 -18.01 378.12 -18.01 L 378.12 -18.01 Q 379.72 -18.01 380.87 -17.61 Q 382.03 -17.22 382.74 -16.49 Q 383.44 -15.75 383.79 -14.7 Q 384.13 -13.65 384.13 -12.3 L 384.13 -12.3 Q 384.13 -10.83 383.74 -9.47 Q 383.35 -8.11 382.52 -7.06 Q 381.7 -6.01 380.4 -5.38 Q 379.1 -4.75 377.3 -4.75 L 377.3 -4.75 Q 376.23 -4.75 375.47 -4.98 L 375.47 -4.98 L 375.12 -0.38 Q 375.09 -0.18 375.02 -0.09 Q 374.95 0 374.73 0 L 374.73 0 L 373.57 0 Q 372.14 0 371.55 -0.56 Q 370.97 -1.12 370.97 -2.22 Z M 375.73 -8.42 L 375.73 -8.42 Q 376.11 -8.33 376.47 -8.29 Q 376.83 -8.25 377.12 -8.25 L 377.12 -8.25 Q 378 -8.25 378.54 -8.66 Q 379.07 -9.07 379.37 -9.67 Q 379.67 -10.28 379.78 -10.93 Q 379.88 -11.57 379.88 -12.05 L 379.88 -12.05 Q 379.88 -13.12 379.38 -13.68 Q 378.89 -14.25 377.62 -14.25 L 377.62 -14.25 Q 377.29 -14.25 376.89 -14.21 Q 376.5 -14.17 376.05 -14.12 L 376.05 -14.12 Q 376 -13.07 375.92 -11.57 Q 375.85 -10.07 375.73 -8.42 Z M 394.77 -14.6 L 394.77 -14.6 L 394.85 -16 Q 394.88 -16.33 394.96 -16.64 Q 395.05 -16.96 395.25 -17.21 Q 395.45 -17.46 395.76 -17.6 Q 396.07 -17.75 396.52 -17.75 L 396.52 -17.75 L 407.69 -17.75 Q 407.84 -17.75 407.97 -17.68 Q 408.1 -17.6 408.1 -17.4 L 408.1 -17.4 L 408 -15.93 Q 407.95 -15.19 407.58 -14.72 Q 407.22 -14.25 406.09 -14.25 L 406.09 -14.25 L 403.4 -14.25 L 402.44 -0.38 Q 402.42 0 402.17 0 L 402.17 0 L 400.8 0 Q 399.39 0 398.79 -0.55 Q 398.2 -1.1 398.2 -2.12 L 398.2 -2.12 Q 398.2 -2.5 398.23 -3.25 Q 398.27 -4 398.34 -5.02 Q 398.42 -6.03 398.51 -7.21 Q 398.6 -8.4 398.7 -9.61 Q 398.79 -10.83 398.89 -12.02 Q 398.98 -13.22 399.05 -14.25 L 399.05 -14.25 L 395.05 -14.25 Q 394.77 -14.25 394.77 -14.6 Z" stroke-linecap="round" />
</g>
</g>
</g>
</svg>